<svg width="290" height="205" viewBox="0 0 290 205" fill="none" xmlns="http://www.w3.org/2000/svg">
<path opacity="0.1" d="M283.425 64.8654C280.564 58.217 276.698 52.0492 271.962 46.5785L112.92 45.0098L243.865 26.5961C235.406 23.2233 226.4 21.4343 217.296 21.3182C204.77 11.2938 189.346 5.58563 173.319 5.04267C157.292 4.4997 141.518 9.15097 128.344 18.3046C117.816 12.8857 106.144 10.0697 94.3059 10.092C58.9682 10.092 29.5211 34.5947 22.916 67.0904L283.425 64.8654Z" fill="#0098C9"/>
<path opacity="0.1" d="M289.017 92.1169C289.024 83.3051 287.342 74.5739 284.06 66.3975L8.4195 95.3642C5.57709 100.511 3.40282 106.001 1.94945 111.699L87.3062 124.441L0 133.735C2.6274 170.52 34.1253 199.568 72.6023 199.568C91.9703 199.568 109.572 192.206 122.61 180.203C135.694 192.435 153.461 199.954 173.037 199.954C202.085 199.954 227.155 183.397 238.829 159.454C262.253 152.013 280.448 133.324 286.676 109.945L178.745 93.1702H289.017C289.011 92.8182 289.017 92.4689 289.017 92.1169Z" fill="#0098C9"/>
<path d="M211.815 121.698C211.251 121.292 210.559 121.104 209.868 121.169C209.177 121.233 208.532 121.546 208.052 122.048C207.532 122.615 207.254 123.363 207.276 124.132C207.297 124.902 207.618 125.632 208.168 126.169L211.767 129.755C211.823 129.812 211.889 129.856 211.962 129.887C212.035 129.917 212.113 129.933 212.193 129.933C212.272 129.933 212.35 129.917 212.423 129.887C212.496 129.856 212.562 129.812 212.618 129.755L216.206 126.145C216.754 125.606 217.07 124.874 217.088 124.104C217.106 123.335 216.824 122.589 216.302 122.025C215.817 121.526 215.17 121.218 214.479 121.157C213.787 121.097 213.096 121.288 212.533 121.695C212.429 121.773 212.304 121.815 212.174 121.815C212.045 121.816 211.919 121.774 211.815 121.698V121.698Z" fill="#0098C9"/>
<path d="M54.9243 39.8753C54.36 39.4698 53.6687 39.282 52.9773 39.3464C52.286 39.4108 51.6411 39.7231 51.161 40.226C50.6416 40.7929 50.3632 41.5405 50.385 42.3099C50.4068 43.0793 50.727 43.8099 51.2776 44.3463L54.8766 47.9327C54.9323 47.989 54.9985 48.0337 55.0715 48.0642C55.1445 48.0947 55.2228 48.1104 55.3019 48.1104C55.381 48.1104 55.4593 48.0947 55.5323 48.0642C55.6053 48.0337 55.6716 47.989 55.7273 47.9327L59.3156 44.3224C59.8633 43.7831 60.1797 43.051 60.1975 42.2816C60.2153 41.5123 59.9332 40.7662 59.411 40.2021C58.9268 39.703 58.2797 39.3952 57.5879 39.3347C56.896 39.2742 56.2055 39.4652 55.6425 39.8727C55.5388 39.95 55.4131 39.9921 55.2838 39.9926C55.1545 39.993 55.0285 39.9519 54.9243 39.8753Z" fill="#0098C9"/>
<path d="M21.5317 112.931C20.9674 112.525 20.2761 112.338 19.5847 112.402C18.8934 112.466 18.2485 112.779 17.7684 113.282C17.249 113.849 16.9706 114.596 16.9924 115.366C17.0142 116.135 17.3344 116.866 17.885 117.402L21.484 120.988C21.5397 121.045 21.6059 121.089 21.6789 121.12C21.7519 121.15 21.8302 121.166 21.9093 121.166C21.9884 121.166 22.0667 121.15 22.1397 121.12C22.2127 121.089 22.279 121.045 22.3347 120.988L25.923 117.378C26.4707 116.839 26.7871 116.107 26.8049 115.337C26.8227 114.568 26.5406 113.822 26.0184 113.258C25.5342 112.759 24.8871 112.451 24.1953 112.39C23.5034 112.33 22.8129 112.521 22.2499 112.928C22.1462 113.006 22.0205 113.048 21.8912 113.048C21.7619 113.049 21.6359 113.008 21.5317 112.931V112.931Z" fill="#0098C9"/>
<path d="M211.55 32.7025C210.986 32.2969 210.295 32.1091 209.603 32.1735C208.912 32.238 208.267 32.5503 207.787 33.0531C207.268 33.62 206.989 34.3676 207.011 35.137C207.033 35.9064 207.353 36.637 207.904 37.1735L211.503 40.7599C211.558 40.8162 211.625 40.8609 211.698 40.8913C211.771 40.9218 211.849 40.9376 211.928 40.9376C212.007 40.9376 212.085 40.9218 212.158 40.8913C212.231 40.8609 212.298 40.8162 212.353 40.7599L215.942 37.1496C216.489 36.6103 216.806 35.8782 216.824 35.1088C216.841 34.3394 216.559 33.5934 216.037 33.0292C215.553 32.5302 214.906 32.2223 214.214 32.1619C213.522 32.1014 212.832 32.2923 212.268 32.6998C212.165 32.7772 212.039 32.8192 211.91 32.8197C211.781 32.8202 211.655 32.7791 211.55 32.7025Z" fill="#0098C9"/>
<path d="M190.321 19.6375H189.526V24.1536H190.321V19.6375Z" fill="#3AD29F"/>
<path d="M192.177 22.294V21.4971H187.671V22.294H192.177Z" fill="#3AD29F"/>
<path d="M225.304 81.0044H224.509V85.5206H225.304V81.0044Z" fill="#3AD29F"/>
<path d="M227.159 83.661V82.864H222.654V83.661H227.159Z" fill="#3AD29F"/>
<path d="M68.9435 137.058H68.1484V141.574H68.9435V137.058Z" fill="#3AD29F"/>
<path d="M70.7988 139.715V138.918H66.2935V139.715H70.7988Z" fill="#3AD29F"/>
<path d="M50.6573 19.6375H49.8623V24.1536H50.6573V19.6375Z" fill="#3AD29F"/>
<path d="M52.5127 22.294V21.4971H48.0074V22.294H52.5127Z" fill="#3AD29F"/>
<path d="M85.6398 26.8103H84.8447V31.3265H85.6398V26.8103Z" fill="#3AD29F"/>
<path d="M87.4951 29.4669V28.6699H82.9898V29.4669H87.4951Z" fill="#3AD29F"/>
<path d="M68.1746 76.2013C67.9553 76.106 67.7786 75.933 67.6784 75.7155C67.5782 75.4979 67.5614 75.2509 67.6313 75.0218C67.6425 74.9864 67.6496 74.9498 67.6525 74.9129V74.9129C67.6593 74.8077 67.632 74.7032 67.5747 74.6149C67.5174 74.5266 67.4332 74.4592 67.3346 74.4227C67.2359 74.3863 67.1282 74.3828 67.0274 74.4127C66.9267 74.4426 66.8382 74.5044 66.7753 74.5887C66.7541 74.6185 66.7363 74.6506 66.7223 74.6844C66.6268 74.9039 66.4542 75.0806 66.2373 75.181C66.0204 75.2813 65.7743 75.2984 65.5456 75.229C65.5103 75.2181 65.4738 75.211 65.437 75.2077C65.3321 75.201 65.2278 75.2283 65.1397 75.2858C65.0516 75.3432 64.9844 75.4276 64.9481 75.5265C64.9117 75.6253 64.9082 75.7333 64.938 75.8343C64.9679 75.9353 65.0295 76.024 65.1137 76.0871V76.0871C65.143 76.1089 65.1751 76.1267 65.2091 76.1402C65.4282 76.2365 65.6046 76.41 65.7047 76.6279C65.8048 76.8457 65.8218 77.0928 65.7523 77.3224C65.74 77.3565 65.7328 77.3923 65.7312 77.4286C65.7244 77.5338 65.7517 77.6383 65.809 77.7266C65.8663 77.8149 65.9505 77.8823 66.0491 77.9188C66.1477 77.9552 66.2555 77.9587 66.3562 77.9288C66.457 77.8989 66.5454 77.8371 66.6084 77.7527C66.6291 77.7227 66.6469 77.6907 66.6614 77.6571C66.7588 77.4397 66.9323 77.2655 67.1491 77.1676C67.3659 77.0697 67.611 77.0549 67.838 77.1258C67.8733 77.1369 67.9098 77.1441 67.9467 77.147C68.0514 77.1527 68.1553 77.1246 68.2429 77.0668C68.3305 77.009 68.3973 76.9245 68.4335 76.8258C68.4697 76.7271 68.4733 76.6194 68.4439 76.5184C68.4145 76.4175 68.3535 76.3287 68.27 76.2651V76.2651C68.2405 76.2405 68.2085 76.2192 68.1746 76.2013V76.2013Z" fill="#F55F44"/>
<path d="M218.441 1.81725C218.224 1.71959 218.05 1.54565 217.952 1.32831C217.855 1.11097 217.84 0.865301 217.911 0.637734C217.922 0.60234 217.929 0.565805 217.932 0.528815C217.939 0.423682 217.911 0.319171 217.854 0.230854C217.797 0.142538 217.712 0.0751414 217.614 0.038707C217.515 0.00227248 217.407 -0.00124988 217.307 0.0286641C217.206 0.0585781 217.118 0.120327 217.055 0.204713V0.204713C217.033 0.234479 217.016 0.266563 217.002 0.300349C216.904 0.517408 216.73 0.691171 216.513 0.789004C216.297 0.886838 216.052 0.902008 215.825 0.831665C215.79 0.820798 215.753 0.813674 215.716 0.810412C215.611 0.803631 215.507 0.831 215.419 0.888438C215.331 0.945876 215.264 1.03031 215.227 1.12916C215.191 1.22801 215.187 1.33599 215.217 1.437C215.247 1.53802 215.309 1.62667 215.393 1.68974V1.68974C215.422 1.71154 215.454 1.72941 215.488 1.74287C215.708 1.83916 215.884 2.01267 215.984 2.23053C216.084 2.44839 216.101 2.69549 216.032 2.92505C216.019 2.95919 216.012 2.99502 216.01 3.03131C216.004 3.13644 216.031 3.24095 216.088 3.32927C216.146 3.41759 216.23 3.48498 216.328 3.52142C216.427 3.55785 216.535 3.56137 216.636 3.53146C216.736 3.50155 216.825 3.4398 216.888 3.35541V3.35541C216.908 3.32537 216.926 3.29333 216.941 3.25977C217.038 3.04233 217.212 2.86821 217.428 2.77031C217.645 2.67241 217.89 2.65752 218.117 2.72846C218.153 2.73961 218.189 2.74674 218.226 2.74971V2.74971C218.331 2.75542 218.434 2.72729 218.522 2.66947C218.61 2.61165 218.677 2.52719 218.713 2.42849C218.749 2.32978 218.753 2.22205 218.723 2.12112C218.694 2.02018 218.633 1.93137 218.549 1.86773V1.86773C218.515 1.847 218.479 1.83007 218.441 1.81725V1.81725Z" fill="#3AD29F"/>
<path d="M125.154 6.06774C124.937 5.97008 124.763 5.79613 124.665 5.5788C124.568 5.36146 124.553 5.11579 124.624 4.88822C124.635 4.85283 124.642 4.81629 124.645 4.7793C124.652 4.67417 124.624 4.56966 124.567 4.48134C124.51 4.39303 124.425 4.32563 124.327 4.2892C124.228 4.25276 124.12 4.24924 124.02 4.27915C123.919 4.30907 123.83 4.37082 123.768 4.4552V4.4552C123.746 4.48497 123.729 4.51705 123.715 4.55084C123.617 4.7679 123.443 4.94166 123.226 5.03949C123.01 5.13733 122.765 5.1525 122.538 5.08215C122.502 5.07129 122.466 5.06416 122.429 5.0609C122.324 5.05412 122.22 5.08149 122.132 5.13893C122.044 5.19636 121.977 5.2808 121.94 5.37965C121.904 5.4785 121.9 5.58648 121.93 5.68749C121.96 5.78851 122.022 5.87715 122.106 5.94023V5.94023C122.135 5.96203 122.167 5.9799 122.201 5.99336C122.42 6.08965 122.597 6.26316 122.697 6.48102C122.797 6.69888 122.814 6.94598 122.745 7.17553C122.732 7.20967 122.725 7.2455 122.723 7.2818V7.2818C122.717 7.38693 122.744 7.49144 122.801 7.57976C122.858 7.66807 122.943 7.73547 123.041 7.77191C123.14 7.80834 123.248 7.81186 123.348 7.78195C123.449 7.75203 123.538 7.69028 123.601 7.6059V7.6059C123.621 7.57586 123.639 7.54382 123.654 7.51026C123.751 7.29282 123.925 7.11869 124.141 7.0208C124.358 6.9229 124.603 6.90801 124.83 6.97895C124.866 6.9901 124.902 6.99723 124.939 7.0002V7.0002C125.044 7.00591 125.147 6.97778 125.235 6.91996C125.323 6.86214 125.39 6.77768 125.426 6.67897C125.462 6.58027 125.466 6.47254 125.436 6.37161C125.407 6.27067 125.346 6.18186 125.262 6.11822V6.11822C125.228 6.09749 125.192 6.08056 125.154 6.06774V6.06774Z" fill="#F55F44"/>
<path d="M76.1258 105.423C75.9065 105.328 75.7298 105.155 75.6296 104.938C75.5294 104.72 75.5126 104.473 75.5825 104.244C75.5936 104.209 75.6007 104.172 75.6037 104.135V104.135C75.6105 104.03 75.5832 103.925 75.5259 103.837C75.4686 103.749 75.3843 103.681 75.2857 103.645C75.1871 103.608 75.0794 103.605 74.9786 103.635C74.8779 103.665 74.7894 103.727 74.7265 103.811V103.811C74.7053 103.841 74.6875 103.873 74.6735 103.907C74.5779 104.126 74.4054 104.303 74.1885 104.403C73.9716 104.504 73.7254 104.521 73.4968 104.451C73.4614 104.44 73.425 104.433 73.3882 104.43C73.2833 104.423 73.179 104.45 73.0909 104.508C73.0028 104.565 72.9356 104.65 72.8992 104.749C72.8629 104.847 72.8594 104.955 72.8892 105.056C72.9191 105.157 72.9807 105.246 73.0648 105.309C73.0942 105.331 73.1263 105.349 73.1602 105.362C73.3794 105.459 73.5557 105.632 73.6559 105.85C73.756 106.068 73.7729 106.315 73.7035 106.545C73.6911 106.579 73.684 106.614 73.6823 106.651V106.651C73.6756 106.756 73.7029 106.86 73.7602 106.949C73.8175 107.037 73.9017 107.104 74.0003 107.141C74.0989 107.177 74.2066 107.181 74.3074 107.151C74.4082 107.121 74.4966 107.059 74.5595 106.975V106.975C74.5803 106.945 74.5981 106.913 74.6125 106.879C74.71 106.662 74.8835 106.488 75.1003 106.39C75.3171 106.292 75.5622 106.277 75.7892 106.348C75.8245 106.359 75.861 106.366 75.8979 106.369V106.369C76.0026 106.375 76.1064 106.347 76.1941 106.289C76.2817 106.231 76.3485 106.147 76.3847 106.048C76.4209 105.949 76.4245 105.842 76.3951 105.741C76.3657 105.64 76.3047 105.551 76.2212 105.487C76.1917 105.463 76.1597 105.441 76.1258 105.423V105.423Z" fill="#F55F44"/>
<path d="M193.264 71.4193C193.047 71.3216 192.873 71.1477 192.776 70.9304C192.678 70.713 192.663 70.4674 192.734 70.2398C192.745 70.2044 192.752 70.1679 192.755 70.1309V70.1309C192.762 70.0257 192.735 69.9212 192.677 69.8329C192.62 69.7446 192.536 69.6772 192.437 69.6408C192.339 69.6043 192.231 69.6008 192.13 69.6307C192.029 69.6606 191.941 69.7224 191.878 69.8068C191.857 69.8365 191.839 69.8686 191.825 69.9024C191.729 70.1219 191.557 70.2986 191.34 70.399C191.123 70.4994 190.877 70.5164 190.648 70.447C190.613 70.4361 190.576 70.429 190.54 70.4258V70.4258C190.435 70.419 190.33 70.4463 190.242 70.5038C190.154 70.5612 190.087 70.6456 190.051 70.7445C190.014 70.8433 190.011 70.9513 190.041 71.0523C190.07 71.1534 190.132 71.242 190.216 71.3051V71.3051C190.246 71.3269 190.278 71.3447 190.312 71.3582C190.531 71.4545 190.707 71.628 190.807 71.8459C190.907 72.0637 190.924 72.3108 190.855 72.5404C190.843 72.5745 190.835 72.6104 190.834 72.6466C190.827 72.7518 190.854 72.8563 190.912 72.9446C190.969 73.0329 191.053 73.1003 191.152 73.1368C191.25 73.1732 191.358 73.1767 191.459 73.1468C191.56 73.1169 191.648 73.0551 191.711 72.9707V72.9707C191.732 72.9407 191.749 72.9087 191.764 72.8751C191.861 72.6577 192.035 72.4835 192.252 72.3856C192.469 72.2877 192.714 72.2729 192.941 72.3438C192.976 72.355 193.012 72.3621 193.049 72.365V72.365C193.154 72.3708 193.258 72.3426 193.345 72.2848C193.433 72.227 193.5 72.1425 193.536 72.0438C193.572 71.9451 193.576 71.8374 193.546 71.7365C193.517 71.6355 193.456 71.5467 193.373 71.4831V71.4831C193.339 71.4577 193.302 71.4363 193.264 71.4193V71.4193Z" fill="#F55F44"/>
<path d="M271.708 43.7911C271.491 43.6935 271.318 43.5195 271.22 43.3022C271.122 43.0848 271.107 42.8392 271.178 42.6116C271.189 42.5762 271.196 42.5397 271.199 42.5027V42.5027C271.206 42.3976 271.179 42.293 271.122 42.2047C271.064 42.1164 270.98 42.049 270.881 42.0126C270.783 41.9762 270.675 41.9726 270.574 42.0025C270.474 42.0325 270.385 42.0942 270.322 42.1786V42.1786C270.301 42.2084 270.283 42.2404 270.269 42.2742C270.174 42.4937 270.001 42.6704 269.784 42.7708C269.567 42.8712 269.321 42.8883 269.093 42.8188C269.057 42.808 269.021 42.8008 268.984 42.7976C268.879 42.7908 268.775 42.8182 268.687 42.8756C268.599 42.933 268.531 43.0175 268.495 43.1163C268.459 43.2152 268.455 43.3231 268.485 43.4242C268.515 43.5252 268.576 43.6138 268.661 43.6769V43.6769C268.69 43.6987 268.722 43.7166 268.756 43.73C268.973 43.8287 269.146 44.0031 269.244 44.2208C269.341 44.4384 269.356 44.6842 269.286 44.9122C269.274 44.9463 269.266 44.9822 269.265 45.0185V45.0185C269.258 45.1236 269.285 45.2281 269.343 45.3164C269.4 45.4047 269.484 45.4721 269.583 45.5086C269.681 45.545 269.789 45.5485 269.89 45.5186C269.991 45.4887 270.079 45.4269 270.142 45.3426C270.163 45.3125 270.181 45.2805 270.195 45.2469C270.292 45.0295 270.466 44.8554 270.683 44.7575C270.9 44.6596 271.145 44.6447 271.372 44.7156C271.407 44.7268 271.443 44.7339 271.48 44.7369V44.7369C271.585 44.7426 271.689 44.7144 271.777 44.6566C271.864 44.5988 271.931 44.5143 271.967 44.4156C272.003 44.3169 272.007 44.2092 271.978 44.1083C271.948 44.0073 271.887 43.9185 271.804 43.8549V43.8549C271.774 43.8304 271.742 43.809 271.708 43.7911V43.7911Z" fill="#F55F44"/>
<path d="M184.181 89.9568L184.223 90.0904C184.205 90.0474 184.19 90.0026 184.181 89.9568V89.9568Z" fill="url(#paint0_linear)"/>
<path d="M60.5159 196.472C60.4894 196.435 60.4629 196.398 60.4416 196.361C60.4204 196.324 60.4125 196.308 60.3992 196.281C60.3777 196.245 60.3583 196.208 60.3409 196.169L60.3091 196.09C60.2959 196.053 60.28 196.013 60.2694 195.976L60.2482 195.899C60.2482 195.861 60.2296 195.821 60.2217 195.782V195.71C60.2217 195.67 60.2217 195.628 60.2217 195.588C60.2217 195.548 60.2217 195.545 60.2217 195.521C60.2217 195.497 60.2217 195.436 60.2217 195.396C60.2217 195.357 60.2217 195.357 60.2217 195.335L60.2376 195.202C60.2376 195.187 60.2376 195.168 60.2376 195.152C60.2457 195.105 60.2563 195.059 60.2694 195.014V194.971C60.2818 194.924 60.2977 194.876 60.3171 194.828C60.3171 194.828 60.3171 194.804 60.3171 194.793C60.3171 194.783 60.3568 194.692 60.378 194.642V194.621C60.4019 194.568 60.4284 194.514 60.4549 194.464L60.5477 194.302C60.9043 193.752 61.3525 193.268 61.8727 192.87C65.8348 194.504 70.727 192.636 70.727 192.636C70.727 192.636 77.2517 189.366 76.7853 190.301C76.6289 190.615 76.7084 191.244 76.886 191.943C80.0132 191.287 81.7358 189.602 82.6766 188.078L79.1148 184.228C79.1148 184.228 93.5848 176.041 95.2067 171.838C96.8286 167.635 104.747 155.723 104.747 155.723C104.747 155.723 107.31 146.38 111.972 144.279C111.972 144.279 121.266 133.15 126.691 123.605C124.764 118.799 122.079 111.287 122.689 108.075C123.45 104.09 122.66 96.5134 122.344 93.8515C119.766 96.006 109.287 104.544 105.214 104.34C103.751 104.265 102.174 103.479 100.708 102.435C97.189 100.201 94.0406 96.1653 94.0406 96.1653C94.515 96.2105 94.9045 95.7748 95.2199 95.0469C91.3295 90.7964 83.2703 82.0935 82.3904 81.9181C81.227 81.6843 74.9355 70.7047 78.4311 68.3696C81.9266 66.0345 88.2155 74.4425 88.4487 76.0737C88.6077 77.1814 93.4841 82.051 96.6007 85.0688C96.6007 84.9918 96.6007 84.9466 96.6007 84.9466L97.0618 85.1777C97.0618 85.0316 97.0618 84.9466 97.0618 84.9466L105.108 88.982L111.974 79.575C111.974 79.575 113.829 69.5332 118.499 67.8861C123.169 66.239 126.537 61.2314 126.537 61.2314C126.58 61.395 126.615 61.5608 126.64 61.7281C126.876 61.4173 127.003 61.2314 127.003 61.2314C127.003 61.2314 127.003 61.2712 127.03 61.3429C127.384 59.9057 127.473 58.4158 127.295 56.9463L127.229 56.9065C127.2 56.7258 127.17 56.5531 127.139 56.3884C124.764 54.9369 122.984 52.682 122.122 50.0309C121.26 47.3798 121.372 44.5071 122.437 41.9313C121.25 41.0998 119.522 40.5818 118.064 39.9495C115.862 39.0011 114.023 37.6064 112.809 35.9647C113.611 35.7633 114.452 35.7807 115.245 36.0151C115.343 34.9366 114.1 33.7039 115.067 32.883C115.666 32.373 116.782 32.4181 117.638 32.6705C118.494 32.9229 119.268 33.34 120.177 33.4516C121.767 33.6455 123.248 32.8777 124.377 32.0489C125.506 31.22 126.561 30.2504 128.072 29.8572C131.061 29.0788 134.029 30.864 137.032 31.6185C141.855 32.8299 144.733 34.121 144.948 37.1973C145.568 37.6151 146.14 38.1017 146.652 38.6478C147.691 39.5535 148.409 40.7729 148.698 42.1226C149.106 44.2187 148.258 46.3492 147.238 48.2327C146.657 49.2954 143.869 54.8264 141.974 54.0958C141.45 54.6988 140.866 55.2462 140.231 55.7296C140.291 56.3672 140.379 57.0101 140.496 57.653C140.922 57.8875 141.385 58.0474 141.866 58.1258C142.903 58.3177 143.956 58.4102 145.011 58.4021C146.669 58.3897 148.325 58.2886 149.973 58.0993C151.573 57.9175 153.183 57.8288 154.793 57.8336C155.596 57.8311 156.398 57.8693 157.197 57.9478H157.322C157.483 57.9664 157.642 57.985 157.796 58.0089H157.87C158.05 58.0355 158.223 58.0621 158.4 58.094H158.456L158.88 58.1763L158.975 58.1976C159.124 58.2294 159.267 58.264 159.407 58.3012C159.552 58.3384 159.693 58.3782 159.829 58.4207L159.897 58.442L160.229 58.5456L160.3 58.5721C160.549 58.6571 160.785 58.7475 161.008 58.8378L161.077 58.867L161.342 58.9866L161.392 59.0105L161.705 59.1566L161.731 59.1699L161.996 59.3027L162.063 59.3346L162.328 59.4701H162.346L162.678 59.6427L162.876 59.7463L162.969 59.7942L163.234 59.9323C165.564 61.1012 188.164 67.1741 192.121 79.3253L192.041 79.3997L192.023 79.413L191.933 79.4953C191.999 79.6733 192.063 79.8487 192.121 80.0266C192.121 80.0266 191.737 80.372 191.138 80.9352C192.198 85.5815 195.049 97.4485 196.547 98.0117C198.402 98.713 200.509 112.96 195.617 112.493C190.724 112.025 190.722 100.581 190.722 100.581C190.722 100.581 187.496 91.9095 185.117 87.5076C184.707 88.0561 184.392 88.6693 184.184 89.322L184.2 89.3698C184.193 89.3552 184.188 89.3401 184.184 89.3247C184.126 89.5241 184.117 89.7346 184.157 89.9383C183.927 89.2609 182.731 86.1501 180.238 86.5671C177.574 87.0108 167.517 77.0805 166.565 76.1295C166.587 76.3951 166.616 76.7086 166.647 77.0832V77.0964C166.666 77.3143 166.687 77.5507 166.706 77.8031V77.8828C166.706 77.9465 166.706 78.0103 166.719 78.0767C166.732 78.1431 166.719 78.1617 166.719 78.2042L166.735 78.4008C166.735 78.446 166.735 78.4938 166.735 78.539L166.751 78.7356C166.751 78.794 166.751 78.8551 166.751 78.9135C166.751 78.972 166.767 79.1048 166.772 79.2031C166.777 79.3014 166.785 79.3598 166.791 79.4369C166.796 79.5139 166.791 79.5485 166.791 79.6042L166.806 79.838C166.806 79.8912 166.806 79.9443 166.806 79.9974C166.806 80.0506 166.806 80.1621 166.825 80.2471C166.844 80.3322 166.825 80.3561 166.825 80.4119L166.841 80.6775C166.841 80.7306 166.841 80.7811 166.841 80.8316C166.841 80.9724 166.86 81.1132 166.867 81.2566V81.3124L166.891 81.7056V81.8411C166.891 81.9474 166.905 82.0563 166.91 82.1652V82.3193C166.91 82.4308 166.923 82.5424 166.928 82.654V82.7921C166.928 82.925 166.928 83.0578 166.95 83.1959C166.95 83.2225 166.95 83.2464 166.95 83.273L166.973 83.7804V83.8096C166.973 83.9637 166.973 84.1178 166.995 84.2719C166.995 84.317 166.995 84.3622 166.995 84.4047L167.011 84.7846C167.011 84.835 167.011 84.8855 167.011 84.936C167.011 85.0635 167.011 85.2017 167.011 85.3212C167.011 85.3637 167.011 85.4089 167.011 85.454C167.011 85.8047 167.034 86.1607 167.045 86.5167C167.045 86.5432 167.045 86.5698 167.045 86.5937C167.045 86.7451 167.045 86.8965 167.045 87.048C167.045 87.0931 167.045 87.141 167.045 87.1861C167.045 87.3216 167.045 87.4518 167.045 87.5952C167.045 87.6431 167.045 87.6909 167.045 87.736V88.1876V88.278C167.045 88.6446 167.045 89.0138 167.045 89.3858C167.045 89.423 167.045 89.4628 167.045 89.5027V89.933C167.045 89.9835 167.045 90.034 167.045 90.0818C167.045 90.2199 167.045 90.3474 167.045 90.4936V90.6078C167.061 95.7031 166.735 100.889 165.593 103.848C164.988 105.437 164.665 107.12 164.639 108.821C164.813 111.921 165.694 114.939 167.215 117.644V117.644L166.95 117.559C166.981 117.617 167 117.646 167 117.646L166.849 117.599C167.077 118.079 167.233 118.348 167.233 118.348C167.233 118.348 166.894 118.239 166.29 118.061C167.148 121.103 167.723 125.786 166.067 131.66C166.067 131.66 165.134 136.798 165.834 138.668C166.534 140.538 167.233 155.484 167.233 155.484C167.233 155.484 168.63 157.344 171.193 156.185C173.755 155.027 205.189 151.048 205.189 151.048C205.189 151.048 205.263 151.178 205.385 151.404C206.352 151.101 207.746 150.638 208.767 150.208C208.39 149.677 208.041 149.371 207.752 149.411C207.752 149.411 209.432 148.598 211.261 147.958L211.594 147.844H211.608L211.934 147.737H211.955L212.268 147.642H212.302L212.588 147.562L212.647 147.544L212.912 147.474L212.981 147.456L213.246 147.397L213.32 147.381L213.55 147.334L213.638 147.318L213.847 147.283L213.945 147.267L214.136 147.246H214.239H214.414H214.512H214.777H214.92H215.011L215.138 147.273L215.223 147.291C215.26 147.291 215.294 147.318 215.329 147.331C215.355 147.339 215.38 147.349 215.405 147.36C215.44 147.377 215.474 147.395 215.506 147.416C215.525 147.416 215.546 147.437 215.562 147.451C215.609 147.485 215.652 147.525 215.689 147.57C216.852 148.97 223.375 175.831 220.348 177.698C220.258 177.754 220.17 177.807 220.083 177.855L219.977 177.916L219.839 177.993L219.707 178.065L219.609 178.115L219.466 178.184L219.391 178.219L219.243 178.283L219.19 178.304C219.137 178.325 219.084 178.347 219.034 178.362H218.999L218.84 178.413H218.819C217.131 178.87 216.569 177.302 214.52 173.945C212.514 170.653 209.938 166.506 207.685 164.971C207.635 165.08 207.587 165.194 207.532 165.303C207.532 165.303 183.998 167.872 175.377 170.674C166.756 173.477 160.006 177.212 154.406 170.674C149.39 164.809 144.375 145.79 143.395 141.933C143.326 141.667 143.278 141.463 143.249 141.354V141.306V141.287V141.269L124.608 155.516L116.408 165.064C116.408 165.064 105.012 181.178 102.905 181.402C100.799 181.625 91.022 197.049 91.022 197.049L90.6669 196.666C90.5821 197.094 90.5185 197.487 90.4708 197.83C91.2659 199.689 90.5265 201.916 89.8268 203.39L89.7977 203.449L89.7182 203.611L89.6757 203.696C89.6492 203.746 89.6254 203.797 89.5989 203.844L89.5591 203.919C89.5326 203.972 89.5035 204.022 89.477 204.073L89.4372 204.147L89.3736 204.259L89.3418 204.315C89.3153 204.365 89.2862 204.41 89.2623 204.455C89.2493 204.474 89.2378 204.493 89.2279 204.514C89.2093 204.54 89.1934 204.57 89.1775 204.596C89.1616 204.623 89.159 204.628 89.1484 204.641L89.0874 204.742C89.0785 204.755 89.0705 204.768 89.0636 204.782L89.0238 204.841L89.0079 204.867L88.9681 204.928C88.9681 204.944 88.9523 204.952 88.947 204.963C88.947 204.963 64.4805 199.118 61.4514 197.259C61.356 197.2 61.2659 197.139 61.1863 197.078L61.1095 197.02C61.0565 196.977 61.0035 196.937 60.9558 196.895C60.928 196.871 60.9015 196.846 60.8763 196.82C60.8365 196.783 60.7941 196.746 60.7597 196.709C60.7252 196.672 60.712 196.656 60.6881 196.629L60.5954 196.52L60.5159 196.472Z" fill="url(#paint1_linear)"/>
<path d="M202.607 150.851C202.607 150.851 208.056 149.257 208.281 148.574C208.507 147.892 213.052 161.087 213.052 161.087L208.512 164.275C208.512 164.275 203.742 161.547 201.25 162.001C198.759 162.455 202.607 150.851 202.607 150.851Z" fill="#4C4C56"/>
<path d="M85.2769 183.389C85.2769 183.389 84.6064 189.531 77.1064 190.213C69.6064 190.896 82.0993 196.355 82.0993 196.355L91.64 197.038C91.64 197.038 91.8652 193.17 93.4554 190.213C95.0455 187.257 85.2769 183.389 85.2769 183.389Z" fill="#4C4C56"/>
<path d="M164.026 114.227C164.026 114.227 168.351 120.832 165.389 131.291C165.389 131.291 164.482 136.296 165.163 138.115C165.844 139.935 166.523 154.496 166.523 154.496C166.523 154.496 167.885 156.316 170.381 155.178C172.878 154.041 203.509 150.174 203.509 150.174C203.509 150.174 208.502 158.818 205.777 164.051C205.777 164.051 182.856 166.554 174.46 169.282C166.064 172.011 159.481 175.658 154.033 169.282C148.584 162.906 143.14 140.618 143.14 140.618L124.984 154.496L117.033 163.823C117.033 163.823 105.903 179.521 103.87 179.747C101.837 179.972 92.2967 194.99 92.2967 194.99L80.7207 182.477C80.7207 182.477 94.7931 174.508 96.3806 170.419C97.9681 166.331 105.685 154.724 105.685 154.724C105.685 154.724 108.182 145.623 112.722 143.567C112.722 143.567 129.063 124.004 130.65 114.902C132.237 105.801 157.883 110.12 157.883 110.12L164.026 114.227Z" fill="#364954"/>
<path d="M79.6022 192.942C79.6022 192.942 78.0121 189.302 78.4679 188.394C78.9237 187.485 72.566 190.668 72.566 190.668C72.566 190.668 67.7956 192.488 63.9423 190.896C63.9423 190.896 60.5395 193.396 63.4891 195.219C66.4387 197.041 90.2691 202.726 90.2691 202.726C90.2691 202.726 93.8999 197.493 90.9502 194.536L79.6022 192.942Z" fill="#272727"/>
<path opacity="0.1" d="M96.3973 170.419C97.9874 166.326 105.702 154.724 105.702 154.724C105.702 154.724 108.199 145.623 112.738 143.567C112.738 143.567 129.079 124.004 130.667 114.902C130.995 113.027 132.347 111.715 134.282 110.833C135.342 114.01 136.397 117.186 137.449 120.362C138.889 124.701 140.329 129.04 141.771 133.379C142.603 135.889 143.393 138.692 143.316 141.285C143.207 140.852 143.149 140.613 143.149 140.613L124.993 154.491L117.042 163.818C117.042 163.818 105.911 179.516 103.879 179.741C101.846 179.967 92.3055 194.985 92.3055 194.985L80.7295 182.472C80.7295 182.472 94.8099 174.516 96.3973 170.419Z" fill="black"/>
<path d="M127.035 55.7615C127.035 55.7615 128.965 60.6523 126.468 65.203C123.972 69.7537 127.489 77.8297 129.757 78.284C132.026 78.7383 141.105 72.8247 141.786 68.9567C142.467 65.0888 138.837 57.127 140.652 51.8936L127.035 55.7615Z" fill="#F7C4A7"/>
<path opacity="0.1" d="M139.29 64.1802C139.29 64.1802 132.254 78.5124 124.539 68.274C124.539 68.274 116.822 83.9717 119.318 86.4742C121.094 88.2008 122.991 89.7987 124.992 91.256L129.079 119.92C129.079 119.92 152.226 111.951 161.986 113.324L147.008 77.3807L139.29 64.1802Z" fill="black"/>
<path d="M139.29 63.4973C139.29 63.4973 132.254 77.8295 124.539 67.5911C124.539 67.5911 116.822 83.2888 119.318 85.7913C121.094 87.5179 122.991 89.1159 124.992 90.5731L129.079 119.238C129.079 119.238 152.226 111.268 161.992 112.636L147.013 76.6925L139.29 63.4973Z" fill="#D39999"/>
<path d="M189.447 80.1038C189.447 80.1038 193.303 97.8497 195.118 98.5324C196.934 99.2152 198.977 113.09 194.212 112.636C189.447 112.182 189.442 101.035 189.442 101.035C189.442 101.035 184.454 87.6245 182.411 86.0306C180.368 84.4366 189.447 80.1038 189.447 80.1038Z" fill="#F7C4A7"/>
<path d="M100.255 88.2939C100.255 88.2939 90.0415 78.7303 89.8163 77.1363C89.591 75.5424 83.4558 67.3548 80.0557 69.6289C76.6555 71.9029 82.7801 82.5956 83.9143 82.8241C85.0486 83.0525 98.44 97.839 98.44 97.839L100.255 88.2939Z" fill="#F7C4A7"/>
<path opacity="0.1" d="M140.312 59.7439C140.312 59.7439 141.56 61.221 149.956 60.3124C158.352 59.4039 160.395 60.9951 162.677 62.1322C164.959 63.2692 186.96 69.1854 190.816 81.0151C190.816 81.0151 182.193 88.7484 183.102 90.7966C183.102 90.7966 181.967 86.9286 179.243 87.3856C176.519 87.8425 165.852 77.1471 165.852 77.1471C165.852 77.1471 167.895 97.1671 165.173 104.22C162.452 111.273 166.533 118.324 166.533 118.324C166.533 118.324 147.242 112.182 138.619 115.136C138.619 115.136 133.626 92.6137 137.937 83.5229C142.249 74.4321 136.122 65.777 136.122 65.777L140.312 59.7439Z" fill="black"/>
<path opacity="0.1" d="M140.085 59.061C140.085 59.061 141.333 60.5407 149.729 59.6295C158.124 58.7183 160.17 60.3123 162.449 61.4493C164.729 62.5863 186.722 68.4972 190.581 80.3322C190.581 80.3322 181.957 88.0655 182.864 90.1137C182.864 90.1137 181.729 86.2458 179.005 86.7027C176.281 87.1596 165.616 76.4669 165.616 76.4669C165.616 76.4669 167.66 96.4869 164.935 103.54C162.211 110.593 166.297 117.644 166.297 117.644C166.297 117.644 147.007 111.502 138.383 114.456C138.383 114.456 133.39 91.9335 137.702 82.8427C142.014 73.7519 135.887 65.0968 135.887 65.0968L140.085 59.061Z" fill="black"/>
<path d="M140.313 59.061C140.313 59.061 141.561 60.5407 149.957 59.6295C158.353 58.7183 160.396 60.3123 162.678 61.4493C164.959 62.5863 186.951 68.4972 190.807 80.3322C190.807 80.3322 182.183 88.0655 183.092 90.1137C183.092 90.1137 181.958 86.2458 179.233 86.7027C176.509 87.1596 165.842 76.4669 165.842 76.4669C165.842 76.4669 167.885 96.4869 165.164 103.54C162.442 110.593 166.523 117.644 166.523 117.644C166.523 117.644 147.232 111.502 138.609 114.456C138.609 114.456 133.616 91.9335 137.928 82.8427C142.24 73.7519 136.112 65.0968 136.112 65.0968L140.313 59.061Z" fill="#0098C9"/>
<path opacity="0.1" d="M127.602 63.1548C127.602 63.1548 124.311 68.0482 119.774 69.6395C115.237 71.2308 113.413 81.0149 113.413 81.0149L106.602 90.3422L98.4398 86.2457C98.4398 86.2457 98.2119 97.4034 95.9434 97.1669C95.9434 97.1669 101.617 104.446 106.154 104.674C110.692 104.903 123.404 93.9817 123.404 93.9817C123.404 93.9817 124.767 103.992 123.858 108.768C122.949 113.545 129.532 128.105 129.532 128.105L138.609 126.286C138.609 126.286 133.838 108.085 127.942 105.129C127.942 105.129 127.942 92.8447 128.851 89.8852C129.76 86.9258 122.949 75.7815 123.858 73.5075C124.366 72.2296 126.367 69.5013 127.374 67.0228C127.842 65.7869 127.922 64.4372 127.602 63.1548V63.1548Z" fill="black"/>
<path opacity="0.1" d="M126.922 62.7004C126.922 62.7004 123.63 67.5912 119.093 69.1851C114.556 70.7791 112.733 80.5579 112.733 80.5579L105.924 89.8852L97.7592 85.7914C97.7592 85.7914 97.5312 96.949 95.2627 96.7126C95.2627 96.7126 100.937 103.992 105.476 104.22C110.016 104.449 122.724 93.5274 122.724 93.5274C122.724 93.5274 124.086 103.537 123.177 108.314C122.268 113.09 128.864 127.651 128.864 127.651L137.941 125.831C137.941 125.831 133.171 107.631 127.277 104.674C127.277 104.674 127.277 92.3877 128.183 89.4309C129.09 86.4741 122.284 75.3272 123.19 73.0505C123.699 71.7753 125.7 69.047 126.707 66.5684C127.17 65.3312 127.245 63.9816 126.922 62.7004V62.7004Z" fill="black"/>
<path d="M127.375 62.7004C127.375 62.7004 124.094 67.5912 119.546 69.1851C114.999 70.7791 113.186 80.5579 113.186 80.5579L106.377 89.8852L98.2123 85.7914C98.2123 85.7914 97.987 96.949 95.7158 96.7126C95.7158 96.7126 101.39 103.992 105.93 104.22C110.469 104.449 123.177 93.5274 123.177 93.5274C123.177 93.5274 124.539 103.537 123.63 108.314C122.721 113.09 129.304 127.651 129.304 127.651L138.384 125.831C138.384 125.831 133.613 107.631 127.717 104.674C127.717 104.674 127.717 92.3877 128.623 89.4309C129.529 86.4741 122.724 75.3272 123.63 73.0505C124.142 71.7753 126.143 69.047 127.15 66.5684C127.615 65.3321 127.694 63.9827 127.375 62.7004V62.7004Z" fill="#0098C9"/>
<path opacity="0.05" d="M126.99 63.0857C126.99 63.0857 123.701 67.9658 119.161 69.5598C114.622 71.1537 112.801 80.9326 112.801 80.9326L105.998 90.2811L97.8275 86.1873C97.8275 86.1873 97.6023 97.3449 95.3311 97.1058C95.3311 97.1058 101.005 104.388 105.545 104.613C110.085 104.839 122.792 93.9232 122.792 93.9232C122.792 93.9232 124.154 103.933 123.245 108.71C122.336 113.486 128.919 128.047 128.919 128.047L137.999 126.227C137.999 126.227 133.229 108.027 127.332 105.07C127.332 105.07 127.332 92.7836 128.238 89.8268C129.145 86.87 122.339 75.723 123.245 73.4463C123.757 72.1712 125.758 69.4402 126.765 66.9643C127.233 65.7247 127.312 64.3713 126.99 63.0857V63.0857Z" fill="black"/>
<path d="M206.013 148.58C206.013 148.58 212.593 145.392 213.73 146.76C214.867 148.128 221.217 174.287 218.267 176.107C215.317 177.927 215.087 176.561 212.593 172.468C210.099 168.374 206.694 162.904 204.197 163.14C204.197 163.14 211.459 160.638 211.233 159.727C211.008 158.815 207.6 148.354 206.013 148.58Z" fill="#272727"/>
<path opacity="0.1" d="M140.241 57.7751C138.443 59.1409 136.279 59.9385 134.026 60.0657C131.774 60.193 129.534 59.6443 127.594 58.4897C127.486 57.7145 127.299 56.9525 127.035 56.2157L140.652 52.3503C140.09 53.9655 140.05 55.8411 140.241 57.7751Z" fill="black"/>
<path d="M131.819 48.8702C129.052 49.112 125.683 48.5887 124.663 46.6998C124.369 46.1685 124.305 45.5602 124.006 45.0182C123.139 43.4535 120.656 42.8133 118.663 41.9552C116.516 41.0307 114.725 39.6732 113.543 38.0739C114.328 37.8759 115.152 37.8924 115.928 38.1217C116.026 37.0591 114.812 35.8716 115.756 35.0693C116.339 34.5726 117.425 34.6177 118.258 34.8648C119.09 35.1118 119.848 35.5156 120.733 35.6246C122.273 35.8132 123.725 35.0667 124.825 34.2591C125.925 33.4515 126.945 32.5058 128.421 32.1338C131.336 31.3741 134.225 33.1141 137.151 33.8473C143.148 35.3536 146.055 36.9847 144.425 42.2129C143.198 46.0649 136.851 48.4346 131.819 48.8702Z" fill="#272727"/>
<path d="M133.388 59.6296C139.655 59.6296 144.736 54.5366 144.736 48.2541C144.736 41.9716 139.655 36.8787 133.388 36.8787C127.121 36.8787 122.04 41.9716 122.04 48.2541C122.04 54.5366 127.121 59.6296 133.388 59.6296Z" fill="#F7C4A7"/>
<path opacity="0.1" d="M142.211 46.5194C141.662 44.2879 140.077 42.2025 137.867 41.5835C135.988 41.0522 133.99 41.6287 132.156 42.2955C130.322 42.9623 128.446 43.7406 126.501 43.6237C124.555 43.5069 122.509 42.1626 122.361 40.2127C122.325 39.9113 122.374 39.6059 122.502 39.3307C122.702 39.0128 122.983 38.7535 123.315 38.5789C126.169 36.7538 129.411 35.3166 132.8 35.3724C135.585 35.4176 138.246 36.4643 140.835 37.4977C144.103 38.7994 147.816 40.6192 148.489 44.0754C148.887 46.1183 148.062 48.1931 147.069 50.0181C146.494 51.0807 143.703 56.6064 141.856 55.6952C141.111 55.3286 142.563 47.954 142.211 46.5194Z" fill="black"/>
<path d="M141.758 46.0651C141.209 43.831 139.622 41.7482 137.411 41.1292C135.532 40.5979 133.534 41.1744 131.7 41.8412C129.866 42.508 127.99 43.2864 126.045 43.1695C124.1 43.0526 122.054 41.7057 121.905 39.7558C121.871 39.4542 121.92 39.1489 122.048 38.8738C122.25 38.5578 122.529 38.299 122.859 38.122C125.716 36.2996 128.955 34.8624 132.347 34.9155C135.132 34.9633 137.793 36.01 140.382 37.0408C143.647 38.3425 147.363 40.1622 148.036 43.6184C148.433 45.6587 147.607 47.7335 146.613 49.5585C146.04 50.6212 143.25 56.1495 141.402 55.2383C140.658 54.8744 142.115 47.5103 141.758 46.0651Z" fill="#272727"/>
<path opacity="0.5" d="M217.587 176.336C220.539 174.516 214.184 148.354 213.05 146.988C212.552 146.391 211.007 146.667 209.43 147.164C211.221 146.537 213.161 146.077 213.731 146.76C214.865 148.126 221.218 174.287 218.268 176.107C217.766 176.45 217.21 176.704 216.622 176.859C216.955 176.706 217.277 176.532 217.587 176.336V176.336Z" fill="white"/>
<path opacity="0.5" d="M62.6601 192.293C62.3554 193.077 62.4481 193.986 63.7202 194.767C66.6699 196.586 90.5002 202.274 90.5002 202.274C90.7364 201.918 90.9532 201.549 91.1495 201.169C90.8956 201.711 90.6024 202.233 90.2723 202.731C90.2723 202.731 66.4393 197.038 63.4896 195.216C61.9658 194.278 62.1381 193.154 62.6601 192.293Z" fill="white"/>
<g opacity="0.05">
<path opacity="0.05" d="M181.868 87.8342C183.755 84.7924 188.982 80.1036 188.982 80.1036C185.123 68.2738 163.11 62.3603 160.842 61.2206C159.588 60.5937 158.404 59.8286 156.186 59.4221C159.649 59.6878 161.099 60.6707 162.657 61.4491C164.926 62.5861 186.941 68.5023 190.797 80.332C190.797 80.332 182.51 87.7704 183.04 89.986C182.776 89.2064 182.38 88.4784 181.868 87.8342V87.8342Z" fill="black"/>
<path opacity="0.05" d="M183.05 89.9863L183.092 90.1146C183.074 90.0734 183.06 90.0305 183.05 89.9863V89.9863Z" fill="black"/>
<path opacity="0.05" d="M140.051 59.4356L140.316 59.061C140.316 59.061 140.605 59.4011 141.824 59.6535C141.229 59.6195 140.636 59.5467 140.051 59.4356Z" fill="black"/>
<path opacity="0.05" d="M178.987 86.7132C178.644 86.6822 178.309 86.5923 177.996 86.4475C178.341 86.4656 178.679 86.5561 178.987 86.7132V86.7132Z" fill="black"/>
<path opacity="0.05" d="M149.459 113.943C145.399 113.494 141.434 113.489 138.609 114.456C138.609 114.456 138.556 114.22 138.469 113.789C141.564 113.186 145.542 113.393 149.459 113.943Z" fill="black"/>
<path opacity="0.05" d="M164.513 117.044C163.718 115.511 160.991 109.411 163.347 103.309C166.071 96.2559 164.028 76.236 164.028 76.236C164.028 76.236 164.807 77.017 165.997 78.146C166.415 83.1085 167.407 97.7197 165.173 103.538C162.44 110.588 166.524 117.644 166.524 117.644C166.524 117.644 165.777 117.402 164.513 117.044Z" fill="black"/>
</g>
<defs>
<linearGradient id="paint0_linear" x1="184.202" y1="90.0904" x2="184.202" y2="89.9568" gradientUnits="userSpaceOnUse">
<stop stop-color="#808080" stop-opacity="0.25"/>
<stop offset="0.54" stop-color="#808080" stop-opacity="0.12"/>
<stop offset="1" stop-color="#808080" stop-opacity="0.1"/>
</linearGradient>
<linearGradient id="paint1_linear" x1="352873" y1="146551" x2="352873" y2="30848.8" gradientUnits="userSpaceOnUse">
<stop stop-color="#808080" stop-opacity="0.25"/>
<stop offset="0.54" stop-color="#808080" stop-opacity="0.12"/>
<stop offset="1" stop-color="#808080" stop-opacity="0.1"/>
</linearGradient>
</defs>
</svg>
