<svg width="291" height="229" viewBox="0 0 291 229" fill="none" xmlns="http://www.w3.org/2000/svg">
<path d="M181.224 30.7157V200.777C181.222 202.802 180.417 204.745 178.986 206.177C177.555 207.608 175.615 208.413 173.592 208.414H104.642C103.64 208.416 102.647 208.219 101.721 207.836C100.794 207.453 99.9522 206.891 99.2432 206.181C98.5342 205.472 97.9719 204.629 97.5887 203.702C97.2054 202.774 97.0087 201.78 97.0098 200.777V30.7157C97.0097 29.7121 97.207 28.7183 97.5906 27.791C97.9741 26.8637 98.5363 26.0212 99.2451 25.3115C99.9538 24.6018 100.795 24.0389 101.721 23.6548C102.647 23.2708 103.64 23.0732 104.642 23.0732H114.96V24.3982C114.96 26.067 115.622 27.6677 116.8 28.848C117.979 30.0283 119.577 30.6916 121.244 30.6921H156.312C157.653 30.695 158.96 30.2644 160.037 29.4643C160.255 29.3056 160.462 29.1321 160.656 28.9448C161.27 28.3579 161.758 27.6523 162.091 26.8708C162.425 26.0892 162.596 25.248 162.595 24.3982V23.0732H173.592C174.594 23.0729 175.587 23.2704 176.513 23.6544C177.439 24.0383 178.28 24.6013 178.989 25.311C179.698 26.0207 180.26 26.8634 180.644 27.7907C181.027 28.7181 181.224 29.712 181.224 30.7157Z" fill="#364954"/>
<path opacity="0.1" d="M283.425 59.8654C280.564 53.217 276.698 47.0492 271.962 41.5785L112.92 40.0098L243.865 21.5961C235.406 18.2233 226.4 16.4343 217.296 16.3182C204.77 6.29382 189.346 0.585634 173.319 0.0426676C157.292 -0.500299 141.518 4.15097 128.344 13.3046C117.816 7.88573 106.144 5.06967 94.3059 5.09195C58.9682 5.09195 29.5211 29.5947 22.916 62.0904L283.425 59.8654Z" fill="#0098C9"/>
<path opacity="0.1" d="M289.017 87.117C289.024 78.3053 287.342 69.574 284.06 61.3976L8.4195 90.3643C5.57709 95.5115 3.40282 101.001 1.94945 106.7L87.3062 119.441L0 128.735C2.6274 165.52 34.1253 194.569 72.6023 194.569C91.9703 194.569 109.572 187.207 122.61 175.203C135.694 187.435 153.461 194.954 173.037 194.954C202.085 194.954 227.155 178.397 238.829 154.455C262.253 147.014 280.448 128.324 286.676 104.945L178.745 88.1704H289.017C289.011 87.8183 289.017 87.4691 289.017 87.117Z" fill="#0098C9"/>
<path d="M96.9139 144.001C96.1869 144.001 95.4526 143.989 94.7318 143.966L94.7482 143.442C95.7832 143.475 96.8394 143.484 97.8793 143.469L97.8865 143.994C97.5628 143.998 97.2386 144 96.9139 144.001ZM101.039 143.879L101.009 143.355C102.045 143.294 103.095 143.208 104.129 143.099L104.184 143.621C103.142 143.731 102.084 143.817 101.039 143.879ZM91.5817 143.797C90.5365 143.717 89.4802 143.612 88.4421 143.484L88.5061 142.964C89.5363 143.09 90.5843 143.195 91.6216 143.274L91.5817 143.797ZM107.313 143.22L107.234 142.702C108.264 142.545 109.302 142.363 110.318 142.161L110.42 142.676C109.396 142.879 108.351 143.063 107.313 143.22ZM85.3206 143.028C84.288 142.853 83.2457 142.652 82.2227 142.429L82.3339 141.916C83.3491 142.137 84.3833 142.337 85.4081 142.511L85.3206 143.028ZM113.5 141.989L113.374 141.479C114.385 141.229 115.402 140.952 116.396 140.657L116.545 141.16C115.543 141.458 114.519 141.737 113.5 141.989ZM79.1559 141.688C78.1431 141.418 77.1238 141.122 76.1264 140.806L76.2843 140.306C77.2741 140.619 78.2856 140.913 79.2905 141.181L79.1559 141.688ZM119.548 140.192L119.376 139.697C120.357 139.355 121.343 138.986 122.309 138.599L122.503 139.086C121.531 139.476 120.536 139.848 119.548 140.192ZM73.1329 139.781C72.1492 139.419 71.1594 139.029 70.1911 138.62L70.3946 138.136C71.3554 138.542 72.3375 138.929 73.3138 139.289L73.1329 139.781ZM125.398 137.848L125.181 137.371C126.123 136.942 127.07 136.484 127.996 136.011L128.234 136.478C127.302 136.955 126.348 137.416 125.398 137.848ZM131.005 134.978L130.746 134.523C131.649 134.007 132.551 133.464 133.426 132.91L133.706 133.353C132.824 133.912 131.916 134.459 131.005 134.978ZM136.33 131.605L136.03 131.175C136.881 130.58 137.73 129.957 138.554 129.323L138.873 129.739C138.043 130.378 137.187 131.006 136.33 131.605ZM56.4611 130.866C55.6153 130.251 54.7704 129.607 53.9496 128.951L54.2766 128.541C55.0911 129.192 55.9296 129.831 56.7689 130.441L56.4611 130.866ZM141.329 127.758L140.991 127.357C141.784 126.687 142.573 125.989 143.337 125.282L143.692 125.667C142.923 126.38 142.128 127.083 141.329 127.758ZM51.5286 126.923C50.7409 126.232 49.9583 125.514 49.2027 124.787L49.5655 124.408C50.3155 125.129 51.0921 125.842 51.8738 126.528L51.5286 126.923ZM145.959 123.47L145.586 123.101C146.317 122.36 147.04 121.592 147.735 120.82L148.124 121.171C147.424 121.949 146.696 122.722 145.959 123.47ZM46.9768 122.548C46.2541 121.787 45.5403 121.001 44.8554 120.211L45.2512 119.867C45.9309 120.651 46.6392 121.432 47.3565 122.187L46.9768 122.548ZM150.183 118.776L149.778 118.443C150.438 117.638 151.089 116.808 151.711 115.974L152.131 116.288C151.504 117.128 150.848 117.965 150.183 118.776ZM42.8428 117.78C42.1938 116.958 41.5547 116.111 40.9433 115.26L41.3686 114.953C41.9754 115.798 42.6095 116.639 43.2537 117.454L42.8428 117.78ZM153.963 113.714L153.53 113.419C154.114 112.558 154.687 111.671 155.231 110.783L155.678 111.058C155.129 111.952 154.552 112.846 153.963 113.714ZM39.1612 112.657C38.5902 111.78 38.0314 110.878 37.5 109.975L37.9514 109.709C38.4788 110.605 39.0334 111.5 39.6 112.37L39.1612 112.657ZM157.269 108.325L156.81 108.071C157.313 107.16 157.802 106.223 158.263 105.289L158.733 105.521C158.268 106.463 157.776 107.406 157.269 108.325ZM160.067 102.652L159.587 102.442C160.005 101.487 160.406 100.509 160.779 99.5354L161.268 99.7235C160.892 100.705 160.488 101.69 160.067 102.652ZM33.2775 101.52C32.8757 100.555 32.491 99.5672 32.1341 98.5844L32.6267 98.405C32.9808 99.3804 33.3625 100.36 33.7611 101.318L33.2775 101.52ZM162.333 96.7412L161.836 96.5762C162.163 95.5895 162.471 94.5811 162.753 93.5785L163.257 93.7205C162.974 94.7307 162.663 95.7471 162.333 96.7412ZM31.1247 95.5913C30.8129 94.5913 30.5199 93.5698 30.2539 92.5547L30.7608 92.4215C31.0248 93.4289 31.3156 94.4427 31.6249 95.435L31.1247 95.5913ZM164.041 90.6603L163.531 90.5414C163.765 89.5302 163.98 88.4974 164.168 87.4723L164.684 87.5671C164.494 88.6004 164.278 89.6408 164.041 90.6603ZM29.5242 89.4812C29.3057 88.4564 29.1079 87.4123 28.9364 86.3775L29.4533 86.2914C29.6236 87.3185 29.8198 88.3547 30.0367 89.3716L29.5242 89.4812ZM165.183 84.4482L164.664 84.377C164.805 83.3494 164.924 82.3015 165.018 81.2623L165.54 81.3094C165.445 82.3568 165.325 83.4126 165.183 84.4482ZM28.4915 83.2502C28.3679 82.2115 28.2664 81.1536 28.1898 80.106L28.7126 80.0676C28.7884 81.1075 28.8892 82.1572 29.0119 83.1882L28.4915 83.2502ZM165.753 78.1581L165.229 78.1345C165.276 77.0948 165.3 76.0402 165.3 75.0003H165.824C165.824 76.0482 165.8 77.1107 165.753 78.1581ZM28.031 76.9508C28.0131 76.3075 28.004 75.651 28.0039 75.0003C28.0039 74.5965 28.0074 74.1935 28.0143 73.7912L28.5383 73.8004C28.5314 74.1996 28.5279 74.5996 28.5279 75.0003C28.5281 75.6462 28.5371 76.2977 28.5548 76.9364L28.031 76.9508ZM28.6627 70.6679L28.1396 70.6351C28.205 69.5867 28.2953 68.5278 28.4078 67.4877L28.9288 67.5442C28.8171 68.5765 28.7276 69.6273 28.6627 70.6679ZM164.961 67.4667C164.857 66.4323 164.713 65.9279 164.561 64.8979L165.079 64.8213C165.232 65.8591 165.364 66.6513 165.469 67.6936L164.961 67.4667ZM29.3367 64.4361L28.8189 64.3559C28.9794 63.3179 29.166 62.2717 29.3733 61.2459L29.8869 61.3499C29.6812 62.3679 29.496 63.4062 29.3367 64.4361ZM164.032 61.8084C163.832 60.7849 163.607 59.7545 163.362 58.7461L163.871 58.6221C164.118 59.6382 164.345 60.6765 164.546 61.7077L164.032 61.8084ZM30.578 58.2925L30.0697 58.1649C30.3242 57.1486 30.606 56.1239 30.9074 55.1191L31.4092 55.27C31.1102 56.2671 30.8305 57.284 30.578 58.2925ZM162.551 55.7178C162.259 54.7187 161.939 53.7137 161.602 52.7304L162.097 52.5598C162.438 53.5507 162.76 54.5636 163.054 55.5702L162.551 55.7178ZM32.3819 52.2809L31.8876 52.1069C32.2358 51.115 32.6118 50.1184 33.0051 49.1446L33.491 49.3414C33.1007 50.3076 32.7275 51.2967 32.3819 52.2809ZM160.516 49.7899C160.134 48.8243 159.724 47.8551 159.299 46.9093L159.777 46.6939C160.206 47.647 160.618 48.6235 161.003 49.5965L160.516 49.7899ZM34.7339 46.4573L34.2577 46.2382C34.6954 45.2838 35.1612 44.3267 35.6423 43.3936L36.1079 43.6342C35.6305 44.5603 35.1682 45.5101 34.7339 46.4573ZM157.951 44.0867C157.482 43.1604 156.985 42.2321 156.474 41.3281L156.93 41.0696C157.446 41.9806 157.946 42.9159 158.419 43.8494L157.951 44.0867ZM37.6101 40.8782L37.1559 40.6163C37.6786 39.7074 38.2299 38.7976 38.7945 37.9124L39.2361 38.1948C38.6759 39.0733 38.1287 39.9762 37.6101 40.8782ZM154.873 38.6389C154.319 37.7563 153.739 36.8769 153.149 36.0253L153.58 35.7263C154.174 36.5845 154.759 37.4705 155.316 38.3599L154.873 38.6389ZM40.983 35.5894L40.5547 35.287C41.1588 34.4291 41.7904 33.574 42.4324 32.7454L42.8464 33.067C42.2094 33.8894 41.5824 34.738 40.983 35.5894ZM151.308 33.4925C150.677 32.6643 150.019 31.841 149.353 31.0455L149.755 30.7084C150.426 31.5101 151.088 32.3396 151.725 33.1741L151.308 33.4925ZM44.8224 30.6331L44.4235 30.2929C45.1014 29.4956 45.808 28.7019 46.5236 27.9341L46.9066 28.292C46.1965 29.0541 45.4953 29.8418 44.8224 30.6331ZM147.289 28.6895C146.585 27.9223 145.854 27.1619 145.119 26.4296L145.488 26.0574C146.23 26.7954 146.965 27.5614 147.674 28.3344L147.289 28.6895ZM49.0945 26.0491L48.728 25.6741C49.4774 24.94 50.2528 24.2143 51.0326 23.5172L51.3816 23.9086C50.6077 24.6004 49.8382 25.3206 49.0945 26.0491ZM142.848 24.2704C142.077 23.5698 141.28 22.8788 140.481 22.2166L140.815 21.8123C141.62 22.4795 142.423 23.1758 143.2 23.8817L142.848 24.2704ZM53.7631 21.8746L53.4323 21.4677C54.2428 20.8069 55.0804 20.155 55.922 19.5304L56.2341 19.9519C55.3988 20.5719 54.5675 21.2187 53.7631 21.8746ZM58.7891 18.1446L58.4967 17.7093C59.3641 17.1249 60.2571 16.5526 61.151 16.008L61.4232 16.4564C60.5363 16.9968 59.65 17.5648 58.7891 18.1446ZM64.131 14.891L63.8795 14.4306C64.7972 13.9277 65.7382 13.4399 66.6762 12.9804L66.9065 13.4518C65.9756 13.9078 65.0418 14.3919 64.131 14.891ZM127.374 13.6753C126.441 13.2101 125.486 12.7607 124.535 12.3396L124.747 11.8598C125.705 12.284 126.668 12.7369 127.608 13.2056L127.374 13.6753ZM69.7439 12.142L69.5356 11.6605C70.4946 11.2443 71.4756 10.8452 72.4513 10.474L72.6373 10.9647C71.6691 11.3329 70.6956 11.729 69.7439 12.142ZM121.636 11.136C120.666 10.7592 119.673 10.3997 118.685 10.0677L118.851 9.57013C119.847 9.90487 120.848 10.267 121.826 10.6468L121.636 11.136ZM75.5891 9.91948L75.4258 9.4209C76.4217 9.09397 77.4378 8.78613 78.4457 8.50623L78.5858 9.01173C77.5855 9.28959 76.5773 9.59499 75.5891 9.91948ZM115.694 9.13932C114.695 8.85403 113.675 8.58834 112.664 8.34968L112.784 7.83906C113.803 8.07951 114.83 8.34725 115.838 8.63459L115.694 9.13932ZM81.6212 8.24323L81.5045 7.73171C82.5254 7.49817 83.5654 7.28539 84.5955 7.09938L84.6886 7.61564C83.6663 7.80037 82.6343 8.01149 81.6212 8.24323ZM109.601 7.70096C108.581 7.50919 107.541 7.33855 106.512 7.19379L106.584 6.6742C107.622 6.82011 108.67 6.99203 109.698 7.18521L109.601 7.70096ZM87.7817 7.13L87.7124 6.6099C88.7497 6.47129 89.8047 6.35471 90.8479 6.26376L90.8934 6.78642C89.8582 6.87686 88.8114 6.99241 87.7817 7.13ZM103.402 6.82896C102.37 6.7316 101.319 6.65653 100.279 6.60618L100.305 6.08199C101.353 6.13285 102.411 6.20843 103.451 6.30657L103.402 6.82896ZM94.0182 6.58517L93.9961 6.06098C94.9592 6.02076 95.9408 6.00026 96.9139 6L97.1511 6.00039L97.1495 6.5251L96.9139 6.52472C95.9482 6.52496 94.9738 6.54533 94.0182 6.58517Z" fill="#272727"/>
<path d="M171.143 84.3787H107.09V133.177H171.143V84.3787Z" fill="#0098C9"/>
<path d="M73.3599 76.1565C79.0629 76.279 83.5995 80.4172 83.5995 80.4172C83.5995 80.4172 78.8898 84.3569 73.1869 84.2344C67.4839 84.1119 62.9473 79.9736 62.9473 79.9736C62.9473 79.9736 67.657 76.034 73.3599 76.1565Z" fill="#0098C9"/>
<path d="M44.6887 56.6637C49.8411 59.1147 55.7493 57.4527 55.7493 57.4527C55.7493 57.4527 53.3037 51.8167 48.1514 49.3657C42.999 46.9147 37.0908 48.5768 37.0908 48.5768C37.0908 48.5768 39.5363 54.2127 44.6887 56.6637Z" fill="#0098C9"/>
<path d="M45.2124 54.2281C50.893 53.7082 55.8653 57.3099 55.8653 57.3099C55.8653 57.3099 51.6274 61.7544 45.9468 62.2742C40.2662 62.7941 35.2939 59.1924 35.2939 59.1924C35.2939 59.1924 39.5318 54.7479 45.2124 54.2281Z" fill="#364954"/>
<path d="M66.0359 55.2129C65.4914 60.8986 69.0662 65.8934 69.0662 65.8934C69.0662 65.8934 73.5237 61.6698 74.0682 55.9842C74.6127 50.2985 71.0379 45.3037 71.0379 45.3037C71.0379 45.3037 66.5804 49.5273 66.0359 55.2129Z" fill="#364954"/>
<path d="M92.7888 90.0829C89.8093 94.9536 90.8344 101.012 90.8344 101.012C90.8344 101.012 96.6902 99.1738 99.6697 94.3032C102.649 89.4325 101.624 83.3739 101.624 83.3739C101.624 83.3739 95.7683 85.2122 92.7888 90.0829Z" fill="#3F3D56"/>
<path d="M84.145 143.04L84.5792 142.746C83.0487 140.522 82.213 137.892 82.1784 135.192C82.1905 131.241 84.1284 127.587 86.0025 124.054C86.3504 123.398 86.6971 122.744 87.0307 122.091C88.4307 119.426 89.5464 116.622 90.3593 113.723C93.2663 102.906 90.4042 90.1443 82.7034 79.5848C76.5944 71.208 67.4877 63.883 54.8633 57.191L54.6182 57.6548C67.1707 64.3085 76.2191 71.5832 82.2802 79.8943C89.8884 90.3266 92.7194 102.922 89.8532 113.587C89.0498 116.45 87.9473 119.22 86.5642 121.852C86.2317 122.503 85.8863 123.154 85.5397 123.808C83.6357 127.398 81.6669 131.11 81.6543 135.19C81.689 137.996 82.5559 140.728 84.145 143.04V143.04Z" fill="#3F3D56"/>
<path d="M29.9783 57.8805C32.7277 57.8805 34.9566 55.6487 34.9566 52.8957C34.9566 50.1427 32.7277 47.9109 29.9783 47.9109C27.2289 47.9109 25 50.1427 25 52.8957C25 55.6487 27.2289 57.8805 29.9783 57.8805Z" fill="#364954"/>
<path d="M100.058 133.811L68.8076 131.203V85.3094L100.058 83.745V133.811Z" fill="#0098C9"/>
<path d="M178.177 133.811L209.427 131.203V85.3094L178.177 83.745V133.811Z" fill="#0098C9"/>
<path d="M149.979 102.695C149.049 101.891 147.903 101.379 146.685 101.224C145.466 101.069 144.229 101.277 143.127 101.823C142.171 102.286 141.142 102.58 140.086 102.694C140.06 100.403 140.48 98.1293 141.322 95.9995L141.461 95.6423H139.624L139.571 95.8354C139.367 96.5885 139.205 97.3528 139.088 98.1244C138.989 97.79 138.86 97.4649 138.704 97.153C137.416 94.5954 134.439 93.5493 134.313 93.5062L134.059 93.4191L133.978 93.6751C133.938 93.8025 133.009 96.821 134.297 99.3788C135.219 101.21 137.007 102.266 137.994 102.734C136.744 102.654 135.523 102.326 134.4 101.771C133.699 101.41 132.912 101.254 132.127 101.32C131.342 101.386 130.592 101.673 129.962 102.147C126.532 104.756 124.565 108.581 124.565 112.641C124.565 117.974 128.015 122.858 133.353 125.084C133.835 125.284 134.351 125.386 134.872 125.386C135.596 125.386 136.307 125.191 136.929 124.821C137.757 124.339 138.697 124.084 139.654 124.082C140.611 124.08 141.552 124.331 142.382 124.81C142.918 125.126 143.52 125.314 144.141 125.358C144.763 125.402 145.385 125.3 145.961 125.062C151.268 122.828 154.697 117.952 154.697 112.641C154.697 108.839 153.021 105.307 149.979 102.695ZM140.025 96.167H140.699C139.941 98.2012 139.554 100.356 139.558 102.527H139.438C139.275 100.389 139.474 98.2389 140.025 96.167V96.167ZM134.765 99.1425C133.787 97.2008 134.216 94.8865 134.405 94.1056C135.145 94.4164 137.256 95.444 138.236 97.3893C139.214 99.3307 138.785 101.645 138.596 102.426C137.856 102.114 135.742 101.084 134.765 99.1425V99.1425ZM145.758 124.578C145.257 124.785 144.716 124.873 144.176 124.835C143.637 124.796 143.113 124.633 142.647 124.357C141.737 123.831 140.704 123.555 139.653 123.557C138.602 123.56 137.57 123.84 136.662 124.37C136.197 124.647 135.674 124.811 135.135 124.851C134.596 124.891 134.055 124.805 133.554 124.599C128.412 122.456 125.089 117.762 125.089 112.641C125.089 108.746 126.981 105.074 130.279 102.564C130.911 102.086 131.683 101.828 132.476 101.83C133.062 101.83 133.639 101.969 134.159 102.238C135.595 102.924 137.164 103.284 138.754 103.294C140.344 103.303 141.917 102.961 143.361 102.292C144.369 101.793 145.503 101.602 146.62 101.744C147.736 101.887 148.786 102.356 149.638 103.093C152.562 105.604 154.173 108.995 154.173 112.641C154.173 117.741 150.87 122.426 145.758 124.578V124.578Z" fill="white"/>
<path d="M84.3468 97.7363V97.1203H84.5912V95.2015C84.5922 95.0592 84.554 94.9194 84.481 94.7974C84.408 94.6754 84.3028 94.5758 84.1771 94.5096C83.0957 93.9446 81.9335 93.9453 80.7228 94.5122C80.5892 94.5758 80.4763 94.676 80.3973 94.8013C80.3184 94.9266 80.2766 95.0718 80.2768 95.2199V97.1203H80.5213V97.678C79.6214 97.9305 78.8291 98.4717 78.2659 99.2184C77.7027 99.9652 77.3997 100.876 77.4034 101.812V105.964L77.869 106.12L77.4034 106.431V107.678L77.869 107.834L77.4034 108.145V109.393L77.869 109.548L77.4034 109.859V119.362C77.4042 120.103 77.6986 120.814 78.2221 121.338C78.7456 121.862 79.4553 122.157 80.1956 122.158H84.312C85.0506 122.157 85.7587 121.863 86.281 121.34C86.8033 120.817 87.0971 120.108 87.0979 119.369V109.859L86.6322 109.548L87.0979 109.393V108.145L86.6322 107.834L87.0979 107.678V106.431L86.6322 106.12L87.0979 105.964V101.598C87.0948 100.748 86.8285 99.9205 86.3357 99.2288C85.843 98.5372 85.148 98.0157 84.3468 97.7363V97.7363ZM80.9447 94.9875C82.0148 94.487 82.9931 94.4828 83.9345 94.9749C83.975 94.9971 84.0088 95.0299 84.0321 95.0698C84.0555 95.1097 84.0676 95.1552 84.0672 95.2015V96.2284H80.8009V95.2199C80.8004 95.1715 80.8137 95.124 80.8391 95.0829C80.8646 95.0417 80.9012 95.0087 80.9447 94.9875V94.9875ZM86.5739 105.586L85.4501 105.961L86.5739 106.711V107.3L85.4501 107.675L86.5739 108.426V109.014L85.4501 109.389L86.5739 110.14V119.369C86.5732 119.969 86.3347 120.545 85.9106 120.969C85.4866 121.394 84.9116 121.633 84.312 121.633H80.1956C79.5942 121.633 79.0177 121.393 78.5924 120.967C78.1672 120.542 77.9281 119.964 77.9274 119.362V110.14L79.0512 109.389L77.9274 109.014V108.426L79.0512 107.675L77.9274 107.3V106.711L79.0512 105.961L77.9274 105.586V101.812C77.9241 100.959 78.2109 100.13 78.7408 99.4624C79.2706 98.7943 80.0119 98.3269 80.8424 98.137L81.0453 98.09V97.1203H83.8227V98.1252L84.0117 98.1802C84.7493 98.3977 85.3971 98.8478 85.8587 99.4635C86.3204 100.079 86.5712 100.828 86.5739 101.598V105.586Z" fill="white"/>
<path d="M207.51 104.922L206.191 104.658L206.501 104.036L205.896 103.914L206.001 103.284L205.34 103.174V102.576L204.804 102.423L205.313 101.786H204.43L204.614 101.325L203.961 101.216L204.183 100.438H203.477V99.7129H203.214C202.389 99.7129 201.929 100.695 201.778 101.088C197.22 101.884 183.989 111.061 182.479 112.116C181.851 111.912 180.921 112.39 180.727 112.496L180.419 112.664L180.863 113.108L180.73 113.505L181.545 113.811L181.366 114.257L181.879 114.685L181.418 115.031L182.112 115.448L181.99 116.057L182.764 116.168V116.777L183.214 116.867L182.989 117.654H183.489V118.276H183.976L184.197 118.938L184.423 118.893C184.95 118.787 185.402 118.057 185.578 117.733C189.967 116.949 203.517 107.403 204.836 106.468C206.376 106.653 206.941 106.241 207.002 106.193L207.252 105.992L206.654 105.493L207.51 104.922ZM204.802 105.935L204.7 105.921L204.616 105.981C204.466 106.088 189.606 116.629 185.37 117.235L185.234 117.255L185.173 117.378C185.01 117.709 184.791 118.009 184.525 118.265L184.354 117.751H184.013V117.129H183.684L183.874 116.464L183.288 116.347V115.712L182.613 115.616L182.698 115.188L182.356 114.983L182.723 114.707L181.994 114.098L182.23 113.508L181.387 113.191L181.462 112.966L181.3 112.803C181.693 112.64 182.169 112.518 182.374 112.64L182.52 112.728L182.659 112.63C182.808 112.526 197.567 102.189 202.008 101.583L202.173 101.56L202.223 101.4C202.299 101.152 202.57 100.525 202.952 100.311V100.963H203.489L203.296 101.637L203.886 101.735L203.656 102.311H204.222L203.903 102.711L204.816 102.972V103.618L205.398 103.716L205.296 104.329L205.726 104.415L205.415 105.037L206.167 105.188L205.78 105.446L206.336 105.91C205.831 106.013 205.311 106.022 204.802 105.935V105.935Z" fill="white"/>
<path d="M139.117 155.478C143.314 155.478 146.715 152.071 146.715 147.869C146.715 143.667 143.314 140.261 139.117 140.261C134.92 140.261 131.519 143.667 131.519 147.869C131.519 152.071 134.92 155.478 139.117 155.478Z" fill="#0098C9"/>
<path d="M143.901 147.118H139.868V143.079H138.367V147.118H134.333V148.621H138.367V152.66H139.868V148.621H143.901V147.118Z" fill="white"/>
<path d="M163.082 148.132L159.152 146.295V147.345H149.981V148.919H159.152V149.968L163.082 148.132Z" fill="white"/>
<path d="M115.152 148.132L119.083 146.295V147.345H128.253V148.919H119.083V149.968L115.152 148.132Z" fill="white"/>
<path d="M164.271 47.9108H113.964V48.4355H164.271V47.9108Z" fill="white"/>
<path d="M164.392 191.159H114.085V191.683H164.392V191.159Z" fill="white"/>
<path d="M226.857 228.96C262.124 228.96 290.713 224.268 290.713 218.48C290.713 212.692 262.124 208 226.857 208C191.59 208 163 212.692 163 218.48C163 224.268 191.59 228.96 226.857 228.96Z" fill="#364954"/>
<path d="M211.248 131.571L209.938 136.555C209.938 136.555 205.222 147.05 209.938 147.574C214.654 148.099 214.916 133.932 214.916 133.932L211.248 131.571Z" fill="#F7C4A7"/>
<path d="M219.371 95.6273L209.938 132.882C209.938 132.882 213.607 133.932 215.441 135.243L219.371 95.6273Z" fill="#272727"/>
<path d="M248.979 123.962L251.599 164.628C251.599 164.628 257.888 180.632 257.626 195.848C257.626 195.848 255.267 201.883 257.102 202.932C258.936 203.981 259.984 204.769 258.936 205.556C257.888 206.343 257.102 208.179 257.888 208.704C258.674 209.229 258.936 210.016 258.674 210.016H250.813C250.813 210.016 252.385 206.08 250.027 205.031C247.669 203.981 248.979 201.358 248.979 201.358L231.424 149.936L217.537 197.16C217.537 197.16 219.895 198.734 218.061 199.521C216.227 200.308 215.441 198.734 216.227 200.308C217.013 201.883 215.965 202.67 215.965 202.932C215.965 203.194 208.105 202.145 208.105 202.145C208.105 202.145 212.035 198.734 210.201 197.947C208.367 197.16 207.581 196.373 208.105 195.848C208.629 195.324 210.725 190.339 210.725 190.339C210.725 190.339 211.773 171.449 212.035 170.662C212.297 169.875 212.035 166.202 212.035 164.365C212.035 162.529 211.773 155.183 212.559 153.346C213.345 151.51 214.131 128.947 218.323 126.323C222.516 123.7 248.979 123.962 248.979 123.962Z" fill="#364954"/>
<path d="M215.703 201.62C215.703 201.62 220.943 212.377 217.275 213.689C213.607 215.001 208.891 213.951 207.843 215.525C206.795 217.099 195.266 218.936 195.004 215.001C194.742 211.065 207.581 203.719 207.581 203.719L209.253 201.023L215.703 201.62Z" fill="#272727"/>
<path d="M258.148 209.491C258.148 209.491 263.389 220.248 259.721 221.559C256.052 222.871 251.336 221.822 250.288 223.396C249.24 224.97 237.711 226.807 237.449 222.871C237.187 218.936 250.026 211.59 250.026 211.59L251.698 208.893L258.148 209.491Z" fill="#272727"/>
<path d="M233.913 74.5076C238.688 74.5076 242.56 70.6313 242.56 65.8497C242.56 61.0681 238.688 57.1919 233.913 57.1919C229.138 57.1919 225.267 61.0681 225.267 65.8497C225.267 70.6313 229.138 74.5076 233.913 74.5076Z" fill="#F7C4A7"/>
<path d="M239.808 70.4409L238.76 78.0493L230.9 84.0836L228.804 81.1976V71.228L239.808 70.4409Z" fill="#F7C4A7"/>
<path d="M227.493 80.1482C227.493 80.1482 235.616 80.9353 239.808 78.0493L248.192 127.635C248.192 127.635 218.584 129.996 217.274 128.422V112.943L222.515 87.7566L227.493 80.1482Z" fill="#0098C9"/>
<path d="M239.086 75.6786L241.904 78.0493C241.904 78.0493 253.432 79.8858 252.646 83.0341L249.502 120.289L250.55 132.882C250.55 132.882 241.642 130.521 234.829 132.882C228.017 135.243 233.429 82.1412 233.429 82.1412C233.429 82.1412 239.675 76.4562 239.086 75.6786Z" fill="#272727"/>
<path d="M228.803 78.5503C228.803 78.5503 220.418 84.6083 219.37 88.5437C218.322 92.479 214.916 133.932 214.916 133.932C214.916 133.932 216.488 133.145 217.274 134.456C218.06 135.768 230.113 80.6254 228.803 78.5503Z" fill="#272727"/>
<path d="M251.861 133.407L249.983 139.544C249.983 139.544 249.503 150.985 243.215 149.411C236.926 147.837 245.049 134.457 245.049 134.457L246.883 131.571L251.861 133.407Z" fill="#F7C4A7"/>
<path d="M225.27 65.4724C225.27 65.4724 224.334 64.0665 224.694 62.5525C224.909 61.6929 224.994 60.8058 224.946 59.9209C224.946 59.9209 225.702 57.4696 226.458 56.0998C227.214 54.7299 226.854 54.1531 229.23 53.7206C231.606 53.288 230.634 50.1878 236.898 53.5403C237.11 53.8358 237.404 54.062 237.743 54.1903C238.083 54.3186 238.453 54.3433 238.806 54.2613C240.102 54.009 240.57 55.8114 240.57 55.8114C240.57 55.8114 241.434 55.3067 241.758 56.0277C242.082 56.7486 244.393 55.595 244.393 60.4615C244.393 65.3281 241.764 69.6752 241.764 69.6752C241.764 69.6752 241.956 61.489 237.672 60.6599C233.388 59.8308 228.78 57.4155 227.664 60.5157C227.061 62.2557 226.258 63.9192 225.27 65.4724Z" fill="#272727"/>
<path d="M250.55 81.1976C250.55 81.1976 254.742 80.1482 256.053 87.2319C257.363 94.3156 258.935 114.517 258.935 114.517L252.646 135.768C252.646 135.768 246.358 132.358 245.048 132.882L249.996 114.433L245.834 95.6274C245.834 95.6274 249.502 81.1976 250.55 81.1976Z" fill="#272727"/>
<path opacity="0.15" d="M244.455 95.9862L249.957 114.351L244.455 132.979L247.599 114.351L244.455 95.9862Z" fill="black"/>
</svg>
