<svg width="290" height="229" viewBox="0 0 290 229" fill="none" xmlns="http://www.w3.org/2000/svg">
<path opacity="0.1" d="M283.425 59.8654C280.564 53.217 276.698 47.0492 271.962 41.5785L112.92 40.0098L243.865 21.5961C235.406 18.2233 226.4 16.4343 217.296 16.3182C204.77 6.29382 189.346 0.585634 173.319 0.0426676C157.292 -0.500299 141.518 4.15097 128.344 13.3046C117.816 7.88573 106.144 5.06967 94.3059 5.09195C58.9682 5.09195 29.5211 29.5947 22.916 62.0904L283.425 59.8654Z" fill="#0098C9"/>
<path opacity="0.1" d="M289.017 87.117C289.024 78.3053 287.342 69.574 284.06 61.3976L8.4195 90.3643C5.57709 95.5115 3.40282 101.001 1.94945 106.7L87.3062 119.441L0 128.735C2.6274 165.52 34.1253 194.569 72.6023 194.569C91.9703 194.569 109.572 187.207 122.61 175.203C135.694 187.435 153.461 194.954 173.037 194.954C202.085 194.954 227.155 178.397 238.829 154.455C262.253 147.014 280.448 128.324 286.676 104.945L178.745 88.1704H289.017C289.011 87.8183 289.017 87.4691 289.017 87.117Z" fill="#0098C9"/>
<path d="M136.994 228.144C172.2 228.144 200.74 223.711 200.74 218.243C200.74 212.776 172.2 208.343 136.994 208.343C101.787 208.343 73.2471 212.776 73.2471 218.243C73.2471 223.711 101.787 228.144 136.994 228.144Z" fill="#364954"/>
<path d="M135.306 68.0868C135.306 68.0868 136.862 75.2708 131.571 78.0819C131.571 78.0819 132.816 94.0116 140.908 94.324C148.999 94.6363 148.999 85.8906 148.999 85.8906L147.754 81.2054C147.754 81.2054 141.841 77.7696 145.576 71.2103L135.306 68.0868Z" fill="#F7C4A7"/>
<path d="M141.996 71.9911C150.074 71.9911 156.623 65.4185 156.623 57.3108C156.623 49.2031 150.074 42.6305 141.996 42.6305C133.918 42.6305 127.369 49.2031 127.369 57.3108C127.369 65.4185 133.918 71.9911 141.996 71.9911Z" fill="#272727"/>
<path d="M126.592 101.508V118.999L152.422 118.062L150.555 100.883L126.592 101.508Z" fill="#F7C4A7"/>
<path d="M142.153 73.0843C147.309 73.0843 151.489 68.8891 151.489 63.7139C151.489 58.5388 147.309 54.3435 142.153 54.3435C136.996 54.3435 132.816 58.5388 132.816 63.7139C132.816 68.8891 136.996 73.0843 142.153 73.0843Z" fill="#F7C4A7"/>
<path d="M130.637 78.0819C130.637 78.0819 125.346 77.1448 123.479 78.0819C121.612 79.0189 119.433 78.7066 117.255 87.7646L113.209 106.505C113.209 106.505 112.587 112.128 117.255 111.503C121.923 110.878 121.612 102.757 121.612 102.757L124.724 95.5733L130.326 89.3264L130.637 78.0819Z" fill="#F7C4A7"/>
<path d="M148.376 81.83C148.376 81.83 155.845 82.767 156.467 86.8275C157.09 90.888 153.667 107.442 153.667 107.442L148.376 102.133L151.177 91.8251L148.376 81.83Z" fill="#F7C4A7"/>
<path d="M129.236 77.9257L129.392 83.7041L125.035 93.0745L125.969 104.631L150.941 104.707L150.866 99.3215C150.866 99.3215 154.289 94.9486 152.422 91.2004C150.554 87.4523 149.154 81.6739 149.154 81.6739L146.664 80.1121C146.664 80.1121 150.866 89.9511 142.152 88.3893C133.438 86.8276 132.971 76.9886 132.971 76.9886L129.236 77.9257Z" fill="#272727"/>
<path d="M121.924 140.864L117.567 165.539L112.588 201.459L110.409 205.52L112.276 209.58L117.567 207.081L119.746 197.399C119.746 197.399 127.215 188.341 125.97 176.784L139.352 144.612L121.924 140.864Z" fill="#F7C4A7"/>
<path d="M143.397 143.363L146.51 173.973C146.51 173.973 145.887 182.406 147.754 189.902C149.622 197.399 150.867 210.517 150.867 210.517H157.091L155.846 172.098L159.892 140.864L143.397 143.363Z" fill="#F7C4A7"/>
<path d="M139.04 115.251C139.04 115.251 125.969 114.314 125.969 115.876V118.999C125.969 118.999 123.479 123.06 123.79 126.808C124.102 130.556 111.964 138.99 119.745 142.738C127.525 146.486 137.795 147.735 139.351 146.486C140.907 145.237 141.841 140.239 141.841 140.239C141.841 140.239 141.841 145.861 144.641 146.174C147.442 146.486 164.248 143.05 164.248 140.239C164.248 137.428 151.794 112.284 151.794 112.284C151.794 112.284 142.774 115.564 139.04 115.251Z" fill="#364954"/>
<path d="M111.965 205.832C111.965 205.832 110.72 203.646 109.475 205.207C108.231 206.769 103.562 210.517 103.562 210.517C103.562 210.517 92.0476 213.641 99.8279 218.326C99.8279 218.326 106.675 218.326 109.475 216.14C112.276 213.953 115.077 214.89 115.077 214.89C115.077 214.89 119.434 214.578 119.745 212.704C120.057 210.83 118.115 204.645 118.115 204.645C118.115 204.645 116.011 207.394 111.965 205.832Z" fill="#272727"/>
<path d="M153.356 207.706C153.356 207.706 149.621 206.769 149.621 207.706C149.621 208.643 144.331 214.265 148.688 216.764C153.045 219.263 153.667 218.638 153.978 221.137C154.289 223.636 162.381 225.51 163.626 223.948C164.871 222.386 165.804 219.575 164.248 218.326C162.692 217.076 157.713 209.268 157.713 207.706C157.713 206.144 153.356 207.706 153.356 207.706Z" fill="#272727"/>
<path d="M145.812 86.4612C146.416 86.4612 146.905 86.2157 146.905 85.9129C146.905 85.6101 146.416 85.3646 145.812 85.3646C145.209 85.3646 144.72 85.6101 144.72 85.9129C144.72 86.2157 145.209 86.4612 145.812 86.4612Z" fill="#364954"/>
<path d="M145.936 88.2306C147.17 88.2306 148.171 87.7174 148.171 87.0843C148.171 86.4511 147.17 85.9379 145.936 85.9379C144.702 85.9379 143.701 86.4511 143.701 87.0843C143.701 87.7174 144.702 88.2306 145.936 88.2306Z" fill="#0098C9"/>
<path d="M148.568 87.7821H143.205V91.7197H148.568V87.7821Z" fill="#0098C9"/>
<path d="M152.218 93.9376H139.505V113.227H152.218V93.9376Z" fill="#0098C9"/>
<path d="M152.79 93.7133C152.79 95.6127 149.672 94.9594 145.887 94.9594C142.102 94.9594 138.885 95.5628 138.885 93.6635C138.885 91.7641 142.102 89.7758 145.887 89.7758C149.672 89.7758 152.79 91.8139 152.79 93.7133Z" fill="#0098C9"/>
<path d="M152.789 95.7568H139.033V97.2521H152.789V95.7568Z" fill="#364954"/>
<path d="M152.889 110.211H139.133V111.707H152.889V110.211Z" fill="#364954"/>
<path d="M152.789 103.732H139.033V106.722H152.789V103.732Z" fill="#364954"/>
<path d="M152.69 112.554C152.69 113.187 152.891 114.996 146.036 114.996C138.288 114.996 138.934 113.087 138.934 112.454C138.934 111.821 142.36 112.703 146.036 112.703C149.711 112.703 152.69 111.921 152.69 112.554Z" fill="#0098C9"/>
<path d="M149.016 87.0844H142.659V89.2276H149.016V87.0844Z" fill="#364954"/>
<path opacity="0.1" d="M140.946 98.5232H140.102V103.208H140.946V98.5232Z" fill="white"/>
<path opacity="0.1" d="M140.946 107.445H140.102V109.19H140.946V107.445Z" fill="white"/>
<path d="M154.912 103.694C154.912 103.694 148.999 95.8857 149.311 101.508C149.622 107.13 153.045 109.941 153.668 109.941C154.29 109.941 156.78 109.317 154.912 103.694Z" fill="#F7C4A7"/>
<path opacity="0.1" d="M126.592 109.71C127.059 109.785 134.528 106.974 134.528 106.974L139.196 106.349L126.592 111.64L126.592 109.71Z" fill="black"/>
<path d="M116.944 104.319C116.944 104.319 119.433 102.757 124.413 103.382L134.06 100.883C134.06 100.883 143.085 95.5734 146.509 102.133C149.932 108.692 133.749 106.506 133.749 106.506C133.749 106.506 122.857 115.251 116.321 110.566L116.944 104.319Z" fill="#F7C4A7"/>
<path d="M128.615 51.0638C131.021 51.0638 132.972 49.106 132.972 46.691C132.972 44.2759 131.021 42.3181 128.615 42.3181C126.208 42.3181 124.258 44.2759 124.258 46.691C124.258 49.106 126.208 51.0638 128.615 51.0638Z" fill="#272727"/>
<path d="M155.378 49.8145C157.785 49.8145 159.735 47.8567 159.735 45.4416C159.735 43.0265 157.785 41.0687 155.378 41.0687C152.972 41.0687 151.021 43.0265 151.021 45.4416C151.021 47.8567 152.972 49.8145 155.378 49.8145Z" fill="#272727"/>
<path d="M150.71 43.5675C150.711 42.4889 151.108 41.4485 151.826 40.6461C152.544 39.8437 153.532 39.336 154.601 39.2204C153.992 39.1537 153.376 39.2164 152.794 39.4045C152.211 39.5925 151.674 39.9017 151.219 40.3118C150.763 40.7219 150.399 41.2238 150.149 41.7848C149.899 42.3457 149.771 42.9531 149.771 43.5675C149.771 44.1818 149.899 44.7892 150.149 45.3501C150.399 45.9111 150.763 46.413 151.219 46.8231C151.674 47.2332 152.211 47.5424 152.794 47.7304C153.376 47.9185 153.992 47.9812 154.601 47.9145C153.532 47.7989 152.544 47.2912 151.826 46.4888C151.108 45.6864 150.711 44.646 150.71 43.5675V43.5675Z" fill="#2F2E41"/>
<path d="M123.747 50.2281C122.995 49.4576 122.553 48.4354 122.506 47.3579C122.46 46.2804 122.811 45.2236 123.494 44.3906C123.371 44.4874 123.254 44.5907 123.143 44.7001C122.318 45.5118 121.848 46.6192 121.836 47.7786C121.825 48.9381 122.272 50.0546 123.081 50.8828C123.889 51.711 124.992 52.1831 126.148 52.1951C127.303 52.2071 128.416 51.7582 129.241 50.947C129.352 50.8372 129.458 50.7216 129.556 50.6006C128.713 51.2686 127.653 51.6 126.58 51.5312C125.508 51.4625 124.499 50.9984 123.747 50.2281V50.2281Z" fill="#2F2E41"/>
<path d="M141.996 50.4391C136.84 50.4391 132.66 52.8863 132.66 55.9052C132.66 57.2559 133.5 58.4904 134.887 59.4441L136.685 58.1371L136.196 60.1847C136.399 60.2791 136.606 60.3704 136.822 60.4547L139.507 57.3107V61.1732C140.33 61.3055 141.163 61.3718 141.996 61.3713C147.153 61.3713 151.333 58.924 151.333 55.9052C151.333 52.8863 147.153 50.4391 141.996 50.4391Z" fill="#272727"/>
<path d="M151.022 45.4415C151.022 45.4415 150.346 48.565 154.574 49.8144Z" fill="#0098C9"/>
<path d="M132.66 46.0101C132.66 46.0101 134.216 49.5021 129.548 51.0639Z" fill="#0098C9"/>
<path d="M196.097 199.383C196.917 198.468 197.502 197.365 197.802 196.172C198.102 194.978 198.108 193.729 197.819 192.533C197.53 191.337 196.955 190.229 196.144 189.306C195.333 188.382 194.31 187.671 193.164 187.234C194.185 186.641 194.982 185.727 195.433 184.633C195.883 183.539 195.962 182.327 195.656 181.184C195.35 180.04 194.677 179.03 193.741 178.31C192.806 177.59 191.659 177.199 190.48 177.199C189.3 177.199 188.154 177.59 187.218 178.31C186.282 179.03 185.61 180.04 185.304 181.184C184.998 182.327 185.077 183.539 185.527 184.633C185.978 185.727 186.775 186.641 187.796 187.234C186.65 187.671 185.627 188.382 184.815 189.306C184.004 190.229 183.429 191.337 183.141 192.533C182.852 193.729 182.857 194.978 183.158 196.172C183.458 197.365 184.043 198.468 184.863 199.383C182.948 200.604 181.481 202.415 180.68 204.545C179.879 206.674 179.788 209.007 180.422 211.193C181.055 213.378 182.378 215.299 184.192 216.665C186.005 218.031 188.212 218.77 190.48 218.77C192.748 218.77 194.954 218.031 196.768 216.665C198.582 215.299 199.905 213.378 200.538 211.193C201.171 209.007 201.081 206.674 200.28 204.545C199.479 202.415 198.011 200.604 196.097 199.383V199.383Z" fill="#0098C9"/>
<path d="M99.4304 137.725C103.737 137.725 107.229 134.221 107.229 129.898C107.229 125.575 103.737 122.071 99.4304 122.071C95.1234 122.071 91.6318 125.575 91.6318 129.898C91.6318 134.221 95.1234 137.725 99.4304 137.725Z" fill="#0098C9"/>
<path d="M97.7513 136.297C98.5121 135.679 98.0304 133.816 96.6754 132.136C95.3204 130.456 93.6052 129.596 92.8444 130.214C92.0836 130.832 92.5652 132.695 93.9202 134.375C95.2752 136.055 96.9905 136.915 97.7513 136.297Z" fill="white"/>
<path d="M48.4206 114.629C52.7277 114.629 56.2192 111.125 56.2192 106.802C56.2192 102.479 52.7277 98.9747 48.4206 98.9747C44.1136 98.9747 40.6221 102.479 40.6221 106.802C40.6221 111.125 44.1136 114.629 48.4206 114.629Z" fill="#364954"/>
<path d="M44.9973 105.876C45.5579 103.789 45.2462 101.89 44.3011 101.634C43.356 101.378 42.1353 102.862 41.5747 104.949C41.0141 107.036 41.3257 108.935 42.2709 109.191C43.216 109.447 44.4366 107.962 44.9973 105.876Z" fill="white"/>
<path d="M36.861 65.6844C39.5451 65.6844 41.7211 63.5006 41.7211 60.8066C41.7211 58.1127 39.5451 55.9288 36.861 55.9288C34.1769 55.9288 32.001 58.1127 32.001 60.8066C32.001 63.5006 34.1769 65.6844 36.861 65.6844Z" fill="#364954"/>
<path d="M34.7284 60.2294C35.0778 58.9289 34.8836 57.7454 34.2946 57.586C33.7056 57.4266 32.9449 58.3516 32.5955 59.6522C32.2461 60.9527 32.4404 62.1362 33.0294 62.2956C33.6184 62.455 34.3791 61.5299 34.7284 60.2294Z" fill="white"/>
<path d="M87.2165 186.354C89.9006 186.354 92.0765 184.17 92.0765 181.476C92.0765 178.782 89.9006 176.599 87.2165 176.599C84.5324 176.599 82.3564 178.782 82.3564 181.476C82.3564 184.17 84.5324 186.354 87.2165 186.354Z" fill="#3F3D56"/>
<path d="M85.0839 180.899C85.4333 179.599 85.2391 178.415 84.6501 178.256C84.0611 178.096 83.3004 179.022 82.951 180.322C82.6016 181.623 82.7958 182.806 83.3848 182.965C83.9738 183.125 84.7345 182.2 85.0839 180.899Z" fill="white"/>
<path d="M238.202 132.062C242.509 132.062 246 128.558 246 124.235C246 119.912 242.509 116.408 238.202 116.408C233.895 116.408 230.403 119.912 230.403 124.235C230.403 128.558 233.895 132.062 238.202 132.062Z" fill="#364954"/>
<path d="M232.885 128.148C233.864 128.148 234.657 126.396 234.657 124.235C234.657 122.074 233.864 120.321 232.885 120.321C231.906 120.321 231.112 122.074 231.112 124.235C231.112 126.396 231.906 128.148 232.885 128.148Z" fill="white"/>
<path d="M213.034 81.8976C217.341 81.8976 220.833 78.3933 220.833 74.0706C220.833 69.7478 217.341 66.2435 213.034 66.2435C208.727 66.2435 205.235 69.7478 205.235 74.0706C205.235 78.3933 208.727 81.8976 213.034 81.8976Z" fill="#0098C9"/>
<path d="M210.954 71.1893C212.698 69.9214 213.646 68.2485 213.072 67.4529C212.498 66.6573 210.619 67.0401 208.875 68.3081C207.131 69.576 206.182 71.2489 206.757 72.0445C207.331 72.8401 209.21 72.4573 210.954 71.1893Z" fill="white"/>
<path d="M232.884 35.8996C235.569 35.8996 237.744 33.7158 237.744 31.0218C237.744 28.3279 235.569 26.144 232.884 26.144C230.2 26.144 228.024 28.3279 228.024 31.0218C228.024 33.7158 230.2 35.8996 232.884 35.8996Z" fill="#0098C9"/>
<path d="M231.588 29.2263C232.675 28.4361 233.266 27.3936 232.908 26.8978C232.55 26.4019 231.379 26.6405 230.292 27.4307C229.205 28.2209 228.614 29.2634 228.972 29.7592C229.33 30.2551 230.501 30.0165 231.588 29.2263Z" fill="white"/>
<path d="M196.373 161.488C199.057 161.488 201.233 159.304 201.233 156.61C201.233 153.917 199.057 151.733 196.373 151.733C193.689 151.733 191.513 153.917 191.513 156.61C191.513 159.304 193.689 161.488 196.373 161.488Z" fill="#364954"/>
<path d="M195.076 154.815C196.163 154.025 196.754 152.982 196.396 152.486C196.039 151.991 194.867 152.229 193.78 153.019C192.694 153.81 192.103 154.852 192.46 155.348C192.818 155.844 193.99 155.605 195.076 154.815Z" fill="white"/>
</svg>
