<svg width="290" height="225" viewBox="0 0 290 225" fill="none" xmlns="http://www.w3.org/2000/svg">
<path opacity="0.1" d="M283.425 59.8654C280.564 53.217 276.698 47.0492 271.962 41.5785L112.92 40.0098L243.865 21.5961C235.406 18.2233 226.4 16.4343 217.296 16.3182C204.77 6.29382 189.346 0.585634 173.319 0.0426676C157.292 -0.500299 141.518 4.15097 128.344 13.3046C117.816 7.88573 106.144 5.06967 94.3059 5.09195C58.9682 5.09195 29.5211 29.5947 22.916 62.0904L283.425 59.8654Z" fill="#0098C9"/>
<path opacity="0.1" d="M289.017 87.117C289.024 78.3053 287.342 69.574 284.06 61.3976L8.4195 90.3643C5.57709 95.5115 3.40282 101.001 1.94945 106.7L87.3062 119.441L0 128.735C2.6274 165.52 34.1253 194.569 72.6023 194.569C91.9703 194.569 109.572 187.207 122.61 175.203C135.694 187.435 153.461 194.954 173.037 194.954C202.085 194.954 227.155 178.397 238.829 154.455C262.253 147.014 280.448 128.324 286.676 104.945L178.745 88.1704H289.017C289.011 87.8183 289.017 87.4691 289.017 87.117Z" fill="#0098C9"/>
<path d="M80.6602 225C115.927 225 144.517 220.308 144.517 214.52C144.517 208.732 115.927 204.04 80.6602 204.04C45.3933 204.04 16.8037 208.732 16.8037 214.52C16.8037 220.308 45.3933 225 80.6602 225Z" fill="#364954"/>
<path d="M146.702 147.011C143.83 147.732 140.882 146.329 140.882 146.329C140.882 146.329 138.367 143.414 136.246 143.02C134.125 142.626 133.303 146.076 132.043 146.963C131.171 147.585 124.881 147.14 121.072 146.808L120.417 146.749C120.352 146.701 120.287 146.65 120.217 146.605C120.217 146.605 116.56 145.479 115.798 144.482C115.035 143.485 109.941 141.64 108.36 141.747C106.779 141.854 102.107 142.107 102.107 142.107C102.107 142.107 100.275 140.02 99.4482 140.237C98.6211 140.454 95.7462 140.22 95.7462 140.22C95.7462 140.22 94.9557 138.187 94.1652 135.272C93.7967 133.912 92.5702 132.957 91.369 132.329C92.4493 128.667 90.5251 118.224 84.5502 116.182C83.2477 115.737 82.581 114.259 81.4727 113.448C80.4797 112.724 78.8537 111.017 79.6498 107.933C80.7751 103.616 83.5656 96.8167 83.5656 96.8167L85.6445 92.6597C85.4505 92.9542 85.2302 93.2304 84.9862 93.4849C85.2675 93.1244 85.5488 92.7696 85.7907 92.471C87.8653 93.5201 90.128 94.1444 92.4464 94.3073C94.7925 95.2564 97.1358 96.0929 98.0473 96.0619C100.132 95.9887 105.448 98.653 105.448 98.653C105.448 98.653 118.239 102.314 120.898 102.61C123.556 102.906 124.85 99.4444 124.85 99.4444C124.85 99.4444 126.231 92.6203 123.778 90.8121C121.325 89.004 119.899 97.2899 119.899 97.2899L103.164 91.2515L102.132 90.7079C102.933 89.8588 103.57 88.8673 104.008 87.7845C104.267 87.1395 104.503 86.4017 105.119 86.0806C105.285 85.9981 105.464 85.9457 105.648 85.9257C105.801 85.9158 105.954 85.9158 106.107 85.9257C109.01 86.1031 111.505 88.39 114.414 88.4013C114.521 88.4013 114.627 88.4013 114.734 88.4013C115.289 88.3997 115.83 88.233 116.29 87.9225C116.549 87.711 116.763 87.4484 116.917 87.1509C117.071 86.8534 117.162 86.5275 117.185 86.1932C117.142 86.2838 117.095 86.3722 117.044 86.458C117.12 86.0437 117.12 85.619 117.044 85.2047C116.864 84.2161 116.349 83.329 115.888 82.4361C115.757 82.2278 115.684 81.989 115.674 81.7433C115.687 81.6151 115.726 81.4908 115.788 81.378C115.851 81.2652 115.935 81.1663 116.037 81.0871C116.041 81.1136 116.047 81.14 116.054 81.1659C116.273 80.9594 116.517 80.7807 116.779 80.6336C117.49 80.1668 118.098 79.5587 118.565 78.847C119.031 78.1353 119.346 77.3352 119.491 76.4963C119.421 76.7048 119.337 76.9104 119.246 77.1131C119.679 75.6834 119.574 74.1446 118.951 72.7871C118.79 72.4008 118.532 72.0624 118.203 71.8042C117.154 71.0663 115.744 71.8521 114.464 71.9366C113.339 72.0098 112.248 71.5057 111.232 70.9959C109.499 70.1256 107.775 69.185 106.332 67.8979C104.692 66.4249 103.474 64.5463 101.994 62.9156C100.514 61.2849 98.6155 59.8317 96.4129 59.6683C92.4099 59.3585 88.6348 63.3296 84.8287 62.0341C82.9721 61.406 81.7512 59.688 80.46 58.2122C79.1688 56.7364 77.3938 55.3198 75.4584 55.638C74.1137 55.8633 72.9491 56.9082 71.5876 56.8688C70.8759 56.8463 70.2148 56.528 69.5397 56.3055C67.9053 55.7563 65.6661 56.0239 65.0838 57.6518C64.9694 57.9833 64.929 58.336 64.9654 58.6849C65.0019 59.0338 65.1143 59.3704 65.2948 59.6711C65.2087 59.792 65.1316 59.9191 65.0641 60.0513C64.9243 60.3093 64.8757 60.6071 64.9263 60.8963C63.7694 61.9359 62.9121 63.2672 62.4439 64.7514C61.9756 66.2356 61.9135 67.8183 62.264 69.3347C62.6145 70.8511 63.3648 72.2456 64.4366 73.3729C65.5085 74.5003 66.8627 75.3192 68.3582 75.7444C68.4116 75.95 68.4651 76.1556 68.5157 76.364C69.0615 78.665 69.3456 81.2561 68.5382 83.0022C68.4876 83.1093 68.4341 83.2135 68.3751 83.3149L68.3047 83.3458L68.3357 83.3768L68.3047 83.3458L68.2035 83.2416L67.5902 82.5995C67.5565 81.9292 67.1795 80.1323 64.5578 76.7977C61.1061 72.4069 60.4591 65.1406 60.4591 65.1406C60.4591 65.1406 59.5983 61.4004 60.4591 60.3217C61.3199 59.243 62.7602 47.3662 62.7602 47.3662L65.1401 40.6801C65.1401 40.6801 76.7102 28.8793 71.8914 27.443C68.6198 26.4657 64.7181 31.5014 62.552 34.8304C61.4881 36.465 60.8002 38.3159 60.5379 40.2492L53.9975 58.1643C53.9975 58.1643 53.3505 60.3245 53.9975 64.0647C54.6445 67.8049 56.082 74.4263 56.082 74.4263L59.739 83.7063C59.739 83.7063 61.0864 87.7141 60.9683 89.4546C60.8079 89.5588 60.2453 90.6741 59.7587 91.688L59.4014 92.2513L59.3761 92.4795C59.137 92.9892 58.971 93.3554 58.971 93.3554C58.971 93.3554 56.9344 99.374 58.6363 103.066C60.3382 106.759 60.4057 108.471 60.4057 108.471L61.6744 113.94L62.2032 118.728L66.766 130.025L70.9687 136.032C70.9687 136.032 70.5749 140.457 69.7113 141.068C68.8477 141.679 69.2443 144.845 69.2443 144.845L68.7042 153.153C68.7042 153.153 67.0164 155.637 66.9095 159.665C66.8026 163.692 66.1893 164.847 66.1893 164.847C66.1893 164.847 65.908 168.227 66.6929 169.776C67.4777 171.325 65.4354 172.941 65.4354 172.941L67.188 178.966L66.5044 186.593C66.5044 186.593 66.8223 186.68 67.3483 186.812L67.2414 187.359L64.3833 201.807C64.3833 201.807 62.839 205.767 62.7686 206.699L57.7727 215.731C57.7727 215.731 53.6037 219.868 55.5813 220.263C57.5589 220.657 63.3088 217.097 63.3088 217.097C63.3088 217.097 68.0516 211.988 69.9195 211.523C71.7873 211.059 73.8577 209.721 73.2614 207.78C72.665 205.84 71.2922 202.888 72.6144 199.756C73.4583 197.785 75.253 192.434 76.4851 188.699C76.5527 188.494 76.6173 188.296 76.682 188.105C77.0079 188.076 77.3302 188.014 77.6441 187.922C80.6625 186.987 82.2435 187.64 82.2435 187.64L87.6333 165.805L88.8176 154.849L96.365 161.152C97.8583 162.399 99.7123 163.132 101.654 163.245C104.627 163.419 109.266 163.85 112.625 164.889L114.031 159.026C114.031 159.026 118.054 159.172 118.917 157.803C119.269 157.24 119.615 156.761 119.899 156.395L120.552 156.294L138.356 153.536C141.661 153.536 146.19 151.303 146.19 151.303L148.958 150.765C148.958 150.765 153.088 149.937 153.459 149.253C153.83 148.568 149.58 146.295 146.702 147.011Z" fill="url(#paint0_linear)"/>
<path d="M65.9136 59.0627C66.4762 57.4743 68.676 57.2067 70.2766 57.7447C70.9349 57.9643 71.5847 58.277 72.2795 58.3079C73.6129 58.3474 74.7522 57.3222 76.0687 57.1053C77.9619 56.7899 79.6976 58.1756 80.9606 59.6204C82.2237 61.0652 83.4221 62.7466 85.2393 63.3634C88.961 64.6195 92.6573 60.7441 96.5731 61.0455C98.7223 61.2117 100.579 62.6283 102.028 64.2252C103.476 65.8221 104.669 67.6584 106.273 69.1004C107.679 70.3678 109.367 71.2888 111.069 72.1421C112.062 72.6406 113.122 73.1335 114.231 73.0603C115.485 72.9786 116.864 72.2154 117.888 72.9307C118.21 73.1837 118.462 73.5154 118.619 73.8939C119.879 76.5188 118.864 80.014 116.397 81.5574C115.966 81.825 115.443 82.1207 115.418 82.6361C115.426 82.8768 115.498 83.1111 115.626 83.3148C116.076 84.1879 116.582 85.0582 116.751 86.0242C116.92 86.9902 116.692 88.1027 115.907 88.6885C115.395 89.0298 114.786 89.1967 114.172 89.1645C111.325 89.1504 108.883 86.9114 106.042 86.7396C105.678 86.698 105.31 86.7543 104.976 86.9029C104.374 87.2156 104.132 87.9394 103.887 88.5703C102.571 91.8626 99.3018 94.1524 95.8136 94.7804C92.3254 95.4085 88.6825 94.5241 85.56 92.8456C85.3317 92.7363 85.1219 92.5918 84.9383 92.4175C84.6776 92.1005 84.4937 91.7275 84.401 91.3275C83.4446 88.2999 82.1506 85.1314 79.5007 83.3824C77.7819 82.2559 75.4498 81.6222 74.6706 79.7211C74.1811 78.5185 74.4878 77.1525 74.364 75.857C74.2421 74.7462 73.8098 73.6924 73.1166 72.8166C72.4235 71.9407 71.4976 71.2784 70.4454 70.9057C69.9841 70.7508 69.4777 70.641 69.1401 70.2889C68.8661 69.9433 68.691 69.5295 68.6338 69.092C68.2146 67.1853 67.9362 65.1715 67.351 63.3099C66.9038 61.851 65.3144 60.7329 65.9136 59.0627Z" fill="#272727"/>
<g opacity="0.1">
<path opacity="0.1" d="M116.237 87.8126C115.723 88.1492 115.114 88.312 114.501 88.2773C111.657 88.2773 109.215 86.0242 106.374 85.8552C106.011 85.8125 105.643 85.868 105.308 86.0157C104.703 86.3283 104.464 87.0522 104.219 87.683C102.903 90.9782 99.6312 93.268 96.143 93.896C92.6548 94.5241 89.0118 93.6397 85.8922 91.9611C85.664 91.8515 85.4543 91.7071 85.2705 91.5331C85.0103 91.2158 84.8265 90.8428 84.7332 90.4431C83.7767 87.4127 82.4827 84.247 79.8328 82.4952C78.1112 81.3546 75.7792 80.7378 75.0028 78.8339C74.5105 77.6285 74.8171 76.2625 74.6962 74.9698C74.5747 73.8585 74.1422 72.8041 73.4484 71.9281C72.7547 71.0521 71.8279 70.3902 70.7748 70.0185C70.3134 69.8636 69.8071 69.751 69.4695 69.4017C69.1951 69.0555 69.0209 68.6405 68.966 68.2019C68.544 66.2981 68.2683 64.2815 67.6832 62.4227C67.2894 61.1778 66.0488 60.1696 66.1107 58.8402C66.0743 58.9104 66.0423 58.9828 66.0151 59.0571C65.4131 60.7272 67.0053 61.8453 67.4582 63.2817C68.0433 65.1405 68.319 67.1571 68.7409 69.0609C68.7959 69.4995 68.9701 69.9145 69.2445 70.2607C69.582 70.61 70.0884 70.7226 70.5497 70.8775C71.6032 71.2494 72.5303 71.9118 73.2241 72.7883C73.9179 73.6648 74.3502 74.7198 74.4711 75.8316C74.5921 77.1243 74.2855 78.4903 74.7777 79.6957C75.5541 81.608 77.8862 82.2305 79.6078 83.357C82.2521 85.1116 83.5461 88.2745 84.5081 91.3049C84.6014 91.7047 84.7853 92.0776 85.0454 92.3949C85.2293 92.5689 85.439 92.7133 85.6671 92.823C88.7868 94.5128 92.4185 95.3831 95.9179 94.7578C99.4174 94.1326 102.669 91.84 103.994 88.5449C104.247 87.914 104.481 87.1902 105.083 86.8775C105.418 86.7298 105.786 86.6743 106.149 86.717C108.99 86.8888 111.432 89.1278 114.276 89.1391C114.89 89.1713 115.499 89.0055 116.012 88.666C116.266 88.4596 116.475 88.2031 116.626 87.9124C116.777 87.6217 116.867 87.303 116.889 86.9761C116.747 87.3065 116.522 87.5946 116.237 87.8126V87.8126Z" fill="black"/>
<path opacity="0.1" d="M116.726 80.673C116.296 80.9547 115.77 81.2363 115.744 81.7517C115.742 81.8552 115.758 81.9582 115.792 82.0559C116.006 81.8534 116.244 81.6784 116.501 81.5349C117.197 81.0786 117.792 80.4838 118.248 79.7875C118.704 79.0912 119.013 78.3084 119.154 77.4877C118.738 78.7991 117.88 79.9251 116.726 80.673V80.673Z" fill="black"/>
</g>
<path d="M73.2754 198.117C71.9729 201.182 73.312 204.066 73.9083 205.969C74.5047 207.873 72.468 209.172 70.6396 209.631C68.8111 210.09 64.1695 215.086 64.1695 215.086C64.1695 215.086 58.5434 218.57 56.608 218.184C54.6726 217.798 58.7516 213.748 58.7516 213.748L63.6407 204.91C63.711 203.998 65.2216 200.123 65.2216 200.123L68.0178 185.984L68.3891 184.106L78.3023 183.506C78.3023 183.506 77.7819 185.117 77.0646 187.294C75.8578 190.955 74.0912 196.205 73.2754 198.117Z" fill="#F7C4A7"/>
<path d="M152.393 148.698C152.041 149.368 147.999 150.176 147.999 150.176L145.29 150.703C145.29 150.703 140.859 152.889 137.624 152.889L120.2 155.59L117.862 155.953V146.056C117.862 146.056 119.038 146.18 120.703 146.338C124.425 146.664 130.583 147.098 131.435 146.49C132.667 145.611 133.475 142.231 135.548 142.62C137.621 143.009 140.085 145.859 140.085 145.859C140.085 145.859 142.969 147.23 145.782 146.526C148.595 145.822 152.744 148.027 152.393 148.698Z" fill="#F7C4A7"/>
<path opacity="0.1" d="M120.816 154.824C120.816 154.824 120.566 155.105 120.2 155.587L117.862 155.95V146.056C117.862 146.056 119.038 146.18 120.703 146.338C123.5 148.549 120.816 154.824 120.816 154.824Z" fill="black"/>
<path d="M87.166 152.537L96.5251 160.355C97.9868 161.575 99.8013 162.293 101.701 162.403C104.61 162.574 109.15 162.994 112.447 164.013L113.82 158.274C113.82 158.274 117.758 158.414 118.602 157.077C119.098 156.287 119.649 155.534 120.253 154.824C120.253 154.824 123.103 148.171 119.868 146.129C119.868 146.129 116.281 145.037 115.541 144.051C114.802 143.065 109.811 141.271 108.264 141.375C106.717 141.479 102.146 141.727 102.146 141.727C102.146 141.727 100.351 139.685 99.5435 139.897C98.7361 140.108 95.9203 139.897 95.9203 139.897C95.9203 139.897 95.1467 137.905 94.3731 135.052C93.5995 132.199 88.9945 131.18 88.9945 131.18L87.166 152.537Z" fill="#364954"/>
<path opacity="0.1" d="M87 152.357L96.3591 160.175C97.8208 161.395 99.6352 162.113 101.535 162.223C104.444 162.395 108.984 162.814 112.281 163.834L113.654 158.094C113.654 158.094 117.592 158.235 118.436 156.897C118.932 156.107 119.483 155.354 120.087 154.644C120.087 154.644 122.937 147.991 119.702 145.949C119.702 145.949 116.115 144.857 115.375 143.871C114.636 142.885 109.645 141.091 108.098 141.195C106.551 141.3 101.98 141.547 101.98 141.547C101.98 141.547 100.185 139.506 99.3775 139.717C98.5701 139.928 95.7543 139.717 95.7543 139.717C95.7543 139.717 94.9807 137.726 94.2071 134.873C93.4335 132.02 88.8285 131 88.8285 131L87 152.357Z" fill="black"/>
<path d="M82.9802 82.4418L81.945 82.6361H81.8803L81.7284 82.6643L79.9562 82.9938L79.4104 83.6416L79.3879 83.6641L77.6354 85.7426L76.1585 87.1931L76.1445 87.21L74.8955 88.4266L72.7829 90.5305L72.4284 91.4064L71.6576 93.3469L71.4579 93.8398L69.3481 96.0929L68.0006 98.9797L64.85 100.81L61.4603 99.0501L59.9131 96.797L60.2647 93.5694L60.335 92.9245L61.3674 91.2656L62.3042 89.756L64.1327 87.1508L67.649 84.7569L68.2791 84.5907L68.9852 84.4048C69.0392 84.3278 69.0889 84.2478 69.1343 84.1654C69.1939 84.0664 69.2474 83.9639 69.2947 83.8584C70.0851 82.1517 69.8066 79.6141 69.2721 77.3638C68.8625 75.6804 68.3197 74.0323 67.649 72.4351L76.9321 71.0973C76.9321 71.0973 76.8421 72.8998 76.8421 75.7106C76.8421 76.4147 76.8421 77.1779 76.8618 77.9947C76.9068 80.5294 79.2585 81.6278 81.0336 82.0954C81.4907 82.2173 81.9547 82.3114 82.4232 82.377C82.7664 82.4305 82.9802 82.4418 82.9802 82.4418Z" fill="#F7C4A7"/>
<path d="M68.3523 83.7711C68.3523 83.7711 68.7743 82.0813 65.3986 77.7862C62.0229 73.4912 61.39 66.3798 61.39 66.3798C61.39 66.3798 60.5461 62.7185 61.39 61.6623C62.2339 60.6061 63.6404 48.9885 63.6404 48.9885L65.9612 42.4403C65.9612 42.4403 77.2838 30.8931 72.5719 29.4848C69.3706 28.5273 65.5393 33.4588 63.4323 36.7146C62.3916 38.3144 61.719 40.1259 61.4631 42.0179L55.0606 59.55C55.0606 59.55 54.4277 61.6623 55.0606 65.3236C55.6935 68.985 57.1001 75.4627 57.1001 75.4627L60.6867 84.5541C60.6867 84.5541 62.5743 90.215 61.5953 90.9051L63.7811 87.669L68.3523 83.7711Z" fill="#F7C4A7"/>
<path d="M124.403 99.9739C124.403 99.9739 123.137 103.354 120.535 103.072C117.933 102.79 105.414 99.1994 105.414 99.1994C105.414 99.1994 100.21 96.5942 98.1709 96.6647C96.1314 96.7351 86.7779 92.3696 86.7779 92.3696C86.7779 92.3696 86.1197 93.2371 85.3855 94.1496C84.5866 95.1494 83.6976 96.2056 83.4726 96.2422C83.0506 96.3126 76.5103 97.2279 76.5103 97.2279L72.0797 95.186L71.6577 93.3469L71.458 92.502L72.4398 91.4064L73.731 89.9672L76.153 87.2015L76.1671 87.1846L79.3993 83.6669L79.4218 83.6444L81.4922 82.7995L81.8917 82.6361H81.9564C82.2039 82.5939 83.1547 82.5066 84.429 83.2276C85.3165 83.7307 86.3019 84.0362 87.3181 84.1232C89.3406 84.2676 91.2559 85.089 92.7557 86.4552L103.164 91.9387L119.55 97.8532C119.55 97.8532 120.957 89.756 123.348 91.5163C125.739 93.2765 124.403 99.9739 124.403 99.9739Z" fill="#F7C4A7"/>
<path opacity="0.1" d="M85.3854 94.1495C84.5865 95.1494 83.6975 96.2055 83.4725 96.2421C83.0505 96.3125 76.5102 97.2279 76.5102 97.2279L72.0796 95.186L71.6576 93.3469L71.4579 93.8397L69.3481 96.0929L68.0006 98.9797L64.85 100.81L61.4603 99.0501L59.9131 96.797L60.2647 93.5694C60.4419 93.1863 60.9258 92.1443 61.3674 91.2655C61.5761 90.7814 61.8384 90.3223 62.1495 89.8968C62.4308 89.7109 62.7261 87.714 62.7261 87.714C64.0033 84.0274 68.2819 83.4613 68.2819 83.4613L68.9655 84.1034L69.2637 84.4132C69.1427 84.3935 69.2862 84.1316 69.1315 84.1738C68.8839 84.2442 68.7742 84.6188 68.4564 84.8244C66.7263 85.951 64.023 88.5787 62.954 89.8264C62.6952 90.1277 62.428 90.4234 62.1551 90.7107C60.6107 92.347 60.8948 94.5157 60.8948 94.5157C60.5095 96.2055 63.9189 97.4729 63.9189 97.4729C64.8697 95.8901 71.3032 91.5246 71.3032 91.5246L75.6353 86.6663C76.9631 84.3513 79.5736 82.8219 81.0307 82.1066C81.6749 81.7911 82.0969 81.6334 82.0969 81.6334L83.7172 82.3263C83.2894 82.2115 82.8367 82.2312 82.4204 82.3826C82.1813 82.4566 81.9488 82.5509 81.7256 82.6642C81.6412 82.7065 81.5568 82.7515 81.478 82.7994C81.0349 83.057 80.6184 83.358 80.2346 83.6978L76.5945 87.6774C73.8124 90.7163 75.9082 95.631 80.0237 95.7014H80.0602C82.5751 96.2816 84.3783 95.1156 85.3854 94.1495Z" fill="black"/>
<path opacity="0.1" d="M78.3021 183.514C78.3021 183.514 77.7817 185.125 77.0644 187.302C74.3132 187.508 69.7701 186.443 68.0176 185.992L68.3889 184.114L78.3021 183.514Z" fill="black"/>
<path d="M69.2667 84.4133L68.3665 83.4895C68.3665 83.4895 65.1174 83.9345 63.1005 87.4099C63.1005 87.4099 62.1581 90.0151 61.8684 90.201C61.5786 90.3869 59.9133 94.0285 59.9133 94.0285C59.9133 94.0285 57.9216 99.9176 59.5841 103.534C61.2467 107.15 61.3198 108.815 61.3198 108.815L62.5632 114.166L63.078 118.858L67.5451 129.912L71.6578 135.779C71.6578 135.779 71.2724 140.108 70.4285 140.708C69.5846 141.308 69.97 144.403 69.97 144.403L69.4439 152.537C69.4439 152.537 67.7898 154.964 67.6858 158.907C67.5817 162.85 66.9825 163.977 66.9825 163.977C66.9825 163.977 66.7012 167.286 67.4748 168.801C68.2484 170.317 66.2427 171.899 66.2427 171.899L67.9671 177.777L67.2976 185.241C67.2976 185.241 75.2445 187.46 78.1982 186.545C81.1519 185.629 82.6991 186.263 82.6991 186.263L87.9736 164.884L89.8021 148.092C89.8021 148.092 89.909 136.193 91.4899 132.565C92.8458 129.467 91.0679 118.43 84.9608 116.346C83.6865 115.912 83.0395 114.464 81.9508 113.67C80.9775 112.963 79.3881 111.293 80.1673 108.274C81.2588 104.049 84.0015 97.3969 84.0015 97.3969L86.0326 93.3469C86.0326 93.3469 83.8243 96.9238 79.7819 96.0084H79.7454C75.6299 95.9352 73.5341 91.0206 76.3162 87.9845L79.9563 84.0021C79.9563 84.0021 81.9621 82.1517 83.4389 82.6192L81.8214 81.9264C81.8214 81.9264 77.2671 83.6162 75.3514 86.9593L71.0192 91.8176C71.0192 91.8176 64.5914 96.1633 63.6406 97.7574C63.6406 97.7574 60.2311 96.49 60.6165 94.8002C60.6165 94.8002 60.3352 92.6287 61.8768 90.9924C62.1581 90.7108 62.4169 90.4122 62.6757 90.1109C64.0625 88.4886 67.8967 84.1851 69.2667 84.4133Z" fill="#364954"/>
<path opacity="0.1" d="M69.7959 113.422C69.7959 113.422 68.7748 120.852 69.5484 122.364L69.7959 113.422Z" fill="black"/>
<path opacity="0.1" d="M70.4619 116.309L71.5534 120.57C71.5534 120.57 71.9388 117.965 70.4619 116.309Z" fill="black"/>
<path opacity="0.1" d="M63.9922 115.315C63.9922 115.315 66.1723 126.158 68.5634 129.433Z" fill="black"/>
<path opacity="0.1" d="M79.3599 128.386C79.3599 128.386 75.6326 131.906 74.1895 131.65C74.1895 131.65 79.9225 131.898 81.7144 128.87C81.7144 128.879 80.5554 128.034 79.3599 128.386Z" fill="black"/>
<path opacity="0.1" d="M84.5281 128.104C84.5281 128.104 79.7459 131.588 78.7979 131.906C78.7979 131.906 83.9654 130.428 84.5281 128.104Z" fill="black"/>
<path opacity="0.1" d="M68.3523 102.227C68.3523 102.227 65.9612 105.291 64.7656 104.939C64.7656 104.939 67.6856 105.043 68.3523 102.227Z" fill="black"/>
<path opacity="0.1" d="M71.0615 106.17C71.0615 106.17 76.2657 99.0951 78.7271 99.3767C78.7271 99.3767 72.8197 104.517 71.0615 106.17Z" fill="black"/>
<path opacity="0.1" d="M78.268 103.596C78.268 103.596 74.9626 105.255 75.3143 105.739C75.6659 106.224 78.268 103.596 78.268 103.596Z" fill="black"/>
<path opacity="0.1" d="M80.6602 157.922C80.6602 157.922 69.6189 164.365 68.6006 164.681C68.6006 164.681 70.4994 166.126 72.2913 165.422C74.0832 164.717 80.6602 157.922 80.6602 157.922Z" fill="black"/>
<path opacity="0.1" d="M71.4135 171.336C71.4135 171.336 66.983 170.877 67.1574 172.322C67.3318 173.767 71.4135 171.336 71.4135 171.336Z" fill="black"/>
<path opacity="0.1" d="M76.9325 71.0973C76.9325 71.0973 76.8425 72.8998 76.8425 75.7106C75.8009 76.5652 74.5717 77.1604 73.2558 77.4473C71.9399 77.7342 70.5748 77.7046 69.2725 77.361C68.8629 75.6776 68.3201 74.0295 67.6494 72.4323L76.9325 71.0973Z" fill="black"/>
<path d="M71.447 77.0935C76.1467 77.0935 79.9565 73.2791 79.9565 68.5738C79.9565 63.8686 76.1467 60.0542 71.447 60.0542C66.7473 60.0542 62.9375 63.8686 62.9375 68.5738C62.9375 73.2791 66.7473 77.0935 71.447 77.0935Z" fill="#F7C4A7"/>
<path opacity="0.1" d="M73.678 73.7728C73.9171 77.2567 74.6485 81.2419 77.6697 82.9937C79.8527 84.2583 82.6039 83.926 85.0203 83.205C87.4367 82.484 89.8025 81.4081 92.3174 81.287C94.2499 81.194 96.16 81.67 98.087 81.7911C100.014 81.9122 102.124 81.6109 103.499 80.2534C105.468 78.3213 105.108 74.8093 103.243 72.7786C101.378 70.748 98.4611 70.0101 95.6987 70.0861C92.323 70.1791 88.5535 71.2127 85.8839 69.1624C84.092 67.7823 83.414 65.3884 81.9062 63.7013C79.3885 60.8849 68.2544 56.818 65.8971 61.4088C64.7915 63.5577 69.8157 65.0926 70.9803 66.6473C72.82 69.1004 73.4586 70.5565 73.678 73.7728Z" fill="black"/>
<path d="M73.9387 73.4715C74.1807 76.9582 74.9093 80.9434 77.9305 82.6924C80.1134 83.957 82.8646 83.6247 85.281 82.9065C87.6974 82.1883 90.0632 81.1096 92.5809 80.9885C94.5107 80.8956 96.4208 81.3687 98.3505 81.4926C100.28 81.6166 102.384 81.3124 103.76 79.9549C105.729 78.02 105.369 74.5108 103.504 72.4801C101.639 70.4495 98.7218 69.7116 95.9622 69.7876C92.5865 69.8778 88.8142 70.9142 86.1446 68.861C84.3527 67.481 83.6748 65.0899 82.167 63.4C79.6493 60.5836 68.5152 56.5196 66.1578 61.1103C65.0523 63.2564 70.0764 64.7913 71.2438 66.3488C73.0808 68.7991 73.7193 70.2523 73.9387 73.4715Z" fill="#272727"/>
<path opacity="0.1" d="M63.7051 97.4701C63.8356 96.3586 64.2015 95.2877 64.7783 94.329C65.3551 93.3703 66.1295 92.5458 67.0498 91.9105" fill="black"/>
<path opacity="0.1" d="M95.6105 141.586C95.5844 141.862 95.5171 142.133 95.4108 142.389C95.0421 143.495 94.5985 144.574 94.083 145.619C94.8341 145.555 95.453 144.963 95.7709 144.282C96.0486 143.58 96.2019 142.836 96.2238 142.082C96.2514 141.847 96.258 141.609 96.2434 141.372C96.2238 141.153 96.0831 140.313 95.7202 140.463C95.4277 140.587 95.6161 141.364 95.6105 141.586Z" fill="black"/>
<path opacity="0.1" d="M104.266 79.0733C102.888 80.4308 100.784 80.7349 98.8541 80.611C96.9243 80.4871 95.0058 80.0139 93.0845 80.1097C90.5527 80.2308 88.2066 81.3067 85.7874 82.0277C83.3681 82.7487 80.6198 83.081 78.434 81.8164C75.4156 80.0646 74.6842 76.0794 74.4451 72.5955C74.2257 69.3792 73.5843 67.9231 71.7474 65.47C70.6362 63.9858 66.0228 62.5212 66.5516 60.5272C66.3988 60.707 66.2667 60.9035 66.1578 61.113C65.0523 63.2591 70.0764 64.7941 71.2438 66.3516C73.0808 68.8018 73.7193 70.2607 73.9387 73.4742C74.1807 76.961 74.9093 80.9462 77.9305 82.6952C80.1134 83.9597 82.8646 83.6274 85.281 82.9092C87.6974 82.191 90.0632 81.1123 92.5809 80.9912C94.5107 80.8983 96.4208 81.3715 98.3505 81.4954C100.28 81.6193 102.384 81.3151 103.76 79.9576C104.151 79.5695 104.461 79.1083 104.674 78.6001C104.551 78.7681 104.414 78.9263 104.266 79.0733V79.0733Z" fill="black"/>
<path d="M63.0949 104.683L62.0625 106.936L65.3453 106.28L63.0949 104.683Z" fill="#FFB9B9"/>
<path opacity="0.1" d="M63.0949 104.683L62.2453 106.936H62.0625L63.0949 104.683Z" fill="black"/>
<path opacity="0.1" d="M144.33 206.949C150.7 206.949 155.864 206.24 155.864 205.364C155.864 204.488 150.7 203.778 144.33 203.778C137.961 203.778 132.797 204.488 132.797 205.364C132.797 206.24 137.961 206.949 144.33 206.949Z" fill="#0098C9"/>
<path opacity="0.1" d="M188.509 211.433C194.879 211.433 200.043 210.723 200.043 209.848C200.043 208.972 194.879 208.262 188.509 208.262C182.139 208.262 176.976 208.972 176.976 209.848C176.976 210.723 182.139 211.433 188.509 211.433Z" fill="#0098C9"/>
<path opacity="0.1" d="M240.549 205.364C246.919 205.364 252.083 204.654 252.083 203.778C252.083 202.903 246.919 202.193 240.549 202.193C234.179 202.193 229.016 202.903 229.016 203.778C229.016 204.654 234.179 205.364 240.549 205.364Z" fill="#0098C9"/>
<path opacity="0.1" d="M170.826 223.744C175.353 223.744 179.023 223.239 179.023 222.617C179.023 221.995 175.353 221.491 170.826 221.491C166.299 221.491 162.629 221.995 162.629 222.617C162.629 223.239 166.299 223.744 170.826 223.744Z" fill="#0098C9"/>
<path opacity="0.1" d="M216.68 222.617C221.207 222.617 224.877 222.113 224.877 221.491C224.877 220.869 221.207 220.364 216.68 220.364C212.152 220.364 208.482 220.869 208.482 221.491C208.482 222.113 212.152 222.617 216.68 222.617Z" fill="#0098C9"/>
<path d="M188.76 209.493C188.76 209.493 172.585 156.403 191.292 135.14C205.284 119.232 221.17 121.136 228.284 123.102C230.125 123.593 231.837 124.479 233.302 125.698C234.767 126.917 235.95 128.441 236.768 130.163C239.255 135.537 238.808 144.245 221.251 154.432C191.855 171.471 190.026 194.847 190.026 194.847L188.76 209.493Z" fill="#0098C9"/>
<path d="M225.751 130.633C225.751 130.633 178.07 145.56 188.759 209.493" stroke="#364954" stroke-miterlimit="10"/>
<path d="M197.902 135.984C197.902 135.984 204.465 140.415 202.381 147.07" stroke="#364954" stroke-miterlimit="10"/>
<path d="M220.969 139.928C220.969 139.928 216.955 135.838 212.068 138.094" stroke="#364954" stroke-miterlimit="10"/>
<path d="M202.122 160.487C202.122 160.487 195.073 156.905 193.25 161.391" stroke="#364954" stroke-miterlimit="10"/>
<path d="M184.681 167.951C184.681 167.951 189.972 167.528 190.068 170.063" stroke="#364954" stroke-miterlimit="10"/>
<path d="M188.119 209.915C188.119 209.915 207.062 171.33 212.266 172.175C214.739 172.575 215.878 175.011 216.393 177.456C217.029 180.621 216.663 183.905 215.347 186.851C212.66 193.022 205.439 204.747 188.119 209.915Z" fill="#0098C9"/>
<path d="M212.111 179.498C212.111 179.498 192.228 208.366 188.386 209.633" stroke="#364954" stroke-miterlimit="10"/>
<path d="M213.939 184.004H209.298" stroke="#364954" stroke-miterlimit="10"/>
<path d="M208.381 194.566L201.106 194.878" stroke="#364954" stroke-miterlimit="10"/>
<path d="M203.953 186.117L204.744 189.91" stroke="#364954" stroke-miterlimit="10"/>
<path d="M196.218 197.664L196.358 201.111" stroke="#364954" stroke-miterlimit="10"/>
<path d="M188.682 209.915C188.682 209.915 169.739 171.33 164.535 172.175C162.062 172.575 160.923 175.011 160.408 177.456C159.763 180.618 160.119 183.902 161.426 186.851C164.113 193.022 171.334 204.747 188.682 209.915Z" fill="#0098C9"/>
<path d="M164.66 179.498C164.66 179.498 184.543 208.366 188.386 209.633" stroke="#364954" stroke-miterlimit="10"/>
<path d="M162.829 184.004H167.471" stroke="#364954" stroke-miterlimit="10"/>
<path d="M168.391 194.566L175.665 194.878" stroke="#364954" stroke-miterlimit="10"/>
<path d="M172.815 186.117L172.027 189.91" stroke="#364954" stroke-miterlimit="10"/>
<path d="M180.551 197.664L180.41 201.111" stroke="#364954" stroke-miterlimit="10"/>
<path d="M221.194 218.925C221.712 218.505 222.088 217.937 222.275 217.297C222.412 216.649 222.137 215.875 221.521 215.638C220.829 215.373 220.089 215.852 219.529 216.336C218.969 216.821 218.325 217.376 217.591 217.272C217.968 216.929 218.25 216.494 218.409 216.01C218.568 215.526 218.6 215.009 218.499 214.509C218.469 214.301 218.381 214.106 218.246 213.945C217.864 213.534 217.166 213.712 216.705 214.035C215.242 215.066 214.834 217.055 214.828 218.846C214.679 218.198 214.803 217.525 214.8 216.874C214.798 216.224 214.615 215.466 214.058 215.123C213.714 214.932 213.326 214.835 212.932 214.841C212.274 214.818 211.543 214.883 211.093 215.365C210.53 215.962 210.679 216.967 211.166 217.618C211.653 218.269 212.39 218.688 213.067 219.144C213.614 219.468 214.08 219.912 214.429 220.443C214.471 220.516 214.504 220.594 214.53 220.674H218.651C219.574 220.208 220.429 219.62 221.194 218.925V218.925Z" fill="#0098C9"/>
<path d="M149.017 203.387C149.533 202.965 149.909 202.397 150.094 201.756C150.235 201.108 149.959 200.348 149.34 200.097C148.648 199.832 147.911 200.311 147.349 200.798C146.786 201.286 146.145 201.835 145.413 201.733C145.79 201.389 146.071 200.953 146.229 200.467C146.388 199.981 146.418 199.463 146.316 198.962C146.285 198.755 146.197 198.56 146.063 198.399C145.678 197.988 144.983 198.162 144.521 198.486C143.059 199.517 142.651 201.505 142.642 203.297C142.496 202.652 142.62 201.978 142.617 201.325C142.614 200.672 142.431 199.917 141.872 199.57C141.526 199.384 141.138 199.293 140.746 199.306C140.091 199.28 139.357 199.345 138.909 199.827C138.347 200.427 138.496 201.429 138.98 202.08C139.464 202.73 140.203 203.15 140.884 203.606C141.429 203.931 141.893 204.375 142.243 204.905C142.285 204.979 142.319 205.057 142.344 205.138H146.468C147.392 204.671 148.249 204.082 149.017 203.387Z" fill="#0098C9"/>
<path d="M173.067 218.925C173.584 218.505 173.961 217.937 174.147 217.297C174.285 216.649 174.009 215.875 173.393 215.638C172.701 215.373 171.961 215.852 171.401 216.336C170.841 216.821 170.197 217.376 169.463 217.272C169.841 216.929 170.123 216.495 170.283 216.01C170.443 215.526 170.474 215.009 170.374 214.509C170.344 214.301 170.256 214.106 170.121 213.945C169.739 213.534 169.041 213.712 168.58 214.035C167.117 215.066 166.709 217.055 166.703 218.846C166.554 218.198 166.678 217.525 166.675 216.874C166.673 216.224 166.49 215.466 165.933 215.123C165.589 214.932 165.201 214.835 164.807 214.841C164.149 214.818 163.418 214.883 162.968 215.365C162.405 215.962 162.554 216.967 163.041 217.618C163.528 218.269 164.265 218.688 164.942 219.144C165.489 219.468 165.955 219.912 166.304 220.443C166.345 220.516 166.379 220.594 166.405 220.674H170.526C171.448 220.208 172.302 219.62 173.067 218.925V218.925Z" fill="#0098C9"/>
<path d="M241.286 187.514C241.286 187.514 242.833 189.536 240.574 192.583C238.315 195.63 236.453 198.216 237.198 200.12C237.198 200.12 240.608 194.448 243.387 194.369C246.166 194.29 244.349 190.924 241.286 187.514Z" fill="#0098C9"/>
<path opacity="0.1" d="M241.285 187.514C241.421 187.708 241.527 187.922 241.6 188.147C244.309 191.33 245.75 194.301 243.148 194.377C240.726 194.445 237.82 198.785 237.122 199.88C237.145 199.964 237.172 200.047 237.204 200.128C237.204 200.128 240.613 194.456 243.392 194.377C246.172 194.298 244.349 190.924 241.285 187.514Z" fill="black"/>
<path d="M244.169 190.091C244.169 190.803 244.09 191.381 243.992 191.381C243.893 191.381 243.817 190.795 243.817 190.091C243.817 189.387 243.916 189.716 244.014 189.716C244.113 189.716 244.169 189.387 244.169 190.091Z" fill="#FFD037"/>
<path d="M245.156 190.941C244.531 191.282 243.986 191.488 243.941 191.403C243.896 191.319 244.36 190.969 244.984 190.629C245.609 190.288 245.364 190.536 245.409 190.629C245.454 190.721 245.786 190.6 245.156 190.941Z" fill="#FFD037"/>
<path d="M233.127 187.514C233.127 187.514 231.58 189.536 233.839 192.583C236.098 195.63 237.96 198.216 237.214 200.12C237.214 200.12 233.808 194.448 231.026 194.369C228.244 194.29 230.083 190.924 233.127 187.514Z" fill="#0098C9"/>
<path opacity="0.1" d="M233.127 187.514C232.992 187.708 232.885 187.922 232.809 188.147C230.103 191.33 228.663 194.301 231.262 194.377C233.687 194.445 236.607 198.785 237.291 199.88C237.268 199.965 237.24 200.048 237.206 200.128C237.206 200.128 233.8 194.456 231.018 194.377C228.235 194.298 230.084 190.924 233.127 187.514Z" fill="black"/>
<path d="M230.261 190.091C230.261 190.803 230.342 191.38 230.441 191.38C230.539 191.38 230.618 190.803 230.618 190.091C230.618 189.378 230.52 189.716 230.421 189.716C230.323 189.716 230.261 189.386 230.261 190.091Z" fill="#FFD037"/>
<path d="M229.276 190.941C229.901 191.282 230.444 191.488 230.491 191.403C230.539 191.319 230.072 190.969 229.448 190.629C228.823 190.288 229.068 190.536 229.02 190.629C228.972 190.721 228.652 190.6 229.276 190.941Z" fill="#FFD037"/>
<path d="M230.753 199.864C230.753 199.864 235.074 199.731 236.379 198.802C237.684 197.872 243.026 196.765 243.35 198.255C243.673 199.745 249.842 205.66 244.965 205.699C240.087 205.739 233.631 204.939 232.331 204.144C231.031 203.35 230.753 199.864 230.753 199.864Z" fill="#364954"/>
<path opacity="0.2" d="M245.049 205.181C240.171 205.22 233.712 204.42 232.413 203.626C231.425 203.023 231.029 200.858 230.899 199.858H230.753C230.753 199.858 231.034 203.347 232.328 204.139C233.622 204.93 240.084 205.733 244.962 205.693C246.368 205.693 246.855 205.181 246.83 204.437C246.63 204.891 246.095 205.172 245.049 205.181Z" fill="black"/>
<defs>
<linearGradient id="paint0_linear" x1="103.597" y1="220.285" x2="103.597" y2="27.3106" gradientUnits="userSpaceOnUse">
<stop stop-color="#808080" stop-opacity="0.25"/>
<stop offset="0.54" stop-color="#808080" stop-opacity="0.12"/>
<stop offset="1" stop-color="#808080" stop-opacity="0.1"/>
</linearGradient>
</defs>
</svg>
