<svg width="311" height="217" viewBox="0 0 311 217" fill="none" xmlns="http://www.w3.org/2000/svg">
<g clip-path="url(#clip0)">
<path opacity="0.1" d="M290.425 70.8654C287.564 64.217 283.698 58.0492 278.962 52.5785L119.92 51.0098L250.865 32.5961C242.406 29.2233 233.4 27.4343 224.296 27.3182C211.77 17.2938 196.346 11.5856 180.319 11.0427C164.292 10.4997 148.518 15.151 135.344 24.3046C124.816 18.8857 113.144 16.0697 101.306 16.092C65.9682 16.092 36.5211 40.5947 29.916 73.0904L290.425 70.8654Z" fill="#0098C9"/>
<path opacity="0.1" d="M296.017 98.117C296.024 89.3053 294.342 80.574 291.06 72.3976L15.4195 101.364C12.5771 106.511 10.4028 112.001 8.94945 117.7L94.3062 130.441L7 139.735C9.6274 176.52 41.1253 205.569 79.6023 205.569C98.9703 205.569 116.572 198.207 129.61 186.203C142.694 198.435 160.461 205.954 180.037 205.954C209.085 205.954 234.155 189.397 245.829 165.455C269.253 158.014 287.448 139.324 293.676 115.945L185.745 99.1704H296.017C296.011 98.8183 296.017 98.4691 296.017 98.117Z" fill="#0098C9"/>
<path d="M31.1493 36.9101C39.5565 36.9101 46.3719 30.0824 46.3719 21.6599C46.3719 13.2374 39.5565 6.40967 31.1493 6.40967C22.7421 6.40967 15.9268 13.2374 15.9268 21.6599C15.9268 30.0824 22.7421 36.9101 31.1493 36.9101Z" fill="#00B0FF"/>
<path d="M197.085 65.5836C195.686 61.9326 192.081 53.3512 189.707 55.0537C186.708 57.2056 192.707 66.712 192.707 66.712C192.877 68.4571 189.504 72.0884 187.697 73.8992C187.697 73.7548 187.697 73.6728 187.697 73.6728C187.68 73.7417 187.653 73.8079 187.618 73.8697L187.468 73.7876C187.427 73.9323 187.355 74.0659 187.255 74.178C187.255 73.932 187.239 73.7876 187.239 73.7876C186.891 75.2605 180.834 77.127 180.834 77.127C180.834 77.127 180.67 77.127 180.389 77.127C178.706 77.127 174.324 76.7465 172.294 73.4924C171.244 71.7296 169.901 70.1597 168.322 68.8508C167.782 68.4264 167.125 68.177 166.44 68.1357C160.831 67.7748 156.289 64.9308 155.382 64.3239L155.215 64.2091L155.179 64.3141C154.966 64.009 154.76 63.6842 154.567 63.3497L154.469 63.1692C155.826 62.4864 156.969 61.4403 157.769 60.1468C158.57 58.8533 158.997 57.3629 159.004 55.841C159.004 55.7852 159.004 55.7262 159.004 55.6704C159.497 54.816 159.757 53.8463 159.757 52.8592V51.8751L161.037 50.7335C161.623 50.212 162.229 49.6609 162.527 48.9425C162.646 48.6518 162.7 48.338 162.684 48.024C162.713 47.7549 162.672 47.483 162.567 47.2339C162.462 46.9848 162.294 46.7667 162.081 46.6003C161.099 45.9213 159.462 46.6003 158.751 45.6556C158.424 45.2292 158.483 44.6485 158.323 44.1466C157.995 43.1265 156.816 42.5754 155.726 42.559C154.636 42.5426 153.591 42.9395 152.543 43.238C150.342 43.8641 148.044 44.0798 145.765 43.8744C145.149 43.7645 144.516 43.7868 143.909 43.94C143.538 44.0936 143.208 44.3325 142.947 44.6374C142.685 44.9422 142.498 45.3045 142.403 45.695C142.322 45.9883 142.273 46.2898 142.258 46.5938C141.345 47.626 140.84 48.9571 140.837 50.3366V52.8592C140.839 54.2059 141.321 55.5076 142.196 56.5299C142.3 57.7168 142.66 58.8669 143.252 59.9002C143.844 60.9336 144.654 61.8252 145.625 62.5132C145.625 62.5788 145.625 62.6455 145.625 62.7133L145.667 62.7395C145.614 63.5216 145.494 64.2975 145.307 65.0587V64.8914C145.307 64.8914 140.723 67.3353 135.811 67.3943H135.271C134.302 67.3616 133.36 67.7156 132.651 68.3784C131.198 69.7496 128.65 71.9179 127.085 71.9179C126.758 71.9179 118.493 73.5351 117.124 73.8041L114.567 71.2946L114.488 71.4422L114.338 71.2946C114.058 71.3162 113.78 71.3568 113.506 71.416C112.196 69.8611 109.577 66.2462 108.971 61.3946C108.971 61.3946 114.626 54.9422 112.547 48.9294C110.772 43.8055 105.883 54.788 104.495 58.0979C104.252 58.6754 104.222 59.3206 104.41 59.9184L109.004 74.7521C108.566 75.9015 108.441 77.1466 108.64 78.3604H108.588L111.934 82.6609C111.934 82.6609 114.452 83.7369 118.392 83.7172C121.279 83.7219 124.14 83.1718 126.82 82.0967H127.596L127.448 82.1525H131.433L133.968 89.8317C133.883 90.5304 132.658 100.283 131.676 102.464C131.384 103.193 131.252 103.976 131.289 104.76C131.341 106.267 131.586 107.761 132.019 109.205L134.24 109.123L134.154 109.297C132.275 113.158 129.135 120.037 127.278 126.466L124.046 133.027L126.469 162.452H126.568L126.754 162.481C127.016 162.52 127.409 162.579 127.926 162.645L127.737 162.973L122.396 171.83C122.396 171.83 118.588 179.64 127.013 178.168C127.013 178.168 130.127 177.262 131.397 171.935L136.938 166.729C136.938 166.729 137.196 163.272 135.628 161.891C135.53 160.293 135.281 155.628 135.664 154.507C136.126 153.149 133.699 137.531 133.699 137.531C133.699 137.531 142.468 119.309 147.779 118.856C148.168 118.829 148.559 118.88 148.928 119.007C153.293 120.431 158.581 131.003 160.137 134.293L160.209 134.444V134.474L160.268 134.602V134.638L160.32 134.749V134.779L160.366 134.88V134.903L160.405 134.985V135.018L160.434 135.081V135.107L160.454 135.153V135.179V135.208L160.471 135.248L161.161 155.733L161.23 155.769H161.263L161.204 156.193L160.903 158.308C160.903 158.308 164.711 166.345 164.478 167.362C164.246 168.379 167.016 172.457 170.939 171.325C174.861 170.193 172.527 163.813 172.527 163.813L168.748 156.012L168.581 155.665C168.958 155.433 169.313 155.169 169.642 154.874C169.642 154.874 168.489 146.499 169.642 144.689C170.795 142.878 171.142 134.615 171.142 134.615C171.142 134.615 170.333 128.956 168.948 126.466L163.146 105.718C164.884 107.339 166.237 107.972 167.366 107.929H167.553C168.05 107.939 168.54 107.816 168.974 107.575C169.207 107.443 169.427 107.288 169.629 107.112C169.668 107.079 169.704 107.043 169.737 107.004V107.004C171.351 105.646 167.89 100.325 165.929 97.1632C164.04 94.1125 166.643 85.8232 166.839 85.2064C167.014 85.0779 167.202 84.968 167.399 84.8784C167.805 84.7041 168.241 84.6095 168.683 84.5996C170.562 84.6652 172.874 85.7477 175.736 86.2922C177.724 86.6312 179.74 86.7882 181.757 86.7613H181.875C182.677 86.7613 183.404 86.7449 183.994 86.722C184.531 86.7008 185.057 86.5584 185.533 86.3054V86.3054C185.94 86.0674 186.309 85.7688 186.626 85.4197L191.649 79.7349L191.518 79.7972C191.762 79.1525 191.762 78.4409 191.518 77.7962L196.826 68.6113C197.094 68.1587 197.256 67.6514 197.301 67.1271C197.346 66.6028 197.272 66.0752 197.085 65.5836V65.5836Z" fill="url(#paint0_linear)"/>
<path d="M137.451 165.952L132.104 171.085C130.879 176.334 127.87 177.223 127.87 177.223C119.74 178.673 123.414 170.99 123.414 170.99L128.571 162.248L129.206 161.169C129.206 161.169 132.883 160.054 135.333 160.723C135.642 160.808 135.927 160.963 136.168 161.175C137.703 162.511 137.451 165.952 137.451 165.952Z" fill="#444176"/>
<path d="M170.422 170.528C166.633 171.643 163.961 167.628 164.2 166.621C164.439 165.614 160.739 157.705 160.739 157.705L161.027 155.619L161.296 153.687L167.517 154.133L168.103 155.366L171.751 163.058C171.751 163.058 174.21 169.412 170.422 170.528Z" fill="#444176"/>
<path opacity="0.1" d="M136.227 162.048C135.641 163.055 130.89 162.547 128.575 162.232L129.21 161.152C129.21 161.152 132.888 160.037 135.337 160.706C135.646 160.791 135.932 160.946 136.172 161.159C136.204 161.704 136.227 162.048 136.227 162.048Z" fill="black"/>
<path opacity="0.1" d="M168.11 155.359C164.924 157.485 161.531 155.878 161.021 155.612L161.289 153.68L167.51 154.126L168.11 155.359Z" fill="black"/>
<path d="M168.974 144.193C167.86 145.978 168.974 154.238 168.974 154.238C165.296 157.587 160.955 155.13 160.955 155.13L160.3 134.933C160.3 134.933 153.06 118.305 147.936 118.751C142.811 119.197 134.347 137.164 134.347 137.164C134.347 137.164 136.685 152.561 136.24 153.893C135.794 155.225 136.24 161.704 136.24 161.704C135.46 163.042 127.33 161.704 127.33 161.704L124.992 132.689L128.096 126.214C129.881 119.876 132.913 113.093 134.727 109.287C135.627 107.395 136.23 106.24 136.23 106.24L142.156 105.003L161.393 101.008L168.306 126.214C169.642 128.668 170.421 134.247 170.421 134.247C170.421 134.247 170.087 142.409 168.974 144.193Z" fill="#565387"/>
<g opacity="0.1">
<path opacity="0.1" d="M162.736 155.13L162.081 134.933C162.081 134.933 154.842 118.305 149.717 118.751C149.488 118.773 149.263 118.824 149.046 118.902C154.043 120.565 160.3 134.933 160.3 134.933L160.955 155.13C162.321 155.827 163.861 156.109 165.385 155.94C164.461 155.829 163.564 155.554 162.736 155.13V155.13Z" fill="black"/>
<path opacity="0.1" d="M129.099 161.713L126.761 132.699L129.878 126.214C131.662 119.876 134.695 113.092 136.509 109.287C137.409 107.395 138.011 106.24 138.011 106.24L143.938 105.003L161.499 101.346L161.404 100.995L142.157 105.003L136.23 106.24C136.23 106.24 135.628 107.395 134.727 109.287C132.907 113.092 129.881 119.889 128.097 126.214L124.979 132.686L127.317 161.7C127.317 161.7 131.757 162.432 134.39 162.271C132.618 162.175 130.852 161.989 129.099 161.713V161.713Z" fill="black"/>
</g>
<path d="M115.553 71.8292C115.553 71.8292 109.204 72.1573 110.094 78.859L111.876 79.082L114.548 76.1822L115.884 73.7285V73.1709L115.553 71.8292Z" fill="#CED2DF"/>
<path opacity="0.1" d="M115.553 71.8292C115.553 71.8292 109.204 72.1573 110.094 78.859L111.876 79.082L114.548 76.1822L115.884 73.7285V73.1709L115.553 71.8292Z" fill="black"/>
<path d="M186.184 74.283C186.184 74.283 191.423 77.0712 190.083 80.3089L188.413 80.965L186.187 79.7381L185.859 76.8383L186.082 74.8308L186.184 74.283Z" fill="#CED2DF"/>
<path opacity="0.1" d="M186.184 74.283C186.184 74.283 191.423 77.0712 190.083 80.3089L188.413 80.965L186.187 79.7381L185.859 76.8383L186.082 74.8308L186.184 74.283Z" fill="black"/>
<path d="M152.547 45.4916H148.09C144.276 45.4916 141.185 48.589 141.185 52.4098C141.185 56.2306 144.276 59.328 148.09 59.328H152.547C156.361 59.328 159.452 56.2306 159.452 52.4098C159.452 48.589 156.361 45.4916 152.547 45.4916Z" fill="#88455E"/>
<path d="M115.51 72.7772L111.61 79.0099L111.283 77.9011L105.985 60.6072C105.804 60.0177 105.833 59.3834 106.067 58.8129C107.406 55.5523 112.127 44.7075 113.84 49.7756C115.844 55.6802 110.386 62.0506 110.386 62.0506C111.008 67.2204 113.905 70.9665 115.045 72.2655C115.333 72.6034 115.51 72.7772 115.51 72.7772Z" fill="#F7C4A7"/>
<path d="M185.35 75.454C185.35 75.454 191.476 69.6511 191.243 67.309C191.243 67.309 185.451 57.9371 188.349 55.8279C190.641 54.1483 194.122 62.6116 195.471 66.2101C195.649 66.6894 195.721 67.202 195.68 67.712C195.64 68.222 195.489 68.717 195.238 69.1624L187.917 82.1492L185.35 75.454Z" fill="#F7C4A7"/>
<path d="M145.693 59.2755C145.693 59.2755 146.806 66.4167 143.578 69.0967C140.349 71.7768 152.824 71.7604 152.824 71.7604L157.281 67.6304C157.281 67.6304 152.156 62.8313 153.715 59.2623L145.693 59.2755Z" fill="#F7C4A7"/>
<path opacity="0.1" d="M145.47 67.4206C145.47 67.4206 150.261 70.9929 155.048 66.9745L162.844 83.1563L162.399 102.907C162.399 102.907 146.247 111.275 139.564 106.145C132.881 101.014 138.45 98.3344 138.45 98.3344L136.892 83.1596L138.562 73.3383C138.562 73.3383 141.567 68.6507 141.793 68.6507C142.019 68.6507 145.47 67.4206 145.47 67.4206Z" fill="black"/>
<path d="M145.47 67.1975C145.47 67.1975 150.261 70.7763 155.051 66.7513L162.847 82.9332L162.402 102.684C162.402 102.684 146.249 111.052 139.566 105.922C132.883 100.791 138.453 98.1112 138.453 98.1112L136.895 82.9365L138.565 73.1152C138.565 73.1152 141.57 68.4276 141.796 68.4276C142.022 68.4276 145.47 67.1975 145.47 67.1975Z" fill="#EBF1F6"/>
<path opacity="0.1" d="M145.471 65.5278C145.471 65.5278 140.929 68.1193 135.998 67.9914C135.536 67.9769 135.075 68.0546 134.643 68.2202C134.21 68.3858 133.815 68.6358 133.48 68.9558C132.076 70.3073 129.616 72.446 128.094 72.446C127.766 72.446 118.29 74.3421 118.29 74.3421L115.786 71.8326C115.786 71.8326 112.053 79.1412 110.271 78.8066L113.503 83.048C113.503 83.048 119.63 85.7248 127.649 82.4904H132.328L134.777 90.0778C134.777 90.0778 133.552 100.345 132.55 102.576C131.548 104.806 132.878 109.159 132.878 109.159L141.676 108.831C141.676 108.831 142.121 104.478 142.789 103.911C143.457 103.343 140.451 84.1601 140.451 84.1601C140.451 84.1601 138.447 73.335 145.798 69.4314L145.471 65.5278Z" fill="black"/>
<path opacity="0.1" d="M142.154 105.016C141.83 106.34 141.599 107.685 141.463 109.041L134.728 109.297C135.628 107.404 136.23 106.25 136.23 106.25L142.154 105.016Z" fill="black"/>
<path opacity="0.1" d="M115.509 72.7772L111.61 79.0099L111.282 77.9011C112.713 76.4774 114.39 73.5022 115.058 72.2622C115.333 72.6034 115.509 72.7772 115.509 72.7772Z" fill="black"/>
<path d="M145.471 65.5278C145.471 65.5278 140.704 68.1193 135.776 67.9914C135.313 67.9769 134.852 68.0546 134.42 68.2202C133.988 68.3858 133.593 68.6358 133.258 68.9558C131.853 70.3073 129.394 72.446 127.871 72.446C127.544 72.446 118.068 74.3421 118.068 74.3421L115.553 71.8293C115.553 71.8293 111.82 79.1379 110.039 78.8033L113.271 83.0448C113.271 83.0448 119.397 85.7215 127.416 82.4871H132.095L134.544 90.0712C134.544 90.0712 133.32 100.339 132.318 102.569C131.316 104.8 132.645 109.153 132.645 109.153L141.444 108.825C141.444 108.825 141.889 104.472 142.557 103.904C143.225 103.337 140.219 84.1535 140.219 84.1535C140.219 84.1535 138.215 73.3284 145.566 69.4249L145.471 65.5278Z" fill="#CED2DF"/>
<path opacity="0.1" d="M155.051 64.8521C155.051 64.8521 159.596 68.3226 165.664 68.7228C166.327 68.7646 166.962 69.0109 167.481 69.4281C169.011 70.7286 170.308 72.2818 171.315 74.0206C173.764 78.039 179.779 77.5928 179.779 77.5928C179.779 77.5928 185.627 75.7526 185.961 74.3125C185.961 74.3125 186.128 82.1853 189.806 80.2827L184.969 85.8658C184.664 86.2185 184.291 86.5049 183.871 86.7074C183.452 86.91 182.995 87.0243 182.53 87.0434C180.713 87.1156 177.556 87.1386 174.891 86.6203C170.88 85.8396 167.985 83.9435 165.87 85.6165C165.87 85.6165 163.087 94.3192 164.979 97.4453C166.872 100.571 170.218 105.813 168.656 107.155C167.094 108.497 165.202 108.382 162.085 105.148C158.967 101.913 158.63 96.4449 158.63 96.4449L159.409 82.3854C159.409 82.3854 156.404 71.7834 153.516 69.6643L155.051 64.8521Z" fill="black"/>
<path opacity="0.1" d="M190.248 80.1415L185.399 85.7476C185.076 86.1195 184.678 86.4172 184.23 86.6202V86.6202C183.831 86.8002 183.402 86.9016 182.966 86.9187C181.148 86.9941 177.992 87.0171 175.327 86.4955C171.574 85.764 168.798 84.0583 166.722 85.2096C166.574 85.2908 166.434 85.3841 166.302 85.4885C166.302 85.4885 163.519 94.1912 165.412 97.3173C167.304 100.443 170.651 105.685 169.089 107.027C168.828 107.257 168.534 107.449 168.218 107.595C166.817 108.228 165.078 107.68 162.517 105.02C159.4 101.782 159.063 96.3168 159.063 96.3168L159.842 82.2574C159.842 82.2574 156.836 71.6553 153.948 69.5363L155.222 64.9602C156.1 65.5572 160.481 68.3619 165.896 68.7195C166.56 68.7612 167.195 69.0075 167.714 69.4247C169.244 70.7254 170.541 72.2786 171.548 74.0172C173.997 78.0356 180.012 77.5895 180.012 77.5895C181.454 77.1286 182.862 76.5674 184.226 75.9099V75.9099C185.081 75.49 185.834 75.0308 186.191 74.5978C186.291 74.4847 186.364 74.35 186.404 74.2042C186.404 74.2042 186.574 82.0376 190.248 80.1415Z" fill="black"/>
<path d="M190.024 80.2532L185.178 85.8658C184.912 86.1738 184.592 86.4316 184.235 86.6269V86.6269C183.778 86.8758 183.269 87.0161 182.749 87.0369C180.931 87.1123 177.775 87.1353 175.11 86.6137C171.491 85.9085 168.777 84.2945 166.73 85.2163C166.497 85.3183 166.277 85.4494 166.076 85.6067C166.076 85.6067 163.292 94.3094 165.185 97.4355C167.078 100.562 170.424 105.804 168.862 107.145C168.66 107.319 168.441 107.472 168.207 107.601C166.766 108.398 164.985 107.929 162.284 105.138C159.167 101.9 158.829 96.435 158.829 96.435L159.609 82.3755C159.609 82.3755 156.603 71.7735 153.715 69.6545L155.051 64.8553L155.211 64.9669C156.089 65.5639 160.47 68.3686 165.886 68.7261C166.55 68.7679 167.184 69.0142 167.703 69.4314C169.233 70.7321 170.53 72.2853 171.537 74.0238C173.986 78.0422 180.002 77.5961 180.002 77.5961C181.444 77.1353 182.852 76.5741 184.216 75.9166V75.9166C185.227 75.3983 186.053 74.8308 186.18 74.3125C186.18 74.3125 186.18 74.4142 186.18 74.5946C186.278 75.9494 186.77 81.9294 190.024 80.2532Z" fill="#CED2DF"/>
<path opacity="0.1" d="M153.814 59.4427H145.628C145.808 60.7466 145.86 62.0651 145.782 63.3791C147.031 64.2601 148.497 64.7835 150.021 64.8933C151.545 65.0031 153.07 64.6951 154.433 64.0024C153.647 62.5459 153.169 60.8926 153.814 59.4427Z" fill="black"/>
<path d="M150.595 64.7405C155.085 64.7405 158.725 61.0939 158.725 56.5955C158.725 52.0971 155.085 48.4504 150.595 48.4504C146.105 48.4504 142.465 52.0971 142.465 56.5955C142.465 61.0939 146.105 64.7405 150.595 64.7405Z" fill="#F7C4A7"/>
<path opacity="0.1" d="M148.906 55.1455C149.813 55.0372 150.72 54.7157 151.614 54.8961C152.426 55.0602 153.117 55.6211 153.929 55.7917C155.494 56.1197 156.948 54.965 158.13 53.8891L160.684 51.5601C161.25 51.0451 161.833 50.5038 162.124 49.7952C162.416 49.0867 162.314 48.1551 161.692 47.709C160.759 47.0529 159.151 47.709 158.477 46.7773C158.172 46.3575 158.218 45.7932 158.061 45.2914C157.734 44.2876 156.607 43.7398 155.553 43.7266C154.498 43.7135 153.49 44.1006 152.481 44.3827C150.357 45.0001 148.136 45.2127 145.933 45.0093C145.338 44.9002 144.727 44.9215 144.142 45.0716C143.781 45.2257 143.462 45.4624 143.209 45.7627C142.957 46.0629 142.778 46.4183 142.688 46.8003C142.184 48.5848 143.045 51.4616 143.909 53.0592C144.774 54.6567 147.18 55.3587 148.906 55.1455Z" fill="black"/>
<path d="M148.906 54.9225C149.813 54.8143 150.72 54.4928 151.614 54.6732C152.426 54.8373 153.117 55.3982 153.929 55.5688C155.494 55.8968 156.948 54.7421 158.13 53.6662L160.684 51.3371C161.25 50.8221 161.833 50.2809 162.124 49.5723C162.416 48.8638 162.314 47.9322 161.692 47.4861C160.759 46.83 159.151 47.4861 158.477 46.5544C158.172 46.1346 158.218 45.5703 158.061 45.0685C157.734 44.0647 156.607 43.5169 155.553 43.5037C154.498 43.4906 153.49 43.8777 152.481 44.1598C150.357 44.7772 148.136 44.9897 145.933 44.7863C145.338 44.6773 144.727 44.6986 144.142 44.8487C143.781 45.0028 143.462 45.2395 143.209 45.5398C142.957 45.84 142.778 46.1954 142.688 46.5774C142.184 48.3619 143.045 51.2387 143.909 52.8363C144.774 54.4338 147.18 55.1194 148.906 54.9225Z" fill="#88455E"/>
<path opacity="0.1" d="M134.724 90.1301C134.724 90.1301 136.505 90.3532 137.396 91.4685C138.286 92.5838 139.845 92.9184 139.845 92.9184" fill="black"/>
<path opacity="0.1" d="M118.683 75.3982C118.683 75.3982 120.136 78.649 119.239 78.977C118.342 79.3051 118.683 81.6538 118.683 81.6538" fill="black"/>
<g opacity="0.1">
<path opacity="0.1" d="M119.185 74.283C119.185 74.283 128.651 72.387 128.978 72.387C130.504 72.387 132.96 70.2482 134.365 68.8967C134.792 68.4867 135.317 68.1941 135.89 68.0471H135.769C135.307 68.0326 134.846 68.1104 134.414 68.276C133.981 68.4415 133.586 68.6916 133.251 69.0115C131.847 70.363 129.387 72.5018 127.865 72.5018C127.6 72.5018 121.542 73.7057 119.083 74.1944L119.185 74.283Z" fill="black"/>
<path opacity="0.1" d="M145.485 65.9969V65.5803C143.207 66.7436 140.757 67.529 138.229 67.9061C140.737 67.6824 143.19 67.037 145.485 65.9969V65.9969Z" fill="black"/>
<path opacity="0.1" d="M133.778 109.097C133.778 109.097 132.442 104.744 133.451 102.514C134.459 100.283 135.678 90.0155 135.678 90.0155L133.235 82.4281H128.543L128.258 82.5396H132.105L134.545 90.1303C134.545 90.1303 133.32 100.398 132.318 102.628C131.316 104.859 132.645 109.212 132.645 109.212L141.444 108.884V108.815L133.778 109.097Z" fill="black"/>
</g>
<g opacity="0.1">
<path opacity="0.1" d="M168.974 105.361C168.772 105.535 168.553 105.688 168.319 105.817C166.879 106.614 165.097 106.145 162.396 103.353C159.92 100.785 159.2 96.7926 159.007 95.2804L158.941 96.4351C158.941 96.4351 159.269 101.903 162.396 105.138C165.097 107.939 166.879 108.398 168.319 107.601C168.553 107.472 168.772 107.32 168.974 107.145C169.442 106.742 169.469 105.984 169.223 105.039C169.162 105.162 169.078 105.271 168.974 105.361V105.361Z" fill="black"/>
<path opacity="0.1" d="M188.451 80.4205L185.297 84.0715C185.031 84.3795 184.712 84.6373 184.354 84.8325V84.8325C183.897 85.0815 183.388 85.2218 182.868 85.2426C181.051 85.318 177.894 85.341 175.229 84.8194C171.611 84.1141 168.896 82.5002 166.85 83.422C166.616 83.524 166.396 83.6551 166.195 83.8124C166.195 83.8124 164.397 89.4348 164.672 93.263C164.885 89.6841 166.195 85.5968 166.195 85.5968C166.396 85.4396 166.616 85.3085 166.85 85.2065C168.899 84.2847 171.611 85.8986 175.229 86.6039C177.894 87.1222 181.047 87.0992 182.868 87.0271C183.388 87.0063 183.897 86.866 184.354 86.617C184.711 86.4247 185.03 86.1703 185.297 85.8658L190.147 80.2598C189.896 80.4163 189.612 80.5123 189.318 80.5402C189.023 80.5681 188.727 80.5271 188.451 80.4205V80.4205Z" fill="black"/>
</g>
<path d="M46.0508 120.601C46.0897 120.639 46.1396 120.663 46.1933 120.67C46.2469 120.677 46.3014 120.667 46.3488 120.641C46.248 120.642 46.1476 120.629 46.0508 120.601V120.601Z" fill="url(#paint1_linear)"/>
<path d="M79.4198 66.2625C78.8304 66.0919 77.9889 65.8131 76.9771 65.4588C78.0286 64.1037 78.7979 62.551 79.2397 60.8926L79.1546 60.9254C79.1841 60.8237 79.2135 60.7253 79.2397 60.6204C77.298 61.4109 75.15 60.0725 73.7813 58.3536C72.4127 56.6348 71.4893 54.5026 69.9896 52.9214C69.3647 52.2924 68.6925 51.7123 67.9791 51.1861C67.5371 50.8581 67.0623 50.4874 66.5221 50.471C65.6478 50.4448 64.9634 51.3042 64.1219 51.5568C63.5682 51.6817 62.9917 51.6602 62.4487 51.4945C60.2778 50.9959 58.192 50.0741 55.9753 49.8314C54.7893 49.6846 53.5855 49.8206 52.4619 50.2283C51.3486 50.6514 50.8411 51.4945 49.9406 52.1702C48.9583 52.8952 47.0395 52.8788 45.8968 53.0067C44.5101 53.1654 43.1137 53.2235 41.7187 53.1806C40.917 53.1109 40.1097 53.1407 39.3153 53.2691C37.6552 53.6333 36.3225 54.9552 35.0782 56.2214C34.7386 56.5079 34.4942 56.8912 34.3775 57.3203C34.3616 57.4412 34.3616 57.5636 34.3775 57.6845C34.365 58.0152 34.4219 58.3449 34.5445 58.6522C34.9275 59.7908 35.4688 60.8697 36.1522 61.857C36.6598 62.5853 37.2524 63.2709 37.5406 64.1336C37.6772 64.5577 37.7489 65.0001 37.7534 65.4457C37.7393 65.9189 37.69 66.3904 37.6061 66.8562C37.3863 68.1442 37.0251 69.4039 36.5288 70.6122C36.2207 71.2325 36.0087 71.8962 35.9001 72.5804C35.8907 72.7202 35.8907 72.8605 35.9001 73.0003C35.8183 75.1653 37.999 76.7235 38.4214 78.8754C38.4561 79.0539 38.4769 79.2348 38.4836 79.4166C38.4378 80.7583 37.6748 82.0704 36.5484 82.592C36.6467 82.6313 36.7482 82.6641 36.8497 82.6969C36.7528 82.7579 36.6522 82.8127 36.5484 82.8609C36.7547 82.9397 36.9643 83.0086 37.1771 83.0643C35.897 84.1813 34.8211 85.5134 33.9977 87.0007C30.2092 94.0665 4.55125 107.906 4.55125 107.906L4.93108 108.123L4.62329 108.323C2.40326 109.802 -2.80626 114.116 1.90228 119.571C1.90228 119.571 5.5794 113.758 8.15634 111.282C8.27094 111.17 8.38554 111.068 8.48377 110.973C8.54039 111.061 8.57835 111.159 8.59525 111.262C8.61216 111.364 8.60765 111.469 8.58201 111.57L25.4516 102.074C25.4516 102.074 31.447 97.8684 33.1202 96.9204C34.2978 96.1854 35.5794 95.6324 36.9217 95.2803L36.7252 95.3623C37.356 95.1885 38.0063 95.0958 38.6604 95.0867C41.6466 95.1326 44.8817 97.3239 45.9459 106C47.3735 117.619 46.7121 119.715 46.2537 120.001C46.1972 119.997 46.1412 119.987 46.0867 119.971C46.1008 119.984 46.1162 119.995 46.1325 120.004C46.0704 120 46.0089 119.989 45.9492 119.971C45.9821 120.002 46.0223 120.023 46.0659 120.033C46.1095 120.044 46.155 120.043 46.198 120.03C46.229 120.04 46.2616 120.043 46.2938 120.039C46.3259 120.035 46.3569 120.024 46.3847 120.007C46.4599 120.012 46.5353 120.012 46.6106 120.007C46.6106 120.114 46.6029 120.224 46.5877 120.335C46.5647 120.335 46.4534 120.398 46.5877 120.404C46.5516 121.06 46.5549 121.772 46.5877 122.517C45.1044 122.599 43.6211 122.687 42.331 122.766L42.4456 122.153L42.498 121.877C43.6375 121.785 44.718 121.451 44.8457 120.526C45.124 118.492 42.3375 117.406 39.9669 117.272C37.5962 117.137 23.3789 118.085 23.3789 118.085C23.3789 118.085 21.2473 120.85 28.0089 121.693C28.2097 121.798 28.4182 121.908 28.6343 122.021C31.2832 123.534 34.8752 126.319 36.5975 127.69L36.8366 127.88L36.0638 128.51C40.2452 129.458 44.2891 145.466 46.5189 152.784C48.7488 160.103 53.6276 159.837 57.6714 158.751C61.4599 157.734 61.9281 146.712 61.9903 145.328V145.187L68.729 153.526L69.2398 154.159C69.4362 154.262 69.6305 154.358 69.8226 154.447C74.9241 156.878 80.5593 152.217 78.9581 146.903C77.3373 141.546 74.8226 133.624 73.1461 130.275C71.7414 127.47 69.9274 122.812 68.8272 119.896C68.9701 119.838 69.109 119.772 69.2431 119.696C69.2431 119.696 69.2169 119.564 69.1743 119.325L69.2431 119.289C69.2431 119.289 67.6059 110.852 67.5338 104.856C67.5338 104.751 67.5338 104.641 67.5338 104.527C67.5338 104.462 67.5338 104.396 67.5338 104.334C68.7519 104.055 69.5247 103.947 69.5247 103.947L69.5476 103.684L69.4068 103.714L70.0846 95.9429C70.0846 95.9429 72.5731 90.6386 70.6674 88.4309C70.0881 87.7853 69.7012 86.9897 69.5509 86.1347C69.2234 84.1042 69.5508 80.7156 73.9876 77.9011C80.818 73.5612 83.4833 70.0283 83.4833 70.0283C83.4833 70.0283 83.6012 67.4959 79.4198 66.2625ZM65.8541 71.6554V68.0634C67.1213 68.0011 68.4146 68.1487 69.6884 68.0634C70.3136 68.0196 70.9332 67.9153 71.5384 67.7518L71.8462 67.965C69.9827 69.401 67.9744 70.6378 65.8541 71.6554V71.6554ZM46.4862 127.959C46.9871 128.307 47.4914 128.667 47.9858 129.032C48.2936 130.803 48.5654 132.053 48.585 132.141C48.02 130.683 47.3171 129.283 46.4862 127.959V127.959Z" fill="url(#paint2_linear)"/>
<path d="M57.311 125.007L57.0163 126.611L56.7904 127.838L56.3778 130.081L52.3765 132.886C52.3765 132.886 52.0164 132.578 51.4204 132.089C49.7832 130.737 46.3353 127.995 43.8042 126.512C43.1538 126.096 42.4499 125.771 41.7119 125.545L57.311 125.007Z" fill="#F7C4A7"/>
<path opacity="0.1" d="M57.311 125.007L57.0163 126.611L56.7904 127.838L56.3778 130.081L52.3765 132.886C52.3765 132.886 52.0164 132.578 51.4204 132.089C49.7832 130.737 46.3353 127.995 43.8042 126.512C43.1538 126.096 42.4499 125.771 41.7119 125.545L57.311 125.007Z" fill="black"/>
<path opacity="0.1" d="M57.3114 125.007L57.0167 126.611C56.1347 126.66 55.25 126.615 54.3775 126.476L45.0423 126.611C44.6003 126.584 44.1877 126.548 43.8013 126.509C43.1509 126.093 42.447 125.767 41.709 125.541L57.3114 125.007Z" fill="black"/>
<path d="M54.377 126.214C54.377 126.214 59.0463 127.014 59.3115 125.01C59.5767 123.006 56.9114 121.949 54.6488 121.798C52.3862 121.647 38.7746 122.605 38.7746 122.605C38.7746 122.605 36.3745 125.81 45.0418 126.345L54.377 126.214Z" fill="#7679B4"/>
<path opacity="0.1" d="M57.3114 125.007L57.0167 126.611C56.1347 126.66 55.25 126.615 54.3775 126.476L45.0423 126.611C44.6003 126.584 44.1877 126.548 43.8013 126.509C43.1509 126.093 42.447 125.767 41.709 125.541L57.3114 125.007Z" fill="black"/>
<path opacity="0.1" d="M54.377 126.214C54.377 126.214 59.0463 127.014 59.3115 125.01C59.5767 123.006 56.9114 121.949 54.6488 121.798C52.3862 121.647 38.7746 122.605 38.7746 122.605C38.7746 122.605 36.3745 125.81 45.0418 126.345L54.377 126.214Z" fill="black"/>
<path d="M64.5768 60.3416H40.1729V89.3331H64.5768V60.3416Z" fill="#A66477"/>
<path opacity="0.1" d="M64.5768 60.3416H40.1729V89.3331H64.5768V60.3416Z" fill="black"/>
<path d="M11.5683 109.976C11.1656 110.078 10.6548 110.465 10.0818 111.029C7.61617 113.47 4.09949 119.194 4.09949 119.194C-0.406048 113.821 4.58082 109.573 6.71899 108.113C7.23634 107.759 7.58342 107.568 7.58342 107.568L11.5683 109.976Z" fill="#F7C4A7"/>
<path d="M57.0464 69.4937C57.0464 69.4937 58.2481 77.911 62.3804 79.9152C66.5126 81.9195 57.0464 85.6591 57.0464 85.6591L44.1094 80.8501C44.1094 80.8501 51.444 78.4457 49.9771 71.3634L57.0464 69.4937Z" fill="#F7C4A7"/>
<path d="M43.189 120.129L42.8943 121.733L42.6683 122.96L42.2558 125.203L38.2545 128.008C38.2545 128.008 37.8943 127.7 37.2984 127.211C35.6612 125.86 32.2133 123.117 29.6822 121.634C29.0317 121.218 28.3278 120.893 27.5898 120.667L43.189 120.129Z" fill="#F7C4A7"/>
<path opacity="0.1" d="M43.1893 120.129L42.8946 121.733C42.0126 121.782 41.1279 121.737 40.2555 121.598L30.9202 121.733C30.4782 121.707 30.0656 121.671 29.6792 121.631C29.0288 121.215 28.3249 120.89 27.5869 120.663L43.1893 120.129Z" fill="black"/>
<path d="M40.2416 121.333C40.2416 121.333 44.9109 122.133 45.1761 120.129C45.4413 118.125 42.776 117.055 40.5069 116.924C38.2377 116.793 24.636 117.724 24.636 117.724C24.636 117.724 22.2359 120.929 30.9031 121.464L40.2416 121.333Z" fill="#7679B4"/>
<path opacity="0.1" d="M42.6551 122.963L42.2426 125.207L38.2413 128.011C38.2413 128.011 37.8811 127.703 37.2852 127.214L42.5765 122.868L42.6551 122.963Z" fill="black"/>
<path d="M69.0562 153.549C68.8728 153.459 68.6873 153.364 68.4995 153.263L68.0117 152.64L61.5677 144.439V144.584C61.5251 145.945 61.0602 156.803 57.4387 157.803C53.5717 158.873 48.9024 159.138 46.7708 151.925C44.6392 144.711 40.7689 128.946 36.7676 128.011L42.7007 123.133C42.7007 123.133 46.63 127.726 48.2344 132.148C48.1755 131.866 45.461 119.168 47.7007 116.924H67.1701C67.1701 116.924 70.1695 125.499 72.2389 129.75C73.8433 133.05 76.25 140.851 77.8053 146.129C79.3443 151.351 73.9677 155.943 69.0562 153.549Z" fill="#7679B4"/>
<path opacity="0.1" d="M68.5126 119.325C65.51 121.106 52.3077 120.381 48.0052 120.093L46.8363 120.007C46.7086 120.007 46.8559 119.935 46.8559 119.935L46.9771 118.721L50.1761 110.573L67.3142 100.627C66.9671 101.674 66.8492 103.278 66.8787 105.118C66.9638 111.016 68.5126 119.325 68.5126 119.325Z" fill="black"/>
<path d="M68.5131 118.928C65.5105 120.709 52.3082 119.984 48.0057 119.696L46.8368 119.61H46.6436L46.8564 119.555L47.9107 119.276L50.1766 110.189L67.3147 100.237C66.9676 101.283 66.8497 102.887 66.8792 104.728C66.9643 110.616 68.5131 118.928 68.5131 118.928Z" fill="#F2F1F2"/>
<path opacity="0.1" d="M66.879 104.715C63.3951 105.518 55.7265 107.883 52.7796 113.571C50.8149 117.37 49.1777 119 48.0088 119.683L46.8398 119.597L46.8595 119.525L47.9138 119.246L50.1797 110.16L67.3178 100.207C66.9641 101.283 66.8495 102.874 66.879 104.715Z" fill="black"/>
<path opacity="0.1" d="M7.56756 107.572L11.5688 109.976C11.1661 110.078 10.6553 110.465 10.0823 111.029C9.75484 110.045 7.65269 108.694 6.70312 108.116C7.22048 107.762 7.56756 107.572 7.56756 107.572Z" fill="black"/>
<path opacity="0.1" d="M46.1361 119.765C46.0915 119.79 46.04 119.799 45.9894 119.793C45.9387 119.786 45.8914 119.764 45.8545 119.729C45.9461 119.754 46.041 119.767 46.1361 119.765V119.765Z" fill="black"/>
<path d="M55.1767 79.3806C55.1767 79.3806 51.5749 79.7808 49.0405 77.1106C49.0405 77.1106 38.3726 80.1842 34.7708 87.132C31.169 94.0797 6.63086 107.706 6.63086 107.706C6.63086 107.706 10.8875 110.111 10.4979 111.315L26.634 101.962C26.634 101.962 32.3674 97.8193 33.9686 96.8844C35.5698 95.9495 44.3713 90.2056 46.2377 105.836C48.1041 121.467 46.2377 119.614 46.2377 119.614C46.2377 119.614 48.9063 120.549 52.7864 113.053C56.6666 105.558 68.6573 103.835 68.6573 103.835L69.3122 95.9626C69.3122 95.9626 71.6927 90.7403 69.8688 88.5622C69.3127 87.9213 68.9433 87.1393 68.8014 86.302C68.4969 84.3011 68.8014 80.965 73.0581 78.1931C79.6068 73.9287 82.1281 70.445 82.1281 70.445C82.1281 70.445 82.2623 67.906 78.2611 66.7054C74.2598 65.5048 57.9894 58.9573 57.9894 58.9573L57.4557 61.2273L70.2585 70.3138C70.2585 70.3138 63.8571 75.5229 58.7982 75.3917C58.7785 75.3687 59.7117 79.2461 55.1767 79.3806Z" fill="#565388"/>
<path opacity="0.1" d="M57.6482 73.1578C57.3329 72.0812 57.0868 70.9855 56.9115 69.8774L49.8421 71.7603C50.1516 73.1118 50.0962 74.5214 49.6816 75.8444C51.1264 76.2305 52.6528 76.1813 54.0698 75.7028C55.4868 75.2244 56.7315 74.338 57.6482 73.1545V73.1578Z" fill="black"/>
<path d="M51.7779 75.7066C55.977 75.7066 59.381 72.2964 59.381 68.0897C59.381 63.883 55.977 60.4728 51.7779 60.4728C47.5788 60.4728 44.1748 63.883 44.1748 68.0897C44.1748 72.2964 47.5788 75.7066 51.7779 75.7066Z" fill="#F7C4A7"/>
<path opacity="0.1" d="M55.8189 50.7664C57.9276 51.0058 59.9348 51.9145 62.0107 52.4065C62.5294 52.5695 63.0821 52.591 63.6119 52.4689C64.4174 52.2196 65.0722 51.3732 65.9039 51.3995C66.418 51.3995 66.8862 51.7669 67.2988 52.1047C67.9823 52.6242 68.6249 53.1956 69.2209 53.8138C70.6518 55.3719 71.5424 57.4714 72.8489 59.164C74.1554 60.8567 76.2149 62.1753 78.0715 61.3979C76.8109 66.3184 72.6721 70.0809 68.1993 70.386C66.4147 70.5074 64.5975 70.1367 62.8588 70.6615C62.4279 70.8375 61.9732 70.9481 61.5097 70.9896C60.5274 70.9896 59.7154 70.0744 59.0932 69.1854C57.6394 67.0925 56.4737 64.7176 54.8365 62.8117C54.2963 62.1819 53.6578 61.5816 52.8948 61.4668C52.1319 61.352 51.4279 61.7161 50.7468 62.0704C49.6237 62.6543 48.4744 63.2578 47.6035 64.2551C46.7325 65.2523 46.1824 66.7448 46.5426 68.0963C46.7357 68.8246 47.1811 69.4806 47.1974 70.2449C47.1974 71.4587 46.1431 72.3476 45.9302 73.5253C45.8834 74.0224 45.8659 74.5219 45.8779 75.0211C45.7829 76.6416 44.7286 77.9734 43.6218 78.987C43.1929 79.3839 42.7148 79.8071 42.5904 80.4205C42.5053 80.8371 42.5904 81.28 42.5347 81.7031C42.3743 82.7561 41.3265 83.2875 40.3998 83.4253C39.3176 83.5842 38.2126 83.4529 37.1975 83.0448C38.5072 82.4313 39.2898 80.6829 38.9886 79.1084C38.576 76.9401 36.4018 75.3852 36.5852 73.1743C36.6877 72.4972 36.8908 71.8393 37.1877 71.2225C37.6622 70.0297 38.0069 68.7891 38.2158 67.5223C38.43 66.5472 38.4087 65.5351 38.1536 64.57C37.8753 63.7204 37.3088 63.0446 36.8242 62.3262C36.1679 61.3496 35.65 60.2865 35.2853 59.1673C35.1531 58.8365 35.1025 58.4787 35.1379 58.1241C35.2435 57.7059 35.4716 57.3289 35.7928 57.0416C36.9847 55.7918 38.2617 54.4895 39.8465 54.1287C40.6037 54.0023 41.3738 53.9726 42.1385 54.0401C43.4736 54.0827 44.8099 54.0257 46.1365 53.8696C47.2302 53.7416 49.0835 53.758 50.0068 53.0429C50.868 52.3869 51.3559 51.5504 52.4201 51.1305C53.5061 50.7321 54.6733 50.6071 55.8189 50.7664V50.7664Z" fill="black"/>
<path opacity="0.1" d="M60.0459 129.415C60.0459 129.415 64.4466 138.098 63.114 140.772Z" fill="black"/>
<path opacity="0.1" d="M68.0247 152.64L61.5807 144.439V144.584C61.5807 144.584 61.2074 141.933 62.4353 142.825C65.1236 144.774 69.4261 147.969 69.5178 148.52C69.6095 149.071 68.6468 151.282 68.0247 152.64Z" fill="black"/>
<g opacity="0.1">
<path opacity="0.1" d="M58.9052 75.3687C58.9052 75.3687 59.4488 77.6256 57.6904 78.754C60.3983 78.2882 60.5162 76.179 60.4343 75.2605C59.9289 75.3425 59.4171 75.3787 58.9052 75.3687V75.3687Z" fill="black"/>
<path opacity="0.1" d="M8.23484 107.171C8.23484 107.171 32.773 93.545 36.3748 86.5972C38.9583 81.6111 45.1829 78.6228 48.49 77.3303C46.0768 78.1406 37.9563 81.247 34.9046 87.1319C31.3028 94.0796 6.76465 107.706 6.76465 107.706L8.23484 107.171Z" fill="black"/>
<path opacity="0.1" d="M63.6796 74.3092C67.8544 72.9971 71.8459 69.7594 71.8459 69.7594L59.0431 60.6729L59.3345 59.4264L58.1099 58.9343L57.5762 61.2043L70.379 70.2908C68.3245 71.9087 66.0734 73.259 63.6796 74.3092V74.3092Z" fill="black"/>
<path opacity="0.1" d="M63.7617 105.098C65.3976 104.539 67.0764 104.114 68.7813 103.829L68.8043 103.57C67.0865 103.948 65.4005 104.459 63.7617 105.098V105.098Z" fill="black"/>
<path opacity="0.1" d="M48.2447 119.096H48.1268C48.0821 119.12 48.0307 119.13 47.9801 119.124C47.9294 119.117 47.8821 119.095 47.8452 119.059C47.9368 119.085 48.0317 119.097 48.1268 119.096C48.5655 118.84 49.2237 116.845 47.8452 105.298C46.3717 92.971 40.5892 93.9387 37.4229 95.3558C40.6579 94.4636 45.1111 95.2344 46.3783 105.833C47.7568 117.38 47.0986 119.378 46.6599 119.63C47.2286 119.609 47.779 119.423 48.2447 119.096Z" fill="black"/>
<path opacity="0.1" d="M46.6595 119.634C46.5644 119.635 46.4696 119.623 46.3779 119.597C46.4149 119.633 46.4621 119.655 46.5128 119.662C46.5635 119.668 46.6149 119.658 46.6595 119.634V119.634Z" fill="black"/>
</g>
<path d="M55.8189 50.5071C57.9276 50.7466 59.9348 51.6552 62.0107 52.1473C62.5294 52.3102 63.0821 52.3317 63.6119 52.2096C64.4174 51.9603 65.0722 51.114 65.9039 51.1402C66.418 51.1402 66.8862 51.5076 67.2988 51.8455C67.9823 52.365 68.6249 52.9363 69.2209 53.5545C70.6518 55.1127 71.5424 57.2121 72.8489 58.9047C74.1554 60.5974 76.2149 61.9161 78.0715 61.1386C76.8109 66.0591 72.6721 69.8216 68.1993 70.1267C66.4147 70.2481 64.5975 69.8774 62.8588 70.4023C62.4279 70.5782 61.9732 70.6888 61.5097 70.7303C60.5274 70.7303 59.7154 69.8151 59.0932 68.9261C57.6394 66.8333 56.4737 64.4583 54.8365 62.5524C54.2963 61.9226 53.6578 61.3223 52.8948 61.2075C52.1319 61.0927 51.4279 61.4568 50.7468 61.8111C49.6237 62.395 48.4744 62.9986 47.6035 63.9958C46.7325 64.993 46.1824 66.4856 46.5426 67.8371C46.7357 68.5653 47.1811 69.2213 47.1974 69.9857C47.1974 71.1994 46.1431 72.0883 45.9302 73.266C45.8834 73.7631 45.8659 74.2626 45.8779 74.7618C45.7829 76.3823 44.7286 77.7141 43.6218 78.7277C43.1929 79.1246 42.7148 79.5478 42.5904 80.1612C42.5053 80.5778 42.5904 81.0207 42.5347 81.4438C42.3743 82.4968 41.3265 83.0282 40.3998 83.166C39.3176 83.3249 38.2126 83.1936 37.1975 82.7855C38.5072 82.1721 39.2898 80.4236 38.9886 78.8491C38.576 76.6808 36.4018 75.1259 36.5852 72.915C36.6877 72.2379 36.8908 71.5801 37.1877 70.9632C37.6622 69.7704 38.0069 68.5298 38.2158 67.263C38.43 66.288 38.4087 65.2758 38.1536 64.3107C37.8753 63.4611 37.3088 62.7854 36.8242 62.067C36.1679 61.0903 35.65 60.0272 35.2853 58.908C35.1531 58.5772 35.1025 58.2194 35.1379 57.8649C35.2435 57.4467 35.4716 57.0696 35.7928 56.7824C36.9847 55.5326 38.2617 54.2303 39.8465 53.8694C40.6037 53.7431 41.3738 53.7133 42.1385 53.7809C43.4736 53.8234 44.8099 53.7664 46.1365 53.6103C47.2302 53.4824 49.0835 53.4987 50.0068 52.7836C50.868 52.1276 51.3559 51.2911 52.4201 50.8712C53.5061 50.4729 54.6733 50.3478 55.8189 50.5071V50.5071Z" fill="#A66477"/>
<path d="M272.919 33.4101C272.919 33.3675 272.919 33.3281 272.919 33.2888C272.919 33.2494 272.919 33.2035 272.9 33.1641H272.847C272.847 33.0755 272.847 32.987 272.847 32.8918C272.716 29.851 268.518 23.3789 266.835 25.2684C265.362 26.9282 267.585 31.127 268.718 33.0165L268.82 33.1871L268.764 33.151C268.764 33.151 264.078 47.1514 263.525 47.6959C262.972 48.2405 259.114 59.2492 254.029 60.4892C253.024 60.7287 252.189 60.9452 251.488 61.1453L251.544 60.9583C251.872 59.8856 252.274 58.872 252.438 57.678C252.602 56.4839 252.438 55.0373 251.836 54.4567C251.541 54.168 251.181 54.1287 250.938 53.6694C250.781 53.2666 250.697 52.8389 250.69 52.4065L250.257 47.0989L250.559 47.0071C252.379 46.4232 254.144 45.0389 254.35 43.1757C254.287 43.1998 254.222 43.2206 254.157 43.238C254.181 43.1296 254.2 43.0202 254.213 42.9099C252.684 43.5135 251.266 41.9259 249.792 41.214C247.366 40.0233 244.593 41.1451 242.088 41.4174C239.249 41.729 236.554 40.5481 233.653 40.7613C232.075 40.8827 230.32 41.9554 230.405 43.5135C230.454 44.3697 231.06 45.0946 231.309 45.9147C231.937 47.8993 230.539 49.8905 229.314 51.5831C228.509 52.6951 227.736 54.0499 227.599 55.3555C224.779 52.4032 221.731 48.9917 221.377 47.7091L213.221 33.7086C213.221 33.7086 213.028 33.9153 212.717 34.2204C212.667 34.0695 212.609 33.8923 212.543 33.7152C211.502 30.7924 208.555 23.7102 204.819 25.0092C201.083 26.3082 206.368 33.5676 208.666 36.4608L208.994 36.861C208.801 36.9085 208.599 36.8994 208.411 36.8348L217.507 52.4655C217.507 52.4655 219.161 55.4572 220.677 56.2707C220.677 56.2707 231.976 70.5434 232.114 73.3973C232.252 76.2512 237.196 83.8648 237.196 83.8648C237.196 83.8648 238.849 96.2349 235.955 98.4097H235.991H236.014H236.05H236.083H236.148H236.191H236.233H236.289H236.335H236.4H236.433C236.295 98.5442 236.155 98.6919 236.01 98.8526C233.866 101.234 231.125 106.338 234.871 115.018C240.382 127.811 241.21 132.824 241.21 132.824C241.21 132.824 230.732 133.368 228.669 133.775C226.842 134.136 219.74 134.388 218.116 134.431C217.536 133.755 215.824 132.259 213.512 134.431C210.618 137.15 208.552 146.24 208.552 146.24C208.552 146.24 207.448 153.582 211.171 151.676C211.171 151.676 215.582 145.558 216.819 145.286C217.435 145.151 218.087 144.242 218.584 143.367L218.61 143.383C218.64 143.383 218.761 143.317 218.958 143.239C219.874 142.875 222.399 141.999 224.39 142.435C225.48 142.674 230.156 142.73 235.058 142.717C233.951 145.374 231.967 152.23 231.967 152.23C231.967 152.23 231.138 158.623 233.889 158.361C235.853 158.167 238.866 153.139 240.437 150.268C241.577 149.432 244.841 146.434 247.255 146.66L263.515 140.408C263.515 140.408 267.372 138.233 265.306 131.029C263.669 125.302 259.01 113.578 257.169 109.008L257.114 108.89C256.669 107.785 256.4 107.129 256.4 107.129C255.644 105.043 255.148 102.871 254.923 100.663C254.907 100.489 254.894 100.312 254.881 100.138C255.108 100.043 255.323 99.9181 255.519 99.7678C255.519 99.7678 254.003 84.4093 255.519 82.7757L255.545 82.7462V82.7265L255.572 82.6937L255.631 82.6183L255.703 82.5264C255.784 82.4182 255.883 82.2837 255.994 82.1197C256.862 80.8469 258.479 77.9405 258.014 74.5093C257.995 74.3606 257.971 74.2108 257.942 74.0599C257.764 73.1294 257.446 72.2313 256.999 71.3963C256.934 71.0486 256.893 70.6967 256.878 70.3433C256.878 70.1432 256.878 69.9234 256.878 69.6872V69.6479C256.878 69.5844 256.878 69.521 256.878 69.4576V69.4117C256.878 69.2575 256.904 69.0836 256.927 68.9393V68.8803C256.927 68.8212 256.937 68.7611 256.957 68.6999V68.6244C256.957 68.5654 256.983 68.5063 256.996 68.4473V68.3849C257.016 68.3062 257.035 68.2275 257.061 68.1488V68.1094C257.081 68.0438 257.103 67.9793 257.127 67.9159L257.156 67.8404L257.222 67.683L257.255 67.6042C257.281 67.5452 257.31 67.4861 257.34 67.4271L257.363 67.3779C257.402 67.3057 257.443 67.2346 257.487 67.1647L257.523 67.1089L257.631 66.9547L257.684 66.8858L257.798 66.7481L257.851 66.689C257.91 66.6267 257.968 66.5644 258.034 66.5053C259.825 64.8652 267.818 52.7772 267.818 52.7772C267.818 52.7772 269.746 50.0578 269.746 48.293C269.854 48.2536 273.263 36.8709 272.919 33.4101ZM251.462 135.018C251.266 133.155 251.069 130.846 250.889 128.458L254.006 133.326C254.006 133.326 253.712 134.808 251.462 135.018Z" fill="url(#paint3_linear)"/>
<path d="M218.96 133.988C218.96 133.988 217.094 131.036 214.291 133.722C211.488 136.409 209.491 145.345 209.491 145.345C209.491 145.345 208.423 152.561 212.025 150.688C212.025 150.688 216.282 144.675 217.493 144.41C218.705 144.144 220.028 140.801 220.028 140.801L218.96 133.988Z" fill="#493545"/>
<path d="M238.964 141.202C238.964 141.202 236.43 139.998 235.631 140.936C234.832 141.874 232.163 151.223 232.163 151.223C232.163 151.223 231.364 157.37 234.029 157.101C236.695 156.832 241.364 147.208 241.364 147.208L238.964 141.202Z" fill="#493545"/>
<path opacity="0.05" d="M238.964 141.202C238.964 141.202 236.43 139.998 235.631 140.936C234.832 141.874 232.163 151.223 232.163 151.223C232.163 151.223 231.364 157.37 234.029 157.101C236.695 156.832 241.364 147.208 241.364 147.208L238.964 141.202Z" fill="black"/>
<path d="M247.765 123.032L253.499 131.984C253.499 131.984 253.099 133.988 249.632 133.588L237.762 141.07C237.762 141.07 236.731 150.18 240.028 149.353C240.562 149.219 244.285 145.345 246.963 145.614L262.703 139.466C262.703 139.466 266.436 137.328 264.435 130.249C262.435 123.17 255.82 106.755 255.82 106.755L245.365 112.614L247.765 123.032Z" fill="#3E3D77"/>
<path opacity="0.05" d="M247.765 123.032L253.499 131.984C253.499 131.984 253.099 133.988 249.632 133.588L237.762 141.07C237.762 141.07 236.731 150.18 240.028 149.353C240.562 149.219 244.285 145.345 246.963 145.614L262.703 139.466C262.703 139.466 266.436 137.328 264.435 130.249C262.435 123.17 255.82 106.755 255.82 106.755L245.365 112.614L247.765 123.032Z" fill="black"/>
<path d="M251.367 136.258C252.166 141.336 247.635 141.736 247.635 141.736C247.635 141.736 227.229 142.136 224.828 141.602C222.428 141.067 219.226 142.537 219.226 142.537C215.09 139.998 218.427 133.719 218.427 133.719C218.427 133.719 226.963 133.453 228.964 133.063C230.965 132.673 241.099 132.118 241.099 132.118C241.099 132.118 240.3 127.175 234.963 114.618C231.338 106.089 233.98 101.07 236.066 98.7312C236.598 98.1106 237.214 97.5674 237.897 97.1173L254.301 97.9177C254.283 98.7465 254.314 99.5757 254.393 100.401C254.673 103.234 255.409 106.003 256.57 108.602C255.637 108.602 249.635 114.214 249.635 114.214C249.635 114.214 250.565 131.183 251.367 136.258Z" fill="#3E3D77"/>
<path opacity="0.1" d="M219.625 134.254C219.625 134.254 228.161 133.988 230.162 133.598C232.163 133.207 242.297 132.663 242.297 132.663C242.297 132.663 241.498 127.719 236.161 115.162C232.536 106.633 235.178 101.615 237.264 99.2757C237.796 98.6551 238.412 98.1119 239.094 97.6618L254.294 98.4031C254.294 98.2457 254.294 98.0751 254.294 97.9275L237.889 97.1271C237.207 97.5772 236.591 98.1204 236.059 98.741C233.983 101.083 231.331 106.099 234.956 114.628C240.306 127.175 241.098 132.118 241.098 132.118C241.098 132.118 230.948 132.653 228.964 133.053C226.979 133.453 218.427 133.709 218.427 133.709C218.427 133.709 215.093 139.991 219.226 142.54C219.226 142.54 219.35 142.481 219.553 142.396C216.806 139.565 219.625 134.254 219.625 134.254Z" fill="black"/>
<path d="M244.03 48.0797H235.762V69.0541H244.03V48.0797Z" fill="#493545"/>
<path opacity="0.1" d="M244.03 48.0797H235.762V69.0541H244.03V48.0797Z" fill="black"/>
<path d="M248.758 45.0028C249.043 45.0815 249.363 45.0914 249.557 45.485C249.677 45.7996 249.742 46.1325 249.75 46.4691L250.27 52.951C250.278 53.3754 250.36 53.7952 250.513 54.191C250.732 54.6306 251.096 54.6831 251.38 54.9652C251.953 55.5359 252.12 56.9662 251.963 58.1307C251.806 59.2952 251.41 60.2924 251.099 61.3454C250.654 62.8543 250.359 64.5503 249.733 65.823C249.108 67.0958 247.972 67.7912 247.238 66.7219C246.505 65.6525 246.603 63.494 246.466 61.7259C246.236 58.7736 245.087 56.2281 245.009 53.2561C244.943 50.8516 245.588 48.6079 245.991 46.3281C246.279 44.7634 246.295 42.864 246.714 41.4568C247.065 43.1298 247.733 44.7207 248.758 45.0028Z" fill="#493545"/>
<path opacity="0.1" d="M248.758 45.0028C249.043 45.0815 249.363 45.0914 249.557 45.485C249.677 45.7996 249.742 46.1325 249.75 46.4691L250.27 52.951C250.278 53.3754 250.36 53.7952 250.513 54.191C250.732 54.6306 251.096 54.6831 251.38 54.9652C251.953 55.5359 252.12 56.9662 251.963 58.1307C251.806 59.2952 251.41 60.2924 251.099 61.3454C250.654 62.8543 250.359 64.5503 249.733 65.823C249.108 67.0958 247.972 67.7912 247.238 66.7219C246.505 65.6525 246.603 63.494 246.466 61.7259C246.236 58.7736 245.087 56.2281 245.009 53.2561C244.943 50.8516 245.588 48.6079 245.991 46.3281C246.279 44.7634 246.295 42.864 246.714 41.4568C247.065 43.1298 247.733 44.7207 248.758 45.0028Z" fill="black"/>
<path d="M213.758 35.7883L210.559 38.4617C210.559 38.4617 210.179 38.0156 209.612 37.2939C207.389 34.4499 202.278 27.3152 205.889 26.0391C209.501 24.7631 212.356 31.7207 213.365 34.5942C213.62 35.3225 213.758 35.7883 213.758 35.7883Z" fill="#F7C4A7"/>
<path d="M271.505 34.8534C270.172 36.8577 268.306 34.8534 268.306 34.8534C268.306 34.8534 268.067 34.4959 267.729 33.9185C266.632 32.0586 264.481 27.9352 265.905 26.3016C267.543 24.4351 271.6 30.8055 271.724 33.7939C271.763 34.1613 271.686 34.5317 271.505 34.8534V34.8534Z" fill="#F7C4A7"/>
<path d="M238.695 56.4969C238.695 56.4969 241.364 65.0487 240.562 67.5844C239.759 70.1201 246.298 73.0724 246.298 73.0724H253.767C253.767 73.0724 256.436 67.5943 255.768 65.9902C255.1 64.3861 249.366 63.1855 249.366 63.1855C249.366 63.1855 246.033 63.1855 246.167 54.2335L238.695 56.4969Z" fill="#F7C4A7"/>
<path opacity="0.1" d="M213.758 35.7883L210.559 38.4617C210.559 38.4617 210.179 38.0156 209.612 37.2939C210.775 37.0873 212.579 35.3881 213.368 34.5942C213.62 35.3225 213.758 35.7883 213.758 35.7883Z" fill="black"/>
<path opacity="0.1" d="M271.504 34.8534C270.171 36.8577 268.305 34.8534 268.305 34.8534C268.305 34.8534 268.066 34.4959 267.729 33.9186L267.771 33.7841C268.636 34.404 271.324 33.8759 271.723 33.7841C271.764 34.1547 271.687 34.5289 271.504 34.8534V34.8534Z" fill="black"/>
<path opacity="0.1" d="M254.386 100.398C250.261 102.284 236.855 98.9247 236.05 98.7246C236.582 98.104 237.198 97.5608 237.88 97.1107L254.285 97.9111C254.27 98.7412 254.304 99.5715 254.386 100.398V100.398Z" fill="black"/>
<path d="M240.431 63.8449C240.431 63.8449 237.231 64.9143 232.696 60.7713C232.696 60.7713 222.546 50.7499 221.891 48.3454L214.033 34.568C214.033 34.568 210.699 38.1764 209.363 37.6417L218.165 53.0067C218.165 53.0067 219.766 55.959 221.233 56.7463C221.233 56.7463 232.169 70.7762 232.3 73.5809C232.431 76.3856 237.228 83.8975 237.228 83.8975C237.228 83.8975 238.829 96.0544 236.027 98.1932C236.027 98.1932 251.629 102.202 254.962 99.5283C254.962 99.5283 253.495 84.4388 254.962 82.8282C254.962 82.8282 259.497 77.4845 256.429 71.6062C256.429 71.6062 255.774 68.4013 257.497 66.7972C259.219 65.1931 266.966 53.302 266.966 53.302C266.966 53.302 268.832 50.6285 268.832 48.8932C268.832 48.8932 272.3 37.1365 271.779 34.0629C271.779 34.0629 268.711 34.7189 267.778 34.0629C267.778 34.0629 263.243 47.8402 262.709 48.3585C262.176 48.8768 258.453 59.715 253.508 60.9189C248.564 62.1228 247.775 62.6542 247.775 62.6542C247.775 62.6542 257.375 68.667 252.709 71.3372C248.043 74.0074 240.431 63.8449 240.431 63.8449Z" fill="#FFAAC4"/>
<path opacity="0.1" d="M246.492 58.5538C246.334 57.2952 246.269 56.0266 246.299 54.7584L238.83 57.0284C239.027 57.5269 239.183 58.0402 239.298 58.5636C240.153 58.9408 241.306 59.8331 242.298 59.8331C243.798 59.8822 245.273 59.4324 246.492 58.5538V58.5538Z" fill="black"/>
<path d="M242.163 59.4362C245.993 59.4362 249.098 56.3256 249.098 52.4885C249.098 48.6514 245.993 45.5408 242.163 45.5408C238.333 45.5408 235.228 48.6514 235.228 52.4885C235.228 56.3256 238.333 59.4362 242.163 59.4362Z" fill="#F7C4A7"/>
<path opacity="0.1" d="M233.911 41.7847C232.386 41.9028 230.683 42.9591 230.768 44.491C230.814 45.334 231.39 46.0459 231.642 46.8528C232.248 48.8046 230.899 50.763 229.714 52.4294C228.528 54.0958 227.422 56.3034 228.437 58.0682C228.726 58.4931 229.039 58.9016 229.373 59.2918C230.627 60.9877 230.611 63.2774 231.167 65.3145C231.878 67.9206 233.559 70.1549 235.863 71.5582C238.168 72.9614 240.921 73.427 243.558 72.8592C242.565 71.59 242.07 70.0009 242.166 68.3914C242.241 67.2236 242.618 66.0033 242.166 64.9241C241.583 63.5365 239.874 62.9887 238.993 61.775C238.112 60.5613 238.171 58.8785 238.597 57.4319C239.023 55.9852 239.759 54.6436 240.113 53.1674C240.2 52.7368 240.31 52.3108 240.44 51.8914C241.056 50.1397 242.896 49.1228 244.697 48.6865C246.498 48.2502 248.391 48.224 250.149 47.6499C251.907 47.0759 253.617 45.7309 253.82 43.8841C252.34 44.4779 250.968 42.9295 249.54 42.2177C247.189 41.0499 244.507 42.1488 242.084 42.4178C239.324 42.7262 236.704 41.5813 233.911 41.7847Z" fill="black"/>
<path d="M233.778 41.5191C232.252 41.6372 230.549 42.6934 230.634 44.2254C230.68 45.0684 231.256 45.7802 231.508 46.5872C232.114 48.539 230.765 50.4973 229.58 52.1637C228.395 53.8301 227.288 56.0378 228.303 57.8026C228.592 58.2275 228.905 58.636 229.239 59.0262C230.493 60.7221 230.477 63.0118 231.034 65.0489C231.745 67.655 233.425 69.8893 235.729 71.2925C238.034 72.6958 240.787 73.1614 243.424 72.5936C242.431 71.3243 241.936 69.7353 242.032 68.1258C242.108 66.958 242.484 65.7377 242.032 64.6585C241.449 63.2709 239.74 62.7231 238.859 61.5094C237.979 60.2957 238.038 58.6129 238.463 57.1662C238.889 55.7196 239.626 54.378 239.979 52.9018C240.067 52.4711 240.176 52.0452 240.307 51.6258C240.922 49.8741 242.762 48.8572 244.563 48.4209C246.364 47.9846 248.257 47.9584 250.015 47.3843C251.774 46.8102 253.483 45.4653 253.686 43.6185C252.206 44.2122 250.834 42.6639 249.406 41.9521C247.055 40.7843 244.373 41.8832 241.95 42.1522C239.197 42.4573 236.587 41.2993 233.778 41.5191Z" fill="#493545"/>
<path opacity="0.1" d="M249.032 67.9224C249.032 67.9224 251.809 70.4056 252.356 71.5012Z" fill="black"/>
<path opacity="0.1" d="M255.041 82.7527C255.041 82.7527 251.573 82.7527 249.972 83.1529C248.371 83.5531 244.504 83.1529 244.504 83.1529" fill="black"/>
<g opacity="0.1">
<path opacity="0.1" d="M252.7 71.3273C252.401 71.4987 252.078 71.6226 251.741 71.6947C252.61 71.8879 253.521 71.7573 254.301 71.3273C258.971 68.6538 249.367 62.6443 249.367 62.6443H247.766C247.766 62.6443 257.369 68.6571 252.7 71.3273Z" fill="black"/>
<path opacity="0.1" d="M271.802 34.2957C271.802 34.2104 271.783 34.1284 271.769 34.053C271.221 34.1668 270.667 34.2512 270.109 34.3056C270.672 34.3676 271.24 34.3643 271.802 34.2957V34.2957Z" fill="black"/>
<path opacity="0.1" d="M237.631 98.1834C240.431 96.0446 238.833 83.8877 238.833 83.8877C238.833 83.8877 234.033 76.4053 233.899 73.6006C233.764 70.7959 222.831 56.766 222.831 56.766C221.364 55.9656 219.763 53.0264 219.763 53.0264C219.763 53.0264 210.693 38.1961 209.36 37.6614L218.162 53.0264C218.162 53.0264 219.763 55.9787 221.23 56.766C221.23 56.766 232.166 70.7959 232.297 73.6006C232.428 76.4053 237.229 83.8975 237.229 83.8975C237.229 83.8975 238.83 96.0544 236.027 98.1932C236.027 98.1932 245.618 100.657 251.367 100.434C245.604 100.23 237.631 98.1834 237.631 98.1834Z" fill="black"/>
<path opacity="0.1" d="M240.509 63.9498L240.431 63.8481C240.339 63.8752 240.246 63.896 240.152 63.9105C240.277 63.9269 240.395 63.94 240.509 63.9498Z" fill="black"/>
</g>
<g opacity="0.1">
<path opacity="0.1" d="M271.77 34.0366L271.688 34.053C271.548 38.1567 268.705 47.7976 268.705 47.7976C268.705 49.5329 266.839 52.2063 266.839 52.2063C266.839 52.2063 259.105 64.0975 257.37 65.7016C255.634 67.3057 256.302 70.5105 256.302 70.5105L256.319 70.5433C256.266 69.4641 256.397 67.7912 257.501 66.7677C259.233 65.1636 266.97 53.2724 266.97 53.2724C266.97 53.2724 268.836 50.599 268.836 48.8637C268.836 48.8834 272.304 37.1267 271.77 34.0366Z" fill="black"/>
<path opacity="0.1" d="M254.835 81.7489C255.035 82.8839 254.9 81.6833 254.969 82.8183C254.969 82.8183 258.244 78.9705 257.35 74.214C257.618 78.4653 254.835 81.7489 254.835 81.7489Z" fill="black"/>
</g>
<path d="M153.827 217C231.166 217 293.862 210.967 293.862 203.525C293.862 196.082 231.166 190.049 153.827 190.049C76.4879 190.049 13.792 196.082 13.792 203.525C13.792 210.967 76.4879 217 153.827 217Z" fill="#364954"/>
<path d="M99.5449 189.852C99.5449 189.852 94.7774 173.631 100.439 161.694C102.847 156.701 103.573 151.061 102.508 145.62C101.982 143.041 101.222 140.516 100.236 138.075" stroke="#535461" stroke-width="2" stroke-miterlimit="10"/>
<path d="M103.765 130.537C103.765 132.525 100.163 138.289 100.163 138.289C100.163 138.289 96.5616 132.525 96.5616 130.537C96.525 130.042 96.5908 129.545 96.7547 129.077C96.9187 128.608 97.1773 128.179 97.5144 127.815C97.8515 127.452 98.2599 127.162 98.714 126.963C99.1681 126.765 99.6582 126.663 100.154 126.663C100.649 126.663 101.139 126.765 101.593 126.963C102.047 127.162 102.456 127.452 102.793 127.815C103.13 128.179 103.388 128.608 103.552 129.077C103.716 129.545 103.782 130.042 103.746 130.537H103.765Z" fill="#00B0FF"/>
<path d="M109.695 141.546C108.617 143.216 102.475 146.096 102.475 146.096C102.475 146.096 102.586 139.302 103.663 137.633C103.902 137.199 104.228 136.819 104.619 136.517C105.011 136.215 105.461 135.997 105.94 135.877C106.419 135.757 106.918 135.736 107.406 135.817C107.894 135.898 108.359 136.079 108.774 136.348C109.189 136.617 109.544 136.969 109.817 137.382C110.091 137.795 110.276 138.259 110.363 138.747C110.449 139.234 110.434 139.734 110.319 140.216C110.204 140.697 109.992 141.15 109.695 141.546V141.546Z" fill="#00B0FF"/>
<path d="M109.436 160.365C107.665 161.261 100.923 160.641 100.923 160.641C100.923 160.641 104.443 154.831 106.214 153.936C106.639 153.68 107.112 153.515 107.603 153.451C108.094 153.387 108.593 153.425 109.069 153.563C109.545 153.701 109.987 153.936 110.368 154.252C110.749 154.569 111.061 154.961 111.284 155.404C111.507 155.848 111.637 156.332 111.664 156.827C111.692 157.323 111.618 157.819 111.445 158.284C111.273 158.749 111.007 159.174 110.664 159.531C110.32 159.889 109.907 160.172 109.449 160.362L109.436 160.365Z" fill="#00B0FF"/>
<path d="M106.04 174.556C104.446 175.737 97.6807 176.272 97.6807 176.272C97.6807 176.272 100.169 169.95 101.767 168.766C102.536 168.298 103.452 168.135 104.335 168.31C105.218 168.484 106.003 168.983 106.537 169.709C107.071 170.435 107.314 171.334 107.219 172.231C107.124 173.127 106.698 173.955 106.024 174.553L106.04 174.556Z" fill="#00B0FF"/>
<path d="M94.9237 146.483C96.348 147.867 102.979 149.304 102.979 149.304C102.979 149.304 101.341 142.707 99.9302 141.32C99.6009 140.95 99.1991 140.652 98.7498 140.445C98.3006 140.237 97.8135 140.125 97.3189 140.114C96.8244 140.104 96.3329 140.195 95.8753 140.383C95.4176 140.572 95.0036 140.852 94.6589 141.208C94.3142 141.563 94.0463 141.986 93.8719 142.45C93.6975 142.913 93.6203 143.408 93.6452 143.903C93.67 144.398 93.7964 144.882 94.0163 145.326C94.2363 145.77 94.5451 146.164 94.9237 146.483Z" fill="#00B0FF"/>
<path d="M91.1687 163.134C92.9401 164.029 99.682 163.409 99.682 163.409C99.682 163.409 96.1752 157.6 94.4038 156.721C93.5639 156.371 92.6231 156.353 91.7705 156.67C90.9178 156.987 90.2163 157.615 89.8068 158.428C89.3972 159.242 89.31 160.18 89.5627 161.056C89.8153 161.931 90.389 162.678 91.1687 163.147V163.134Z" fill="#00B0FF"/>
<path d="M89.7277 179.818C91.3224 180.998 98.0872 181.533 98.0872 181.533C98.0872 181.533 95.5987 175.212 94.0008 174.028C93.6263 173.696 93.1869 173.446 92.7106 173.293C92.2343 173.141 91.7315 173.089 91.2343 173.142C90.7371 173.195 90.2563 173.351 89.8226 173.6C89.3888 173.85 89.0117 174.187 88.715 174.59C88.4184 174.993 88.2088 175.454 88.0996 175.943C87.9904 176.431 87.984 176.938 88.0808 177.429C88.1776 177.921 88.3755 178.386 88.6619 178.797C88.9482 179.208 89.3168 179.554 89.7441 179.814L89.7277 179.818Z" fill="#00B0FF"/>
<path opacity="0.1" d="M103.765 130.537C103.765 132.525 100.163 138.289 100.163 138.289C100.163 138.289 96.5616 132.525 96.5616 130.537C96.525 130.042 96.5908 129.545 96.7547 129.077C96.9187 128.608 97.1773 128.179 97.5144 127.815C97.8515 127.452 98.2599 127.162 98.714 126.963C99.1681 126.765 99.6582 126.663 100.154 126.663C100.649 126.663 101.139 126.765 101.593 126.963C102.047 127.162 102.456 127.452 102.793 127.815C103.13 128.179 103.388 128.608 103.552 129.077C103.716 129.545 103.782 130.042 103.746 130.537H103.765Z" fill="#00B0FF"/>
<path opacity="0.1" d="M109.695 141.546C108.617 143.216 102.475 146.096 102.475 146.096C102.475 146.096 102.586 139.302 103.663 137.633C103.902 137.199 104.228 136.819 104.619 136.517C105.011 136.215 105.461 135.997 105.94 135.877C106.419 135.757 106.918 135.736 107.406 135.817C107.894 135.898 108.359 136.079 108.774 136.348C109.189 136.617 109.544 136.969 109.817 137.382C110.091 137.795 110.276 138.259 110.363 138.747C110.449 139.234 110.434 139.734 110.319 140.216C110.204 140.697 109.992 141.15 109.695 141.546V141.546Z" fill="#00B0FF"/>
<path opacity="0.1" d="M109.436 160.365C107.665 161.261 100.923 160.641 100.923 160.641C100.923 160.641 104.443 154.831 106.214 153.936C106.639 153.68 107.112 153.515 107.603 153.451C108.094 153.387 108.593 153.425 109.069 153.563C109.545 153.701 109.987 153.936 110.368 154.252C110.749 154.569 111.061 154.961 111.284 155.404C111.507 155.848 111.637 156.332 111.664 156.827C111.692 157.323 111.618 157.819 111.445 158.284C111.273 158.749 111.007 159.174 110.664 159.531C110.32 159.889 109.907 160.172 109.449 160.362L109.436 160.365Z" fill="#00B0FF"/>
<path opacity="0.1" d="M106.04 174.556C104.446 175.737 97.6807 176.272 97.6807 176.272C97.6807 176.272 100.169 169.95 101.767 168.766C102.536 168.298 103.452 168.135 104.335 168.31C105.218 168.484 106.003 168.983 106.537 169.709C107.071 170.435 107.314 171.334 107.219 172.231C107.124 173.127 106.698 173.955 106.024 174.553L106.04 174.556Z" fill="#00B0FF"/>
<path opacity="0.1" d="M94.9237 146.483C96.348 147.867 102.979 149.304 102.979 149.304C102.979 149.304 101.341 142.707 99.9302 141.32C99.6009 140.95 99.1991 140.652 98.7498 140.445C98.3006 140.237 97.8135 140.125 97.3189 140.114C96.8244 140.104 96.3329 140.195 95.8753 140.383C95.4176 140.572 95.0036 140.852 94.6589 141.208C94.3142 141.563 94.0463 141.986 93.8719 142.45C93.6975 142.913 93.6203 143.408 93.6452 143.903C93.67 144.398 93.7964 144.882 94.0163 145.326C94.2363 145.77 94.5451 146.164 94.9237 146.483Z" fill="#00B0FF"/>
<path opacity="0.1" d="M91.1687 163.134C92.9401 164.029 99.682 163.409 99.682 163.409C99.682 163.409 96.1752 157.6 94.4038 156.721C93.5639 156.371 92.6231 156.353 91.7705 156.67C90.9178 156.987 90.2163 157.615 89.8068 158.428C89.3972 159.242 89.31 160.18 89.5627 161.056C89.8153 161.931 90.389 162.678 91.1687 163.147V163.134Z" fill="#00B0FF"/>
<path opacity="0.1" d="M89.7277 179.818C91.3224 180.998 98.0872 181.533 98.0872 181.533C98.0872 181.533 95.5987 175.212 94.0008 174.028C93.6263 173.696 93.1869 173.446 92.7106 173.293C92.2343 173.141 91.7315 173.089 91.2343 173.142C90.7371 173.195 90.2563 173.351 89.8226 173.6C89.3888 173.85 89.0117 174.187 88.715 174.59C88.4184 174.993 88.2088 175.454 88.0996 175.943C87.9904 176.431 87.984 176.938 88.0808 177.429C88.1776 177.921 88.3755 178.386 88.6619 178.797C88.9482 179.208 89.3168 179.554 89.7441 179.814L89.7277 179.818Z" fill="#00B0FF"/>
<path d="M196.02 190.085C196.02 190.085 191.253 173.864 196.914 161.927C199.322 156.934 200.048 151.294 198.984 145.853C198.458 143.274 197.697 140.748 196.711 138.308" stroke="#535461" stroke-width="2" stroke-miterlimit="10"/>
<path d="M200.235 130.767C200.235 132.755 196.633 138.518 196.633 138.518C196.633 138.518 193.031 132.755 193.031 130.767C193.098 129.858 193.506 129.009 194.172 128.389C194.838 127.769 195.714 127.425 196.623 127.425C197.532 127.425 198.408 127.769 199.074 128.389C199.741 129.009 200.148 129.858 200.215 130.767H200.235Z" fill="#00B0FF"/>
<path d="M206.174 141.776C205.097 143.445 198.954 146.325 198.954 146.325C198.954 146.325 199.065 139.532 200.143 137.862C200.382 137.429 200.707 137.049 201.099 136.747C201.49 136.445 201.94 136.227 202.419 136.107C202.899 135.986 203.398 135.966 203.885 136.047C204.373 136.128 204.839 136.309 205.254 136.578C205.668 136.847 206.024 137.199 206.297 137.612C206.57 138.024 206.756 138.489 206.842 138.976C206.928 139.464 206.914 139.964 206.799 140.446C206.684 140.927 206.471 141.38 206.174 141.776V141.776Z" fill="#00B0FF"/>
<path d="M205.925 160.595C204.154 161.49 197.412 160.87 197.412 160.87C197.412 160.87 200.932 155.061 202.703 154.165C203.129 153.908 203.602 153.741 204.095 153.675C204.588 153.61 205.089 153.647 205.566 153.785C206.044 153.923 206.487 154.158 206.87 154.477C207.252 154.795 207.564 155.189 207.787 155.633C208.01 156.078 208.139 156.565 208.165 157.062C208.192 157.559 208.115 158.056 207.94 158.522C207.765 158.988 207.496 159.413 207.149 159.77C206.802 160.126 206.386 160.407 205.925 160.595V160.595Z" fill="#00B0FF"/>
<path d="M202.517 174.786C200.922 175.966 194.157 176.501 194.157 176.501C194.157 176.501 196.646 170.18 198.244 168.996C199.013 168.528 199.929 168.365 200.811 168.539C201.694 168.714 202.48 169.213 203.014 169.939C203.547 170.664 203.791 171.564 203.696 172.46C203.601 173.357 203.174 174.185 202.5 174.782L202.517 174.786Z" fill="#00B0FF"/>
<path d="M191.407 146.713C192.831 148.097 199.462 149.534 199.462 149.534C199.462 149.534 197.825 142.937 196.414 141.549C196.084 141.18 195.682 140.882 195.233 140.674C194.784 140.467 194.297 140.354 193.802 140.344C193.308 140.333 192.816 140.425 192.359 140.613C191.901 140.801 191.487 141.082 191.142 141.437C190.798 141.793 190.53 142.215 190.355 142.679C190.181 143.143 190.104 143.638 190.129 144.133C190.153 144.628 190.28 145.112 190.5 145.556C190.72 146 191.029 146.394 191.407 146.713V146.713Z" fill="#00B0FF"/>
<path d="M187.645 163.363C189.416 164.259 196.158 163.639 196.158 163.639C196.158 163.639 192.638 157.829 190.867 156.934C190.027 156.585 189.086 156.566 188.233 156.883C187.381 157.2 186.679 157.828 186.27 158.642C185.86 159.455 185.773 160.394 186.026 161.269C186.278 162.144 186.852 162.891 187.632 163.36L187.645 163.363Z" fill="#00B0FF"/>
<path d="M186.207 180.047C187.802 181.228 194.566 181.763 194.566 181.763C194.566 181.763 192.078 175.442 190.48 174.257C189.711 173.789 188.795 173.626 187.912 173.801C187.03 173.975 186.244 174.475 185.71 175.2C185.176 175.926 184.933 176.826 185.028 177.722C185.123 178.618 185.549 179.447 186.223 180.044L186.207 180.047Z" fill="#00B0FF"/>
<path opacity="0.1" d="M200.235 130.767C200.235 132.755 196.633 138.518 196.633 138.518C196.633 138.518 193.031 132.755 193.031 130.767C193.098 129.858 193.506 129.009 194.172 128.389C194.838 127.769 195.714 127.425 196.623 127.425C197.532 127.425 198.408 127.769 199.074 128.389C199.741 129.009 200.148 129.858 200.215 130.767H200.235Z" fill="#00B0FF"/>
<path opacity="0.1" d="M206.174 141.776C205.097 143.445 198.954 146.325 198.954 146.325C198.954 146.325 199.065 139.532 200.143 137.862C200.382 137.429 200.707 137.049 201.099 136.747C201.49 136.445 201.94 136.227 202.419 136.107C202.899 135.986 203.398 135.966 203.885 136.047C204.373 136.128 204.839 136.309 205.254 136.578C205.668 136.847 206.024 137.199 206.297 137.612C206.57 138.024 206.756 138.489 206.842 138.976C206.928 139.464 206.914 139.964 206.799 140.446C206.684 140.927 206.471 141.38 206.174 141.776V141.776Z" fill="#00B0FF"/>
<path opacity="0.1" d="M205.925 160.595C204.154 161.49 197.412 160.87 197.412 160.87C197.412 160.87 200.932 155.061 202.703 154.165C203.129 153.908 203.602 153.741 204.095 153.675C204.588 153.61 205.089 153.647 205.566 153.785C206.044 153.923 206.487 154.158 206.87 154.477C207.252 154.795 207.564 155.189 207.787 155.633C208.01 156.078 208.139 156.565 208.165 157.062C208.192 157.559 208.115 158.056 207.94 158.522C207.765 158.988 207.496 159.413 207.149 159.77C206.802 160.126 206.386 160.407 205.925 160.595V160.595Z" fill="#00B0FF"/>
<path opacity="0.1" d="M202.517 174.786C200.922 175.966 194.157 176.501 194.157 176.501C194.157 176.501 196.646 170.18 198.244 168.996C199.013 168.528 199.929 168.365 200.811 168.539C201.694 168.714 202.48 169.213 203.014 169.939C203.547 170.664 203.791 171.564 203.696 172.46C203.601 173.357 203.174 174.185 202.5 174.782L202.517 174.786Z" fill="#00B0FF"/>
<path opacity="0.1" d="M191.407 146.713C192.831 148.097 199.462 149.534 199.462 149.534C199.462 149.534 197.825 142.937 196.414 141.549C196.084 141.18 195.682 140.882 195.233 140.674C194.784 140.467 194.297 140.354 193.802 140.344C193.308 140.333 192.816 140.425 192.359 140.613C191.901 140.801 191.487 141.082 191.142 141.437C190.798 141.793 190.53 142.215 190.355 142.679C190.181 143.143 190.104 143.638 190.129 144.133C190.153 144.628 190.28 145.112 190.5 145.556C190.72 146 191.029 146.394 191.407 146.713V146.713Z" fill="#00B0FF"/>
<path opacity="0.1" d="M187.645 163.363C189.416 164.259 196.158 163.639 196.158 163.639C196.158 163.639 192.638 157.829 190.867 156.934C190.027 156.585 189.086 156.566 188.233 156.883C187.381 157.2 186.679 157.828 186.27 158.642C185.86 159.455 185.773 160.394 186.026 161.269C186.278 162.144 186.852 162.891 187.632 163.36L187.645 163.363Z" fill="#00B0FF"/>
<path opacity="0.1" d="M186.207 180.047C187.802 181.228 194.566 181.763 194.566 181.763C194.566 181.763 192.078 175.442 190.48 174.257C189.711 173.789 188.795 173.626 187.912 173.801C187.03 173.975 186.244 174.475 185.71 175.2C185.176 175.926 184.933 176.826 185.028 177.722C185.123 178.618 185.549 179.447 186.223 180.044L186.207 180.047Z" fill="#00B0FF"/>
<path opacity="0.5" d="M219.351 5.02225H217.294C217.489 5.03156 217.684 5.00117 217.866 4.93292C218.049 4.86466 218.216 4.75998 218.357 4.62519C218.498 4.4904 218.611 4.32831 218.687 4.14875C218.764 3.96919 218.804 3.77588 218.804 3.58055C218.804 3.38521 218.764 3.19191 218.687 3.01235C218.611 2.83279 218.498 2.6707 218.357 2.53591C218.216 2.40112 218.049 2.29643 217.866 2.22818C217.684 2.15993 217.489 2.12954 217.294 2.13885H200.621C200.251 2.15652 199.903 2.31613 199.647 2.58457C199.392 2.853 199.249 3.20966 199.249 3.58055C199.249 3.95144 199.392 4.30809 199.647 4.57653C199.903 4.84496 200.251 5.00458 200.621 5.02225H202.678C202.308 5.03993 201.959 5.19954 201.704 5.46798C201.448 5.73641 201.306 6.09307 201.306 6.46396C201.306 6.83485 201.448 7.1915 201.704 7.45993C201.959 7.72837 202.308 7.88798 202.678 7.90566H199.799C199.605 7.89635 199.41 7.92674 199.227 7.99499C199.045 8.06324 198.878 8.16793 198.737 8.30272C198.595 8.43751 198.483 8.5996 198.406 8.77916C198.33 8.95872 198.29 9.15202 198.29 9.34736C198.29 9.54269 198.33 9.73599 198.406 9.91555C198.483 10.0951 198.595 10.2572 198.737 10.392C198.878 10.5268 199.045 10.6315 199.227 10.6997C199.41 10.768 199.605 10.7984 199.799 10.7891H216.459C216.654 10.7984 216.849 10.768 217.031 10.6997C217.214 10.6315 217.381 10.5268 217.522 10.392C217.663 10.2572 217.776 10.0951 217.852 9.91555C217.929 9.73599 217.969 9.54269 217.969 9.34736C217.969 9.15202 217.929 8.95872 217.852 8.77916C217.776 8.5996 217.663 8.43751 217.522 8.30272C217.381 8.16793 217.214 8.06324 217.031 7.99499C216.849 7.92674 216.654 7.89635 216.459 7.90566H219.351C219.72 7.88798 220.069 7.72837 220.325 7.45993C220.58 7.1915 220.723 6.83485 220.723 6.46396C220.723 6.09307 220.58 5.73641 220.325 5.46798C220.069 5.19954 219.72 5.03993 219.351 5.02225Z" fill="#DEE3F3"/>
<path opacity="0.5" d="M123.011 13.433H121.446C121.595 13.4412 121.744 13.4188 121.884 13.3674C122.024 13.3159 122.152 13.2364 122.26 13.1337C122.368 13.031 122.455 12.9073 122.513 12.7701C122.572 12.6329 122.603 12.4851 122.603 12.3357C122.603 12.1864 122.572 12.0386 122.513 11.9014C122.455 11.7642 122.368 11.6404 122.26 11.5377C122.152 11.4351 122.024 11.3555 121.884 11.3041C121.744 11.2526 121.595 11.2303 121.446 11.2385H108.768C108.487 11.2538 108.224 11.3761 108.031 11.5802C107.838 11.7843 107.731 12.0547 107.731 12.3357C107.731 12.6168 107.838 12.8872 108.031 13.0913C108.224 13.2953 108.487 13.4176 108.768 13.433H110.333C110.184 13.4248 110.035 13.4472 109.895 13.4986C109.755 13.5501 109.627 13.6296 109.519 13.7323C109.41 13.835 109.324 13.9587 109.265 14.0959C109.206 14.2331 109.176 14.3809 109.176 14.5303C109.176 14.6796 109.206 14.8274 109.265 14.9646C109.324 15.1018 109.41 15.2256 109.519 15.3282C109.627 15.4309 109.755 15.5104 109.895 15.5619C110.035 15.6134 110.184 15.6357 110.333 15.6275H108.142C107.993 15.6194 107.844 15.6417 107.704 15.6932C107.564 15.7446 107.436 15.8241 107.328 15.9268C107.22 16.0295 107.134 16.1532 107.075 16.2904C107.016 16.4276 106.985 16.5754 106.985 16.7248C106.985 16.8742 107.016 17.022 107.075 17.1592C107.134 17.2964 107.22 17.4201 107.328 17.5228C107.436 17.6255 107.564 17.705 107.704 17.7564C107.844 17.8079 107.993 17.8302 108.142 17.8221H120.821C120.969 17.8302 121.118 17.8079 121.258 17.7564C121.398 17.705 121.526 17.6255 121.635 17.5228C121.743 17.4201 121.829 17.2964 121.888 17.1592C121.947 17.022 121.977 16.8742 121.977 16.7248C121.977 16.5754 121.947 16.4276 121.888 16.2904C121.829 16.1532 121.743 16.0295 121.635 15.9268C121.526 15.8241 121.398 15.7446 121.258 15.6932C121.118 15.6417 120.969 15.6194 120.821 15.6275H123.011C123.291 15.6122 123.555 15.4899 123.748 15.2858C123.941 15.0817 124.048 14.8113 124.048 14.5303C124.048 14.2492 123.941 13.9788 123.748 13.7747C123.555 13.5706 123.291 13.4483 123.011 13.433V13.433Z" fill="#DEE3F3"/>
<path d="M16.595 168.858C16.595 168.858 22.3251 180.126 17.6559 186.29C12.9866 192.453 18.0816 209.252 18.0816 209.252" stroke="#00B0FF" stroke-miterlimit="10"/>
<path d="M18.3038 165.335C18.3038 167.507 16.7124 169.271 16.7124 169.271C16.7124 169.271 15.1211 167.51 15.1211 165.335C15.1211 163.16 16.7124 161.399 16.7124 161.399C16.7124 161.399 18.3038 163.163 18.3038 165.335Z" fill="#00B0FF"/>
<path d="M19.5646 168.858C19.5646 168.858 13.8345 180.126 18.5037 186.29C23.173 192.453 18.0781 209.252 18.0781 209.252" stroke="#00B0FF" stroke-miterlimit="10"/>
<path d="M17.8682 165.335C17.8682 167.507 19.4595 169.271 19.4595 169.271C19.4595 169.271 21.0509 167.51 21.0509 165.335C21.0509 163.16 19.4595 161.399 19.4595 161.399C19.4595 161.399 17.8682 163.163 17.8682 165.335Z" fill="#00B0FF"/>
<path opacity="0.1" d="M17.8682 165.335C17.8682 167.507 19.4595 169.271 19.4595 169.271C19.4595 169.271 21.0509 167.51 21.0509 165.335C21.0509 163.16 19.4595 161.399 19.4595 161.399C19.4595 161.399 17.8682 163.163 17.8682 165.335Z" fill="black"/>
<path d="M21.9055 168.858C21.9055 168.858 27.6357 180.126 22.9664 186.29C18.2972 192.453 23.3921 209.252 23.3921 209.252" stroke="#00B0FF" stroke-miterlimit="10"/>
<path d="M23.5987 165.335C23.5987 167.507 22.0074 169.271 22.0074 169.271C22.0074 169.271 20.416 167.51 20.416 165.335C20.416 163.16 22.0074 161.399 22.0074 161.399C22.0074 161.399 23.5987 163.163 23.5987 165.335Z" fill="#00B0FF"/>
<path d="M22.7043 174.362C21.2014 175.927 18.834 176.091 18.834 176.091C18.834 176.091 18.906 173.716 20.409 172.155C21.9119 170.593 24.2793 170.426 24.2793 170.426C24.2793 170.426 24.1974 172.794 22.7043 174.362Z" fill="#00B0FF"/>
<path d="M22.8547 182.137C21.3517 183.701 18.9844 183.865 18.9844 183.865C18.9844 183.865 19.0564 181.491 20.5593 179.929C22.0623 178.368 24.4297 178.2 24.4297 178.2C24.4297 178.2 24.3576 180.569 22.8547 182.137Z" fill="#00B0FF"/>
<path d="M14.7023 186.411C16.1234 188.051 16.0743 190.426 16.0743 190.426C16.0743 190.426 13.72 190.141 12.2989 188.501C10.8778 186.86 10.927 184.485 10.927 184.485C10.927 184.485 13.2812 184.771 14.7023 186.411Z" fill="#00B0FF"/>
<path d="M16.0113 169.842C17.8187 171.043 18.4048 173.346 18.4048 173.346C18.4048 173.346 16.0604 173.703 14.2529 172.502C12.4455 171.302 11.8594 168.999 11.8594 168.999C11.8594 168.999 14.2136 168.635 16.0113 169.842Z" fill="#00B0FF"/>
<path opacity="0.1" d="M16.0113 169.842C17.8187 171.043 18.4048 173.346 18.4048 173.346C18.4048 173.346 16.0604 173.703 14.2529 172.502C12.4455 171.302 11.8594 168.999 11.8594 168.999C11.8594 168.999 14.2136 168.635 16.0113 169.842Z" fill="black"/>
<path d="M24.8693 168.858C24.8693 168.858 19.1392 180.126 23.8084 186.29C28.4777 192.453 23.3828 209.252 23.3828 209.252" stroke="#00B0FF" stroke-miterlimit="10"/>
<path d="M23.1729 165.335C23.1729 167.507 24.7642 169.271 24.7642 169.271C24.7642 169.271 26.3555 167.51 26.3555 165.335C26.3555 163.16 24.7642 161.399 24.7642 161.399C24.7642 161.399 23.1729 163.163 23.1729 165.335Z" fill="#00B0FF"/>
<path opacity="0.1" d="M23.1729 165.335C23.1729 167.507 24.7642 169.271 24.7642 169.271C24.7642 169.271 26.3555 167.51 26.3555 165.335C26.3555 163.16 24.7642 161.399 24.7642 161.399C24.7642 161.399 23.1729 163.163 23.1729 165.335Z" fill="black"/>
<path d="M23.6313 174.53C22.1087 176.078 21.9941 178.466 21.9941 178.466C21.9941 178.466 24.3615 178.332 25.8841 176.783C27.4067 175.235 27.5213 172.847 27.5213 172.847C27.5213 172.847 25.1539 172.981 23.6313 174.53Z" fill="#00B0FF"/>
<path opacity="0.1" d="M23.6313 174.53C22.1087 176.078 21.9941 178.466 21.9941 178.466C21.9941 178.466 24.3615 178.332 25.8841 176.783C27.4067 175.235 27.5213 172.847 27.5213 172.847C27.5213 172.847 25.1539 172.981 23.6313 174.53Z" fill="black"/>
<path d="M26.6137 185.292C25.0912 186.841 24.9766 189.229 24.9766 189.229C24.9766 189.229 27.3439 189.094 28.8665 187.546C30.3891 185.998 30.5037 183.61 30.5037 183.61C30.5037 183.61 28.1265 183.744 26.6137 185.292Z" fill="#00B0FF"/>
<path d="M22.2324 182.927C22.2324 182.927 25.6803 177.482 30.5231 177.351" stroke="#00B0FF" stroke-miterlimit="10"/>
<path d="M19.5388 179.637C19.5388 179.637 16.0908 174.192 11.248 174.061" stroke="#00B0FF" stroke-miterlimit="10"/>
<path d="M19.0898 187.412C19.0898 187.412 22.5378 181.966 27.3806 181.835" stroke="#00B0FF" stroke-miterlimit="10"/>
<path d="M30.3568 178.217C30.8505 178.217 31.2507 177.816 31.2507 177.321C31.2507 176.827 30.8505 176.426 30.3568 176.426C29.8631 176.426 29.4629 176.827 29.4629 177.321C29.4629 177.816 29.8631 178.217 30.3568 178.217Z" fill="#00B0FF"/>
<path d="M11.3324 175.002C11.8261 175.002 12.2263 174.601 12.2263 174.106C12.2263 173.612 11.8261 173.211 11.3324 173.211C10.8387 173.211 10.4385 173.612 10.4385 174.106C10.4385 174.601 10.8387 175.002 11.3324 175.002Z" fill="#00B0FF"/>
<path d="M21.6266 189.196C21.6266 189.196 18.1787 183.751 13.3359 183.619" stroke="#00B0FF" stroke-miterlimit="10"/>
<path d="M13.4222 184.567C13.9159 184.567 14.3161 184.166 14.3161 183.672C14.3161 183.177 13.9159 182.776 13.4222 182.776C12.9285 182.776 12.5283 183.177 12.5283 183.672C12.5283 184.166 12.9285 184.567 13.4222 184.567Z" fill="#00B0FF"/>
<path d="M27.4457 182.776C27.9394 182.776 28.3396 182.375 28.3396 181.881C28.3396 181.386 27.9394 180.985 27.4457 180.985C26.952 180.985 26.5518 181.386 26.5518 181.881C26.5518 182.375 26.952 182.776 27.4457 182.776Z" fill="#00B0FF"/>
<path d="M40.6941 202.694C40.6941 202.694 32.3837 201.028 30.1637 198.807C27.9437 196.587 17.9765 192.703 16.8665 195.478C15.7565 198.253 1.90587 207.69 11.3262 209.357C20.7466 211.023 33.4905 211.578 36.2606 210.466C39.0307 209.354 40.6941 202.694 40.6941 202.694Z" fill="#A8A8A8"/>
<path opacity="0.2" d="M11.3263 208.324C20.7467 209.99 33.4906 210.544 36.2607 209.432C38.3694 208.586 39.8363 204.512 40.4159 202.635L40.6942 202.695C40.6942 202.695 39.0308 209.357 36.2607 210.466C33.4906 211.574 20.7467 211.02 11.3263 209.357C8.60862 208.875 7.82932 207.746 8.12401 206.319C8.35322 207.238 9.30278 207.966 11.3263 208.324Z" fill="black"/>
<path d="M293.001 171.41C293.001 171.41 295.745 175.018 291.734 180.431C287.723 185.843 284.415 190.439 285.755 193.824C285.755 193.824 291.806 183.744 296.73 183.603C301.655 183.462 298.42 177.469 293.001 171.41Z" fill="#00B0FF"/>
<path opacity="0.1" d="M293.001 171.41C293.24 171.758 293.429 172.138 293.561 172.538C298.368 178.194 300.925 183.472 296.308 183.606C292.006 183.731 286.845 191.436 285.607 193.385C285.648 193.535 285.697 193.683 285.755 193.828C285.755 193.828 291.806 183.747 296.73 183.606C301.655 183.465 298.42 177.469 293.001 171.41Z" fill="black"/>
<path d="M298.102 175.989C298.102 177.256 297.961 178.286 297.775 178.286C297.588 178.286 297.447 177.259 297.447 175.989C297.447 174.72 297.624 175.333 297.798 175.333C297.971 175.333 298.102 174.726 298.102 175.989Z" fill="#FFD037"/>
<path d="M299.854 177.502C298.744 178.108 297.778 178.486 297.696 178.318C297.614 178.151 298.443 177.548 299.553 176.944C300.663 176.34 300.224 176.78 300.309 176.944C300.394 177.108 300.961 176.895 299.854 177.502Z" fill="#FFD037"/>
<path d="M278.508 171.41C278.508 171.41 275.764 175.018 279.775 180.431C283.786 185.843 287.093 190.439 285.754 193.824C285.754 193.824 279.703 183.744 274.778 183.603C269.854 183.462 273.089 177.469 278.508 171.41Z" fill="#00B0FF"/>
<path opacity="0.1" d="M278.508 171.41C278.269 171.758 278.08 172.138 277.948 172.538C273.141 178.194 270.584 183.472 275.201 183.606C279.503 183.731 284.664 191.436 285.901 193.385C285.861 193.535 285.811 193.683 285.754 193.828C285.754 193.828 279.703 183.747 274.778 183.606C269.854 183.465 273.089 177.469 278.508 171.41Z" fill="black"/>
<path d="M273.407 175.989C273.407 177.256 273.548 178.286 273.735 178.286C273.921 178.286 274.062 177.259 274.062 175.989C274.062 174.72 273.885 175.333 273.712 175.333C273.538 175.333 273.407 174.726 273.407 175.989Z" fill="#FFD037"/>
<path d="M271.655 177.502C272.765 178.108 273.731 178.486 273.813 178.318C273.895 178.151 273.067 177.548 271.957 176.944C270.846 176.34 271.285 176.78 271.2 176.944C271.115 177.108 270.545 176.895 271.655 177.502Z" fill="#FFD037"/>
<path d="M274.281 193.352C274.281 193.352 281.953 193.116 284.265 191.466C286.577 189.816 296.053 187.858 296.639 190.482C297.225 193.106 308.168 203.639 299.507 203.708C290.846 203.777 279.383 202.357 277.074 200.949C274.766 199.542 274.281 193.352 274.281 193.352Z" fill="#A8A8A8"/>
<path opacity="0.2" d="M299.661 202.799C291 202.868 279.537 201.448 277.228 200.041C275.47 198.968 274.769 195.12 274.537 193.346H274.281C274.281 193.346 274.766 199.545 277.074 200.953C279.383 202.36 290.846 203.784 299.507 203.711C302.009 203.692 302.87 202.799 302.824 201.481C302.477 202.284 301.537 202.783 299.661 202.799Z" fill="black"/>
<path opacity="0.5" d="M58.2315 24.4843H56.1752C56.37 24.4936 56.5646 24.4632 56.7473 24.395C56.93 24.3267 57.0969 24.222 57.2381 24.0872C57.3792 23.9524 57.4915 23.7903 57.5683 23.6108C57.645 23.4312 57.6846 23.2379 57.6846 23.0426C57.6846 22.8473 57.645 22.6539 57.5683 22.4744C57.4915 22.2948 57.3792 22.1327 57.2381 21.9979C57.0969 21.8632 56.93 21.7585 56.7473 21.6902C56.5646 21.622 56.37 21.5916 56.1752 21.6009H39.5152C39.1454 21.6186 38.7966 21.7782 38.5411 22.0466C38.2857 22.315 38.1432 22.6717 38.1432 23.0426C38.1432 23.4135 38.2857 23.7701 38.5411 24.0386C38.7966 24.307 39.1454 24.4666 39.5152 24.4843H41.5715C41.2017 24.502 40.8529 24.6616 40.5975 24.93C40.342 25.1984 40.1995 25.5551 40.1995 25.926C40.1995 26.2969 40.342 26.6535 40.5975 26.922C40.8529 27.1904 41.2017 27.35 41.5715 27.3677H38.6934C38.3236 27.3854 37.9747 27.545 37.7193 27.8134C37.4638 28.0819 37.3213 28.4385 37.3213 28.8094C37.3213 29.1803 37.4638 29.5369 37.7193 29.8054C37.9747 30.0738 38.3236 30.2334 38.6934 30.2511H55.3534C55.5481 30.2604 55.7427 30.23 55.9254 30.1618C56.1081 30.0935 56.2751 29.9888 56.4162 29.854C56.5573 29.7192 56.6697 29.5572 56.7464 29.3776C56.8232 29.198 56.8628 29.0047 56.8628 28.8094C56.8628 28.6141 56.8232 28.4208 56.7464 28.2412C56.6697 28.0616 56.5573 27.8995 56.4162 27.7648C56.2751 27.63 56.1081 27.5253 55.9254 27.457C55.7427 27.3888 55.5481 27.3584 55.3534 27.3677H58.2315C58.6013 27.35 58.9501 27.1904 59.2056 26.922C59.4611 26.6535 59.6036 26.2969 59.6036 25.926C59.6036 25.5551 59.4611 25.1984 59.2056 24.93C58.9501 24.6616 58.6013 24.502 58.2315 24.4843V24.4843Z" fill="#DEE3F3"/>
</g>
<defs>
<linearGradient id="paint0_linear" x1="150.785" y1="178.371" x2="150.785" y2="42.5655" gradientUnits="userSpaceOnUse">
<stop stop-color="#808080" stop-opacity="0.25"/>
<stop offset="0.54" stop-color="#808080" stop-opacity="0.12"/>
<stop offset="1" stop-color="#808080" stop-opacity="0.1"/>
</linearGradient>
<linearGradient id="paint1_linear" x1="125.368" y1="155.271" x2="125.368" y2="155.255" gradientUnits="userSpaceOnUse">
<stop stop-color="#808080" stop-opacity="0.25"/>
<stop offset="0.54" stop-color="#808080" stop-opacity="0.12"/>
<stop offset="1" stop-color="#808080" stop-opacity="0.1"/>
</linearGradient>
<linearGradient id="paint2_linear" x1="21085.5" y1="66327.8" x2="21085.5" y2="29737.9" gradientUnits="userSpaceOnUse">
<stop stop-color="#808080" stop-opacity="0.25"/>
<stop offset="0.54" stop-color="#808080" stop-opacity="0.12"/>
<stop offset="1" stop-color="#808080" stop-opacity="0.1"/>
</linearGradient>
<linearGradient id="paint3_linear" x1="59397.8" y1="80402.1" x2="59397.8" y2="26060.7" gradientUnits="userSpaceOnUse">
<stop stop-color="#808080" stop-opacity="0.25"/>
<stop offset="0.54" stop-color="#808080" stop-opacity="0.12"/>
<stop offset="1" stop-color="#808080" stop-opacity="0.1"/>
</linearGradient>
<clipPath id="clip0">
<rect width="311" height="217" fill="white"/>
</clipPath>
</defs>
</svg>
